<svg xmlns="http://www.w3.org/2000/svg" width="1920.058" height="1080" viewBox="0 0 1920.058 1080">
  <g id="overlay2" transform="translate(0 -160.976)">
    <path id="Path_1" data-name="Path 1" d="M0,160.976s111.171,256.33,462.439,256.33,360,331.517,602.927,389.622,380.488-68.355,547.317,109.368,249.757,68.813,280.945,130.913c10.6,21.114,22.35,47.6,26.22,77a24.307,24.307,0,0,1,.179,2.99c.012.814-.026,1.946-.027,3.165,0,2.157.056,4.552,0,7.063,0,2.828.058,6.063,0,9.8.016,10.953.083,24.575.049,35.038-.107,33.013-.033,58.7-.033,58.7L0,1240.976Z" fill="#efeeff"/>
  </g>
</svg>
