<svg id="undraw_invest_88iw" xmlns="http://www.w3.org/2000/svg" xmlns:xlink="http://www.w3.org/1999/xlink" width="1106" height="776" viewBox="0 0 1106 776">
  <defs>
    <linearGradient id="linear-gradient" x1="0.5" x2="0.5" y2="1" gradientUnits="objectBoundingBox">
      <stop offset="0" stop-color="#dc143c"/>
      <stop offset="1" stop-color="#c814dc"/>
    </linearGradient>
  </defs>
  <ellipse id="Ellipse_1" data-name="Ellipse 1" cx="416" cy="32.5" rx="416" ry="32.5" transform="translate(0 711)" fill="#3f3d56"/>
  <path id="Path_1" data-name="Path 1" d="M403.146,882.521c-.229-.375-5.641-9.41-7.517-28.172-1.721-17.213-.614-46.227,14.433-86.7,28.506-76.671-6.569-138.533-6.928-139.149l1.73-1c.091.156,9.142,15.929,14.488,41.044a179.061,179.061,0,0,1-7.416,99.807c-28.457,76.54-7.3,112.773-7.084,113.131Z" transform="translate(-247 -162)" fill="#3f3d56"/>
  <circle id="Ellipse_2" data-name="Ellipse 2" cx="13" cy="13" r="13" transform="translate(132 436)" fill="#dc143c"/>
  <circle id="Ellipse_3" data-name="Ellipse 3" cx="13" cy="13" r="13" transform="translate(173 484)" fill="#3f3d56"/>
  <circle id="Ellipse_4" data-name="Ellipse 4" cx="13" cy="13" r="13" transform="translate(145 516)" fill="#dc143c"/>
  <circle id="Ellipse_5" data-name="Ellipse 5" cx="13" cy="13" r="13" transform="translate(179 543)" fill="#dc143c"/>
  <circle id="Ellipse_6" data-name="Ellipse 6" cx="13" cy="13" r="13" transform="translate(135 585)" fill="#3f3d56"/>
  <path id="Path_2" data-name="Path 2" d="M411,883s-13-32,26-56Z" transform="translate(-247 -162)" fill="#3f3d56"/>
  <path id="Path_3" data-name="Path 3" d="M395.012,882.42S389.1,848.391,343.3,848.682Z" transform="translate(-247 -162)" fill="#3f3d56"/>
  <path id="Path_4" data-name="Path 4" d="M617,317s1,26-5,32,30,27,30,27l21-33s-8-14-6-26Z" transform="translate(-247 -162)" fill="#feb19e"/>
  <path id="Path_5" data-name="Path 5" d="M305.5,683.5v25l31,2-2-27Z" fill="#a0616a"/>
  <path id="Path_6" data-name="Path 6" d="M475.5,683.5v25l-31,2,2-27Z" fill="#a0616a"/>
  <path id="Path_7" data-name="Path 7" d="M568.5,568.5s-16,58-6,104c0,0,0,20,4,24s5,4,2,6-9,7-6,10,4,7,2,8-4,3-2,7-10,111-10,111-12,13,0,14,32,6,34-2,18-121,18-121,2-3,6-8,2-7,2-8,21-96,21-96,31,108,34,110,4,2,4,5-2,5,0,8a51.95,51.95,0,0,1,3,5s5,112,15,112,40-2,37-11-7-7-7-7,7-92-10-119v-22c0-2,1-3,0-5s3-121-16-128S568.5,568.5,568.5,568.5Z" transform="translate(-247 -162)" fill="#d0cde1"/>
  <path id="Path_8" data-name="Path 8" d="M571.5,863.5s-5-8-12-8-12,8-12,8l-18,25s-26,16-16,25,37,4,37,4,22-16,25-17,11-6,12-7-2-37-5-34.5S577.5,869.5,571.5,863.5Z" transform="translate(-247 -162)" fill="#2f2e41"/>
  <path id="Path_9" data-name="Path 9" d="M703.5,863.5s5-8,12-8,12,8,12,8l18,25s26,16,16,25-37,4-37,4-22-16-25-17-11-6-12-7,2-37,5-34.5S697.5,869.5,703.5,863.5Z" transform="translate(-247 -162)" fill="#2f2e41"/>
  <circle id="Ellipse_7" data-name="Ellipse 7" cx="36" cy="36" r="36" transform="translate(351.5 97.5)" fill="#feb19e"/>
  <path id="Path_10" data-name="Path 10" d="M625,352s-6.728.371-9.864-9.815L562,381l22,59s3,32,0,41-5,16-5,20-21,71-13,74,130,15,133-5-10-152-10-152l21-51-51.055-33.4S654,354,625,352Z" transform="translate(-247 -162)" fill="#3f3d56"/>
  <path id="Path_11" data-name="Path 11" d="M558.5,444.5l-4,31s-16,33-12,77l-1,29s-10,50,10,52,7-55,7-55l11-27,11.26-60.062L586.5,449.5Z" transform="translate(-247 -162)" fill="#feb19e"/>
  <path id="Path_12" data-name="Path 12" d="M576.5,379.5,562,381s-9.5,70.5-6.5,70.5,37,8,38,6S576.5,379.5,576.5,379.5Z" transform="translate(-247 -162)" fill="#3f3d56"/>
  <path id="Path_13" data-name="Path 13" d="M606.724,258.6l-6.49-2.36s13.569-13.569,32.448-12.389l-5.31-5.31s12.979-4.72,24.778,7.669c6.2,6.513,13.379,14.168,17.853,22.792h6.95l-2.9,5.8,10.152,5.8-10.42-1.042a29.275,29.275,0,0,1-.986,15.025l-2.36,6.49S661,282.2,661,279.836v5.9s-6.49-5.31-6.49-8.849l-3.54,4.13-1.77-6.49-21.829,6.49,3.54-5.31-13.569,1.77,5.31-6.49s-15.339,7.669-15.929,14.159-8.259,14.749-8.259,14.749l-3.54-5.9S589.615,267.447,606.724,258.6Z" transform="translate(-247 -162)" fill="#2f2e41"/>
  <ellipse id="Ellipse_8" data-name="Ellipse 8" cx="66.75" cy="95" rx="66.75" ry="95" transform="translate(387.5 419.5)" fill="#3f3d56"/>
  <ellipse id="Ellipse_9" data-name="Ellipse 9" cx="66.75" cy="95" rx="66.75" ry="95" transform="translate(387.5 419.5)" opacity="0.1"/>
  <ellipse id="Ellipse_10" data-name="Ellipse 10" cx="66.75" cy="95" rx="66.75" ry="95" transform="translate(396.5 419.5)" fill="#3f3d56"/>
  <ellipse id="Ellipse_11" data-name="Ellipse 11" cx="57.25" cy="81.479" rx="57.25" ry="81.479" transform="translate(406 433.021)" opacity="0.1"/>
  <path id="Path_14" data-name="Path 14" d="M709.754,715.748v-9.565c-4.835-.094-9.837-1.8-12.754-4.167l2-6.345a20.388,20.388,0,0,0,12,4.072c5.919,0,9.92-3.883,9.92-9.28,0-5.209-3.251-8.428-9.42-11.269-8.5-3.788-13.755-8.144-13.755-16.383,0-7.86,4.918-13.826,12.588-15.247V638h5.168v9.186a20.282,20.282,0,0,1,10.837,3.314l-2.084,6.25a18.421,18.421,0,0,0-10.5-3.22c-6.419,0-8.836,4.356-8.836,8.144,0,4.924,3.084,7.386,10.337,10.8,8.586,3.977,12.921,8.9,12.921,17.33,0,7.481-4.585,14.489-13.171,16.1v9.849Z" transform="translate(-247 -162)" fill="#dc143c"/>
  <path id="Path_15" data-name="Path 15" d="M724.5,433.5v41s1,50-16,81l-9,20s-18,58-29,40,12-48,12-48l13.016-76.12L687.5,440.5Z" transform="translate(-247 -162)" fill="#feb19e"/>
  <path id="Path_16" data-name="Path 16" d="M690.5,364.5,710,367s23.5,71.5,17.5,74.5-45,5-45,5Z" transform="translate(-247 -162)" fill="#3f3d56"/>
  <rect id="Rectangle_1" data-name="Rectangle 1" width="458" height="512.741" transform="translate(591 50.259)" fill="#f2f2f2"/>
  <path id="Path_17" data-name="Path 17" d="M922,598.814H910v-2h12Zm-24,0H886v-2h12Zm-24,0H862v-2h12Zm-24,0H838v-2h12Z" transform="translate(-247 -162)" fill="#e6e6e6"/>
  <path id="Path_18" data-name="Path 18" d="M1090,504h-12v-2h12Zm-24,0h-12v-2h12Zm-24,0h-12v-2h12Zm-24,0h-12v-2h12Zm-24,0H982v-2h12Zm-24,0H958v-2h12Zm-24,0H934v-2h12Zm-24,0H910v-2h12Zm-24,0H886v-2h12Zm-24,0H862v-2h12Zm-24,0H838v-2h12Z" transform="translate(-247 -162)" fill="#e6e6e6"/>
  <path id="Path_19" data-name="Path 19" d="M1330,445h-12v-2h12Zm-24,0h-12v-2h12Zm-24,0h-12v-2h12Zm-24,0h-12v-2h12Zm-24,0h-12v-2h12Zm-24,0h-12v-2h12Zm-24,0h-12v-2h12Zm-24,0h-12v-2h12Zm-24,0h-12v-2h12Zm-24,0h-12v-2h12Zm-24,0h-12v-2h12Zm-24,0h-12v-2h12Zm-24,0h-12v-2h12Zm-24,0h-12v-2h12Zm-24,0H982v-2h12Zm-24,0H958v-2h12Zm-24,0H934v-2h12Zm-24,0H910v-2h12Zm-24,0H886v-2h12Zm-24,0H862v-2h12Zm-24,0H838v-2h12Z" transform="translate(-247 -162)" fill="#e6e6e6"/>
  <rect id="Rectangle_2" data-name="Rectangle 2" width="2" height="6" transform="translate(680 0.776)" fill="#e6e6e6"/>
  <path id="Path_20" data-name="Path 20" d="M929,617.2h-2V605.4h2Zm0-23.6h-2V581.8h2Zm0-23.6h-2V558.2h2Zm0-23.6h-2v-11.8h2Zm0-23.6h-2v-11.8h2Zm0-23.6h-2v-11.8h2Zm0-23.6h-2v-11.8h2Zm0-23.6h-2v-11.8h2Zm0-23.6h-2v-11.8h2Zm0-23.6h-2v-11.8h2Zm0-23.6h-2v-11.8h2Zm0-23.6h-2v-11.8h2Zm0-23.6h-2v-11.8h2Zm0-23.6h-2v-11.8h2Zm0-23.6h-2v-11.8h2Zm0-23.6h-2v-11.8h2Zm0-23.6h-2v-11.8h2Zm0-23.6h-2v-11.8h2Zm0-23.6h-2v-11.8h2Z" transform="translate(-247 -162)" fill="#e6e6e6"/>
  <rect id="Rectangle_3" data-name="Rectangle 3" width="2" height="6" transform="translate(680 467)" fill="#e6e6e6"/>
  <rect id="Rectangle_4" data-name="Rectangle 4" width="2" height="6" transform="translate(854 0.776)" fill="#e6e6e6"/>
  <path id="Path_21" data-name="Path 21" d="M1103,526.09h-2V514.179h2Zm0-23.821h-2V490.358h2Zm0-23.821h-2v-11.91h2Zm0-23.82h-2V442.716h2Zm0-23.821h-2V418.9h2Zm0-23.821h-2V395.074h2Zm0-23.821h-2V371.253h2Zm0-23.821h-2v-11.91h2Zm0-23.821h-2V323.611h2Zm0-23.821h-2v-11.91h2Zm0-23.821h-2V275.97h2Zm0-23.821h-2v-11.91h2Zm0-23.821h-2v-11.91h2Zm0-23.821h-2V204.507h2Zm0-23.821h-2V180.686h2Z" transform="translate(-247 -162)" fill="#e6e6e6"/>
  <rect id="Rectangle_5" data-name="Rectangle 5" width="2" height="6" transform="translate(854 376)" fill="#e6e6e6"/>
  <path id="Path_22" data-name="Path 22" d="M591,563l91-91,41.5,41.5L855,382l85,85,153-153V563Z" fill="url(#linear-gradient)"/>
  <path id="Path_23" data-name="Path 23" d="M1341,726H837V162h504Zm-502-2h500V164H839Z" transform="translate(-247 -162)" fill="#3f3d56"/>
  <circle id="Ellipse_12" data-name="Ellipse 12" cx="13" cy="13" r="13" transform="translate(668 421)" fill="#3f3d56"/>
  <circle id="Ellipse_13" data-name="Ellipse 13" cx="13" cy="13" r="13" transform="translate(842 328)" fill="#3f3d56"/>
  <circle id="Ellipse_14" data-name="Ellipse 14" cx="13" cy="13" r="13" transform="translate(1080 269)" fill="#3f3d56"/>
  <path id="Path_24" data-name="Path 24" d="M1249,242c-5.817,1.688-13.621,2.991-19.4,2.53l7.538,5.007L882.405,512.2l1.189,1.607L1238.33,251.144l2.591,8.673C1242.17,254.157,1245.69,247.073,1249,242Z" transform="translate(-247 -162)" fill="#3f3d56"/>
</svg>
