<svg xmlns="http://www.w3.org/2000/svg" xmlns:xlink="http://www.w3.org/1999/xlink" width="950.72" height="649.58" viewBox="0 0 950.72 649.58">
  <defs>
    <linearGradient id="linear-gradient" x1="0.5" y1="1" x2="0.5" gradientUnits="objectBoundingBox">
      <stop offset="0" stop-color="gray" stop-opacity="0.251"/>
      <stop offset="0.54" stop-color="gray" stop-opacity="0.122"/>
      <stop offset="1" stop-color="gray" stop-opacity="0.102"/>
    </linearGradient>
  </defs>
  <g id="undraw_printing_invoices_5r4r" transform="translate(-114.1 -75.58)">
    <path id="Path_26" data-name="Path 26" d="M1075.91,749.56c0,22.73-23.56,44-64.67,62.32H234.68c-35.93,0-69.58-13-98.42-35.67-7.25-8.6-11.07-17.51-11.07-26.66,0-24.16,26.64-46.71,72.7-65.77h0l1.3-.52c13-5.33,27.53-10.36,43.41-15.09.4-.12.81-.23,1.21-.37h0q18.9-5.55,40.21-10.52c.45-.1.89-.21,1.34-.29,5.48-1.3,11.07-2.51,16.78-3.72h0l2.2-.46c41.55-8.62,88.78-15.46,140-20.1h.06q10.76-1,21.75-1.79c8.15-.65,16.4-1.2,24.74-1.71,6.37-.41,12.82-.76,19.29-1.08a.19.19,0,0,1,.15,0c29.19-1.47,59.35-2.24,90.19-2.24,76.26,0,148.34,4.68,212.21,13a.517.517,0,0,1,.18,0c9.82,1.28,19.46,2.63,28.86,4.07,2.69.42,5.37.84,8,1.27q15.91,2.57,31,5.43h0C999.07,672.15,1075.91,708.54,1075.91,749.56Z" transform="translate(-11.09 -87.42)" fill="#6c63ff" opacity="0.1"/>
    <path id="Path_27" data-name="Path 27" d="M882.59,330.7s-10.58-4.29-44.24,11.14S800.49,355.32,791.78,353s-13.57-2.92-22.91-15.81c0,0-6.59-35.71-13-41.25s-33.47,3.16-33.47,3.16-32.49,7.45-38.68-36c0,0,4.39-32.72-1.59-42.76,0,0,12.08,5.2,32-3.2S750,226.19,750,226.19s5,13,4.5,20.76,2.66,10.67,12.16,6.92c0,0,4.67-6.64-1.94-17.62s-11.33-19.15-9.49-27.67,7.15-20.35,24.2-26.26,40.2-7,51.31-11.67S844.59,163,844.59,163s-6.84,6.85,9.27,35.9,5.84,41.65,5.84,41.65-8.57,20.43-46.41,18.77c0,0-36.46,1.33-16.58,16.79,0,0,12.73-2.59,31.76-8.64s32.77,18.92,36.18,36.29S882.59,330.7,882.59,330.7Z" transform="translate(-11.09 -87.42)" fill="#dc143c"/>
    <path id="Path_28" data-name="Path 28" d="M833.58,185l.2-.06c1.46,5.54-14.83,27.82-28.76,45.53l-.16-.13C824.5,205.4,834.71,189.29,833.58,185Z" transform="translate(-11.09 -87.42)" fill="#444053"/>
    <path id="Path_29" data-name="Path 29" d="M805.14,230l.09.22c-11.13,14.14-25.12,31-36.32,43.53-1.07,1.19-2.13,2.44-3.15,3.72l-.32-.26c1-1.28,2.09-2.54,3.16-3.73C779.79,261,794,244.15,805.14,230Z" transform="translate(-11.09 -87.42)" fill="#444053"/>
    <path id="Path_30" data-name="Path 30" d="M765.71,276.89l.22.38c-20.38,25.45-21.73,65-21.78,65.31l-4.3-5C739.9,337.26,745.19,302.52,765.71,276.89Z" transform="translate(-11.09 -87.42)" fill="#444053"/>
    <path id="Path_31" data-name="Path 31" d="M859,316.9s-24-12.5-42.76-8S755.29,293,755.29,293s-17.9-7.27-21.5-15.56c0,0-12.29-13-13-19.71s-12.66-23.62-20.46-24.27" transform="translate(-11.09 -87.42)" fill="none" stroke="#444053" stroke-miterlimit="10" stroke-width="1"/>
    <path id="Path_32" data-name="Path 32" d="M855.47,328.93s-12.1-8.16-10.69-17.66" transform="translate(-11.09 -87.42)" fill="none" stroke="#444053" stroke-miterlimit="10" stroke-width="1"/>
    <path id="Path_33" data-name="Path 33" d="M836.91,339.46s-17.31-6.28-19-30.92" transform="translate(-11.09 -87.42)" fill="none" stroke="#444053" stroke-miterlimit="10" stroke-width="1"/>
    <path id="Path_34" data-name="Path 34" d="M809,345.84s-16.54-13.72-11.05-37.7" transform="translate(-11.09 -87.42)" fill="none" stroke="#444053" stroke-miterlimit="10" stroke-width="1"/>
    <path id="Path_35" data-name="Path 35" d="M775.41,339.14s-11-23.1-1.21-38.13" transform="translate(-11.09 -87.42)" fill="none" stroke="#444053" stroke-miterlimit="10" stroke-width="1"/>
    <path id="Path_36" data-name="Path 36" d="M859.23,301.67s-12.51,4-9.83,10.56" transform="translate(-11.09 -87.42)" fill="none" stroke="#444053" stroke-miterlimit="10" stroke-width="1"/>
    <path id="Path_37" data-name="Path 37" d="M844.13,279s-16.75,5.31-17.14,29" transform="translate(-11.09 -87.42)" fill="none" stroke="#444053" stroke-miterlimit="10" stroke-width="1"/>
    <path id="Path_38" data-name="Path 38" d="M820.77,273.48s-15.25,18.82-14.13,35.92" transform="translate(-11.09 -87.42)" fill="none" stroke="#444053" stroke-miterlimit="10" stroke-width="1"/>
    <path id="Path_39" data-name="Path 39" d="M794.07,280.86s-15.14,14.48-13.21,22.53" transform="translate(-11.09 -87.42)" fill="none" stroke="#444053" stroke-miterlimit="10" stroke-width="1"/>
    <path id="Path_40" data-name="Path 40" d="M784.94,275.75s-14.2,2.54-16.19-2.12" transform="translate(-11.09 -87.42)" fill="none" stroke="#444053" stroke-miterlimit="10" stroke-width="1"/>
    <path id="Path_41" data-name="Path 41" d="M766.49,258.61s7.17,9.5,9,7.37" transform="translate(-11.09 -87.42)" fill="none" stroke="#444053" stroke-miterlimit="10" stroke-width="1"/>
    <path id="Path_42" data-name="Path 42" d="M837.61,252.6s-35.8,2.6-43.9-8.2" transform="translate(-11.09 -87.42)" fill="none" stroke="#444053" stroke-miterlimit="10" stroke-width="1"/>
    <path id="Path_43" data-name="Path 43" d="M759,210.73s16.79,36.05,29,40.64" transform="translate(-11.09 -87.42)" fill="none" stroke="#444053" stroke-miterlimit="10" stroke-width="1"/>
    <path id="Path_44" data-name="Path 44" d="M776.58,193.56s10.31,33.16,23.09,43.51" transform="translate(-11.09 -87.42)" fill="none" stroke="#444053" stroke-miterlimit="10" stroke-width="1"/>
    <path id="Path_45" data-name="Path 45" d="M852.67,225.23s-27.22,11.68-43.56-.14" transform="translate(-11.09 -87.42)" fill="none" stroke="#444053" stroke-miterlimit="10" stroke-width="0.75"/>
    <path id="Path_46" data-name="Path 46" d="M800.82,186.49s6.22,24.37,14.6,30.26" transform="translate(-11.09 -87.42)" fill="none" stroke="#444053" stroke-miterlimit="10" stroke-width="0.75"/>
    <path id="Path_47" data-name="Path 47" d="M848.56,197.92s-15.3,5.8-21,1.36" transform="translate(-11.09 -87.42)" fill="none" stroke="#444053" stroke-miterlimit="10" stroke-width="0.75"/>
    <path id="Path_48" data-name="Path 48" d="M753.38,266.57s0,21.25-5.78,22.76" transform="translate(-11.09 -87.42)" fill="none" stroke="#444053" stroke-miterlimit="10" stroke-width="1"/>
    <path id="Path_49" data-name="Path 49" d="M706.09,294.1s23,2,33.57-9.89" transform="translate(-11.09 -87.42)" fill="none" stroke="#444053" stroke-miterlimit="10" stroke-width="1"/>
    <path id="Path_50" data-name="Path 50" d="M747.46,241.47s-5.56,21.55-20.9,27.36" transform="translate(-11.09 -87.42)" fill="none" stroke="#444053" stroke-miterlimit="10" stroke-width="1"/>
    <path id="Path_51" data-name="Path 51" d="M692.31,271.4s16.26,5.65,30.25-8.74" transform="translate(-11.09 -87.42)" fill="none" stroke="#444053" stroke-miterlimit="10" stroke-width="1"/>
    <path id="Path_52" data-name="Path 52" d="M729.37,222.94s-1.53,18.3-11.48,26.87" transform="translate(-11.09 -87.42)" fill="none" stroke="#444053" stroke-miterlimit="10" stroke-width="1"/>
    <path id="Path_53" data-name="Path 53" d="M692.93,243.51s13.49.09,16.65-4.31" transform="translate(-11.09 -87.42)" fill="none" stroke="#444053" stroke-miterlimit="10" stroke-width="1"/>
    <rect id="Rectangle_6" data-name="Rectangle 6" width="384.2" height="193.94" transform="translate(395.21 225.58)" fill="#33323d"/>
    <rect id="Rectangle_7" data-name="Rectangle 7" width="624.78" height="127.66" transform="translate(275.53 478.44)" fill="#33323d"/>
    <path id="Path_54" data-name="Path 54" d="M424.67,510.35H745.04l63.83,214.81H357.16Z" fill="#fff"/>
    <path id="Path_55" data-name="Path 55" d="M257.73,402.33V606.09H377.41V488.26H798.43V606.09H918.11V402.33Z" fill="#504f60"/>
    <rect id="Rectangle_8" data-name="Rectangle 8" width="660.38" height="66.28" transform="translate(257.73 402.33)" fill="#33323d" opacity="0.1"/>
    <path id="Path_121" data-name="Path 121" d="M9.82,0A9.82,9.82,0,1,1,0,9.82,9.82,9.82,0,0,1,9.82,0Z" transform="translate(872.7 425.66)" fill="#7cff00" opacity="0.8"/>
    <circle id="Ellipse_16" data-name="Ellipse 16" cx="9.82" cy="9.82" r="9.82" transform="translate(828.51 425.66)" fill="#dc143c" opacity="0.8"/>
    <rect id="Rectangle_9" data-name="Rectangle 9" width="355.97" height="211.12" transform="translate(409.33 178.93)" fill="#fff"/>
    <path id="Path_56" data-name="Path 56" d="M830.54,574.49c.75,8.17-5.42,16.1-3.62,24.1.38,1.71,1.12,3.33,1.39,5,.74,4.75-2.09,9.25-4.8,13.23L800.28,651a21.217,21.217,0,0,1-3.32,4.1c-4.45,4-11.11,3.54-16.94,4.72a29.079,29.079,0,0,0-11.35,5,.74.74,0,0,0-.15,1,9.77,9.77,0,0,0,8.44,4c.61.8,0,2-.84,2.56-1.25.86-3,1.09-3.21,3.21a3.52,3.52,0,0,0,.42,2.13,6.61,6.61,0,0,0,4.07,2.82c8,2.46,16.73-1.86,22.75-7.74s10.34-13.3,16.25-19.29c3.27-3.31,7-6.15,10.36-9.36,6.72-6.4,12-14.19,17-22a24.2,24.2,0,0,0,3.68-7.49c.62-2.66.34-5.47,1.06-8.11.94-3.45,3.47-6.2,5.57-9.1,4.13-5.68,6.88-12.62,6.33-19.62s-4.87-13.89-11.47-16.27a10.29,10.29,0,0,0-6.43-.39c-2.71.83-4.7,3.07-6.55,5.21l-4.41,5.09a12.29,12.29,0,0,0-2.57,3.91,4.07,4.07,0,0,0,.91,4.34" transform="translate(-11.09 -87.42)" fill="#fbbebe"/>
    <path id="Path_57" data-name="Path 57" d="M830.54,574.49c.75,8.17-5.42,16.1-3.62,24.1.38,1.71,1.12,3.33,1.39,5,.74,4.75-2.09,9.25-4.8,13.23L800.28,651a21.217,21.217,0,0,1-3.32,4.1c-4.45,4-11.11,3.54-16.94,4.72a29.079,29.079,0,0,0-11.35,5,.74.74,0,0,0-.15,1,9.77,9.77,0,0,0,8.44,4c.61.8,0,2-.84,2.56-1.25.86-3,1.09-3.21,3.21a3.52,3.52,0,0,0,.42,2.13,6.61,6.61,0,0,0,4.07,2.82c8,2.46,16.73-1.86,22.75-7.74s10.34-13.3,16.25-19.29c3.27-3.31,7-6.15,10.36-9.36,6.72-6.4,12-14.19,17-22a24.2,24.2,0,0,0,3.68-7.49c.62-2.66.34-5.47,1.06-8.11.94-3.45,3.47-6.2,5.57-9.1,4.13-5.68,6.88-12.62,6.33-19.62s-4.87-13.89-11.47-16.27a10.29,10.29,0,0,0-6.43-.39c-2.71.83-4.7,3.07-6.55,5.21l-4.41,5.09a12.29,12.29,0,0,0-2.57,3.91,4.07,4.07,0,0,0,.91,4.34" transform="translate(-11.09 -87.42)" opacity="0.05"/>
    <path id="Path_58" data-name="Path 58" d="M848.13,784.78c-5.08,3.09-11.4,3.29-17.3,2.56-1-.11-2.07-.18-2.68.55-.88,1.07.16,2.63,1.23,3.49a25.74,25.74,0,0,0,11.89,4.89,80.452,80.452,0,0,0,11.62.77c10.6.18,21.26.36,31.76-1.17a4.289,4.289,0,0,0,1.73-.51,3.21,3.21,0,0,0,1.31-2c.73-2.72-.66-5.66-2.75-7.55s-4.78-2.95-7.41-4l-9.22-3.59c-2.17-.85-5.64-3.08-8-2.91C856,775.66,851.79,782.64,848.13,784.78Z" transform="translate(-11.09 -87.42)" fill="#3f3d56"/>
    <path id="Path_59" data-name="Path 59" d="M848.13,784.78c-5.08,3.09-11.4,3.29-17.3,2.56-1-.11-2.07-.18-2.68.55-.88,1.07.16,2.63,1.23,3.49a25.74,25.74,0,0,0,11.89,4.89,80.452,80.452,0,0,0,11.62.77c10.6.18,21.26.36,31.76-1.17a4.289,4.289,0,0,0,1.73-.51,3.21,3.21,0,0,0,1.31-2c.73-2.72-.66-5.66-2.75-7.55s-4.78-2.95-7.41-4l-9.22-3.59c-2.17-.85-5.64-3.08-8-2.91C856,775.66,851.79,782.64,848.13,784.78Z" transform="translate(-11.09 -87.42)" opacity="0.05"/>
    <path id="Path_60" data-name="Path 60" d="M854.56,662.33c-3.83,5.11-7.81,11-6.86,17.33.51,3.41,2.42,6.42,3.82,9.57a67.41,67.41,0,0,1,3.87,13.44c1.44,6.69,2.88,13.4,3.76,20.19,1,7.67-3.7,29.86-4.14,37.59-.11,1.86-.32,3.88-1.62,5.22-.51.53-1.19,1-1.41,1.65a2.77,2.77,0,0,0,.3,1.94c2.17,4.89,6.6,8.52,11.52,10.6s16.89,5.65,22.23,5.84a4.21,4.21,0,0,0,2.09-.28,4,4,0,0,0,1.62-1.85c3.86-7.37.15-33.61.21-41.94,0-7,1.69-13.84,1.39-20.78-.25-5.57-1.74-11-2.28-16.56-.89-9.11.78-18.25,2.46-27.25,1.28-6.89,2.56-13.79,4.2-20.61,1-4.15,2.16-8.35,4.45-12,1.81-2.87,4.27-5.26,6.34-8a36,36,0,0,0,7.09-26.38c-.12-.92-13.32,3.35-14.47,3.85a45.311,45.311,0,0,0-12.89,8.3c-3,2.9-5.45,6.79-8.13,10.05q-5.67,6.9-11.19,13.91Q860.65,654.21,854.56,662.33Z" transform="translate(-11.09 -87.42)" fill="#464353"/>
    <path id="Path_61" data-name="Path 61" d="M854.56,662c-3.83,5.11-7.81,11-6.86,17.34.51,3.4,2.42,6.41,3.82,9.56a67.6,67.6,0,0,1,3.87,13.44c1.44,6.69,2.88,13.4,3.76,20.19,1,7.67-3.7,29.87-4.14,37.6-.11,1.85-.32,3.88-1.62,5.21-.51.53-1.19,1-1.41,1.65a2.81,2.81,0,0,0,.3,2c2.17,4.88,6.6,8.52,11.52,10.59s16.89,4,22.23,4.17a4.211,4.211,0,0,0,2.09-.28,4,4,0,0,0,1.62-1.85c3.86-7.37.15-31.94.21-40.26,0-7,1.69-13.85,1.39-20.79-.25-5.57-1.74-11-2.28-16.56-.89-9.11.78-18.25,2.46-27.24,1.28-6.9,2.56-13.8,4.2-20.62,1-4.15,2.16-8.35,4.45-12,1.81-2.86,4.27-5.26,6.34-7.94a36.07,36.07,0,0,0,7.09-26.38c-.12-.93-13.32,3.34-14.47,3.85A45.059,45.059,0,0,0,886.24,622c-3,2.91-5.45,6.79-8.13,10q-5.67,6.9-11.19,13.92Q860.65,653.92,854.56,662Z" transform="translate(-11.09 -87.42)" opacity="0.05"/>
    <circle id="Ellipse_17" data-name="Ellipse 17" cx="21.53" cy="21.53" r="21.53" transform="translate(779.25 419.34)" fill="#fbbebe"/>
    <path id="Path_62" data-name="Path 62" d="M831.25,527.39a27.94,27.94,0,0,0,17.87,12.5l-1.62,5.87c-2.8,10.13-6,20.84-13.77,27.86.85-3.43-.25-7.12-2.19-10.07a38.61,38.61,0,0,0-7.31-7.64l-12.39-10.78a3.7,3.7,0,0,1-.93-1,3.21,3.21,0,0,1,0-2.36c1.58-4.91,6.09-8,9.74-11.3a34.62,34.62,0,0,0,4.9-5.71C828.09,521.23,829.62,524.76,831.25,527.39Z" transform="translate(-11.09 -87.42)" fill="#fbbebe"/>
    <path id="Path_63" data-name="Path 63" d="M783.5,506.65l-.48-4c3.4.88,6.62-2,8.79-5s4.19-6.52,7.5-7.76c4-1.52,8.28.91,12.12,2.91a38.391,38.391,0,0,0,13.92,4.55,9,9,0,0,1,2.3.38c2.5.89,3.69,4,4.05,6.87s.26,5.87,1.5,8.41c.93,1.92,2.54,3.35,3.52,5.24,2.63,5.1.09,12.06,2.87,17.06l-6.9-6.33c-.64-.58-1.53-1.18-2.22-.69s-.59,1.23-.82,1.9c-.67,2-3.12,2.56-4.91,1.79s-3.08-2.47-4.39-4c-3.05-3.6-6.68-6.76-11-8.3a14.06,14.06,0,0,0-11.59.69c-3.22,1.82-5.58,6.06-9.52,6.21-5.41.2-7.66-9.87-10.17-13.85a4.9,4.9,0,0,0,1.42-6.11C779.93,506.45,783.43,506,783.5,506.65Z" transform="translate(-11.09 -87.42)" fill="#464353"/>
    <path id="Path_64" data-name="Path 64" d="M873.24,784.61a22.76,22.76,0,0,1-15.48,5.77c-1.45,0-3.46.28-3.47,1.73a2.32,2.32,0,0,0,.42,1.2,14.23,14.23,0,0,0,8,6.26c3.1.94,6.42.78,9.66.62l9.45-.49c1.78-.1,3.57-.19,5.35-.41s3.7-.59,5.56-.86a72.752,72.752,0,0,1,13.76-.65c1.22.05,2.63,0,3.39-.92s.35-2.58.07-3.91c-.56-2.74,0-5.61-.52-8.36-.91-4.83-5.06-8.52-9.64-10.27-4.25-1.62-11.79-3.47-15.82-.78C879.65,776.44,877.05,781.16,873.24,784.61Z" transform="translate(-11.09 -87.42)" fill="#3f3d56"/>
    <path id="Path_65" data-name="Path 65" d="M882.6,623c.84,4,4.67,7,4.79,11,.09,3.24-2.23,6-3.89,8.75a58,58,0,0,0-4,9,137.6,137.6,0,0,1-11.68,23.15c-2.22,3.51-4.7,7.33-4.19,11.46a17.172,17.172,0,0,0,2,5.48l6.65,13.21a38,38,0,0,1,3.4,8.35c.57,2.51.63,5.11,1,7.67,1.05,8.1,4.85,16.26,2.61,24.11-.2.68-.9,1.5-1.43,1,2.19,4.1,4,8.24,3.79,12.89-.09,2.44-.84,5,.07,7.26a7.89,7.89,0,0,1,1,2.86c0,.66-.31,1.29-.38,2-.18,1.87,1.53,3.43,3.32,4s3.72.55,5.52,1.09c3.47,1,5.93,4,8.9,6.08a18.71,18.71,0,0,0,10.22,3.33,2.56,2.56,0,0,0,1.5-.3,2.44,2.44,0,0,0,.84-1.83,10.14,10.14,0,0,0-3.66-8.81,4.07,4.07,0,0,1-1.35-1.42,3.4,3.4,0,0,1-.13-1.59,118.715,118.715,0,0,0-.39-21.82,33,33,0,0,1-.35-6.94c.2-1.93.78-3.85.56-5.78s-1.19-3.67-1.77-5.53c-1-3.3-.74-6.84-.85-10.3-.18-6-1.55-11.88-2.92-17.72-.53-2.29-1.13-4.7-2.76-6.4-1.38-1.44-3.61-2.83-3.09-4.75a5.5,5.5,0,0,1,1.26-1.89,7.59,7.59,0,0,0,1.59-5.79,2.58,2.58,0,0,0,3-1.4c10.81-5.09,19.55-15.29,23.4-26.61a8.841,8.841,0,0,1,1-2.37c1-1.4,2.74-2,4.28-2.78,4.84-2.43,8.19-7,11.26-11.47,1.79-2.6,3.57-5.28,4.34-8.33a27.322,27.322,0,0,0,.6-6l.27-10.42a5.612,5.612,0,0,0-.2-2,4.83,4.83,0,0,0-1.12-1.65,20.071,20.071,0,0,0-11-6c-2.84-.51-5.74-.41-8.61-.65-5.57-.46-11.07-2.18-16.64-1.78-8.76.64-16.55,6.71-20.68,14.46C887.23,620.59,885.71,623,882.6,623Z" transform="translate(-11.09 -87.42)" fill="#464353"/>
    <path id="Path_66" data-name="Path 66" d="M834,555.24a11.431,11.431,0,0,1-.63,4.74c-.68,1.46-2.4,2.59-3.89,2,.45-1-.75-2.19-1.86-2.06a3.46,3.46,0,0,0-2.46,2.09,7.76,7.76,0,0,0-.71,4.81c.35,2,1.53,4,1.22,6-.25,1.7-1.5,3.4-.83,5a8.1,8.1,0,0,0,1.6,1.92,5.42,5.42,0,0,1-.57,7.45l16.78.33c-.61,2.81.64,5.68,2.08,8.17a51.46,51.46,0,0,0,38.35,25,3.35,3.35,0,0,0-.8,5.11c1.36,1.35,3.67,1.18,5.38.3s3.06-2.33,4.62-3.45a14.11,14.11,0,0,1,9.48-2.56c2.1.2,4.14.88,6.25,1,6.22.33,11.56-4.14,17.51-6,4.36-1.34,9.29-1.34,13-4.06,1.58-1.17,2.87-3.09,2.41-5a8.291,8.291,0,0,0-1.81-2.94c-2.11-2.72-3.35-6-4.85-9.09a54.478,54.478,0,0,0-12.13-16.24,108.917,108.917,0,0,0-12-9.13,21.138,21.138,0,0,0-3.26-2,34.121,34.121,0,0,1-4.46-1.81c-2-1.24-3.11-3.43-4.62-5.2-3.33-3.88-8.44-5.67-12.54-8.72-2.75-2-5.17-4.74-8.46-5.73-1.59-.48-3.29-.52-4.89-1-3.62-1.1-6.26-4.32-9.82-5.62-2.82-1-5.92-.76-8.9-1.13a20.56,20.56,0,0,1-9.13-3.47,11,11,0,0,0-3-1.72c-4.49-1.37-4.86,7-5.28,9.91C835.11,546.59,834,550.87,834,555.24Z" transform="translate(-11.09 -87.42)" fill="#dc143c"/>
    <path id="Path_67" data-name="Path 67" d="M838.38,583.34c.75,8.17-5.42,16.09-3.62,24.1.38,1.71,1.12,3.33,1.39,5,.75,4.75-2.09,9.25-4.8,13.22l-23.23,34.1a21.22,21.22,0,0,1-3.32,4.1c-4.45,4-11.11,3.54-16.94,4.72a29.151,29.151,0,0,0-11.35,5,.74.74,0,0,0-.15,1,9.74,9.74,0,0,0,8.44,4c.61.81,0,2-.84,2.56-1.25.87-3,1.1-3.21,3.22a3.52,3.52,0,0,0,.42,2.13,6.65,6.65,0,0,0,4.07,2.82c8,2.46,16.73-1.86,22.75-7.74s10.34-13.3,16.26-19.29c3.27-3.31,7-6.15,10.35-9.36,6.73-6.4,11.95-14.19,17-22a24.309,24.309,0,0,0,3.68-7.49c.62-2.66.34-5.47,1.06-8.11.94-3.45,3.47-6.21,5.57-9.1,4.13-5.68,6.88-12.62,6.33-19.62s-4.87-13.89-11.47-16.27a10.22,10.22,0,0,0-6.43-.39c-2.7.83-4.7,3.07-6.55,5.21l-4.41,5.09a12.09,12.09,0,0,0-2.56,3.91,4.05,4.05,0,0,0,.9,4.33" transform="translate(-11.09 -87.42)" fill="#fbbebe"/>
    <path id="Path_68" data-name="Path 68" d="M850.14,549.77c-3.06.18-6.42.48-8.58,2.66a12.329,12.329,0,0,0-2.16,3.38c-2.09,4.27-4.13,8.73-4.28,13.48-.13,3.8,1,7.51,1.55,11.27.48,3.12-.74,6.3-1,9.46,3.79-1.16,8.79-2.74,12.23-4.7a40.479,40.479,0,0,1,7.15-3.72c3.65-1.21,9.78.87,13.22,2.58.19-2.44-1.63-6.67-1.44-9.11a10.309,10.309,0,0,1,.54-3,18.448,18.448,0,0,1,1.83-2.91,11.92,11.92,0,0,0-1.07-14c-3.07-3.46-7.89-4.76-12.48-5.29a54.122,54.122,0,0,0-8.72-.31" transform="translate(-11.09 -87.42)" fill="#dc143c"/>
    <path id="Path_69" data-name="Path 69" d="M397.09,479.81l-19.72-28.6s-.37-7.08-1.66-8.73-.28-5.33-.28-5.33,1.39-2,.19-2.21-.19-4.69-.19-4.69l-.09-7.17s1.11-6.9.19-8.55a2.71,2.71,0,0,1,.09-2.95s1.1-3.95,0-5-.83-7.17-.56-12.05-1.93-7.63-1.93-8.36-7.28-7.91-7.28-8.56-4.61-3.31-7.38-4-4.14-1.29-4.05-1.66-4.33-1.83-4.33-1.83-3.87-.28-5.35-2.21-6-2.49-6.11-2.51l-.09-.38a2.073,2.073,0,0,0-.08-.42,19.352,19.352,0,0,0,1-1.8l.26-.56a7.82,7.82,0,0,0,4.53-1.41,6.13,6.13,0,0,0,2.21-4.41,9.64,9.64,0,0,0-1.08-4.9c-.81-1.65-2-3.37-1.58-5.17.18-.77.64-1.45.88-2.21a5.84,5.84,0,0,0-.66-4.36c-.7-1.33-1.67-2.51-2.45-3.8a15,15,0,0,1-1.95-5.38,8.289,8.289,0,0,0-.71-2.93,5.47,5.47,0,0,0-1.62-1.63,16.18,16.18,0,0,0-9.91-3c-2.51.08-5,.76-7.5.45a26.875,26.875,0,0,1-4.38-1.14c-3.09-.92-6.66-1.29-9.35.48s-3.76,5.25-5.59,8c-1.61,2.4-4,4.42-5.2,7v-.14a8.378,8.378,0,0,0-.69,1.85,13.18,13.18,0,0,0,.41,6.1,4.24,4.24,0,0,0,1.49,2.72c.91.59,2.16.45,3.22.64l-.12.52A21.05,21.05,0,0,0,314.28,374c0,.19,0,.37,0,.56a13.4,13.4,0,0,1-.1,1.58h0s-9.27-1.91-11.76-.62-7.37,2.3-8.11,3-2.58.19-4.24,4.51-1.84,8.73-4,10.76-3.22,3.4-3.32,4.87.28,1.84-.55,2.3-2,2.39-1.66,3.13a2.61,2.61,0,0,1-1,2.75,3.06,3.06,0,0,0-1.29,2.76s-.56,2-1.85,2.49-2.12,3.49-2.12,3.49l-4.18,4.8-8.28-9.16a3.5,3.5,0,0,0-4.93-.25l-4.07,3.66a8.06,8.06,0,0,0-4.07,2.42,10.84,10.84,0,0,0-2.11,3.14l-2.22,2a5.67,5.67,0,0,0-.58,6.25l5.31,5.87v.05a9.4,9.4,0,0,0-5.13,2.09c-7.92,7-8,13.43-6.82,16.37s11.24,14.25,11.24,14.25,5.84,7.59,14.27,11.62h0l-.06.07a6.95,6.95,0,0,0-.49.57l-.14.18-.13.18-.15.22a1.741,1.741,0,0,0-.11.18l-.16.26a1.616,1.616,0,0,0-.1.18c-.07.12-.13.24-.19.36a1.333,1.333,0,0,0-.06.12c-.08.16-.16.32-.23.5l-.08.18c-.05.12-.09.24-.14.37a2.244,2.244,0,0,0-.08.24l-.12.36a2,2,0,0,0-.08.26,2.186,2.186,0,0,1-.11.4c-.03.14-.05.16-.07.25s-.1.43-.14.66a.5.5,0,0,1-.05.26,2.389,2.389,0,0,0-.08.47,1.28,1.28,0,0,0,0,.34l-.06.45v.36a1.872,1.872,0,0,1-.05.52c-.05.18,0,.21,0,.32v.89c-.18,10.76.45,12.32.45,12.32a6,6,0,0,0,4.89,3.67,6.1,6.1,0,0,0,1.57-.08c4.8-.83,16-2.76,20-2,2.39.44,6.8-.22,9.94-.81l.83-.16.57,1.83,1.82-.5,1.55.89,1,.57c1.82,6.16,9.2,4.06,9.2,4.06l1.75,1,17.79.46a35.7,35.7,0,0,0,6.3,3,4.846,4.846,0,0,0,.89.2,39.576,39.576,0,0,0,5,.09c1.36,0,2.41-.09,2.41-.09s-.18-4.83-.44-10.24a145.14,145.14,0,0,0,16.48-1.35c9.5-1.66,13.46-10.3,14.92-14.92a43.61,43.61,0,0,1,.93,5.73,41.565,41.565,0,0,0,1.48,5,16.671,16.671,0,0,0,2,3.68c7-2.39,2.76-6,1.29-7.54s1-2.85,1-2.85,1.94-1.29,1.75-2.48-.28-2.48,6-2.39S397.09,479.81,397.09,479.81ZM299.77,421.1c.08.52,1,6.19,1.74,7.68a10,10,0,0,1,.21,3c-3.71-.3-7.58-.46-7.58-.46a.94.94,0,0,1,.2.47l-.59-.13-.84-.2,6.84-10.41Zm-13.56,21.56,6.43,1,.54.08a21.007,21.007,0,0,0-.33,3c0,.1.14.21.35.34a7.915,7.915,0,0,0-.12,1.53c.1.5,3.1,1.6,6.55,2.51-.05.19-.09.37-.14.53h0c-3.05-1.6-7.84-2.35-8.39-3.54s-16.87-6.89-16.87-6.89l-1.62-.81,4.29.81,1.18-.12a63.735,63.735,0,0,0,8.13,1.56Z" transform="translate(-11.09 -87.42)" fill="url(#linear-gradient)"/>
    <path id="Path_70" data-name="Path 70" d="M376.11,483.81s-2.55,15.44-15.52,17.72-56.27,1.83-56.27,1.83-24.76-3.57-33.71-24.48-14.71-29.24-7-29.6,49.06,14,51.43,14.16S378.4,431.65,376.11,483.81Z" transform="translate(-11.09 -87.42)" fill="#65617d"/>
    <path id="Path_71" data-name="Path 71" d="M376.11,483.81s-2.55,15.44-15.52,17.72-56.27,1.83-56.27,1.83-24.76-3.57-33.71-24.48-14.71-29.24-7-29.6,49.06,14,51.43,14.16S378.4,431.65,376.11,483.81Z" transform="translate(-11.09 -87.42)" opacity="0.05"/>
    <path id="Path_72" data-name="Path 72" d="M260,501a5.91,5.91,0,0,0,4.84,3.65,6.62,6.62,0,0,0,1.57-.09c4.75-.82,15.89-2.74,19.82-2,2.36.43,6.73-.22,9.84-.8,2.07-.39,3.59-.76,3.59-.76s-3.66-12.15-4.11-12.51-16.45-10-16.45-10l-12.66-.91h0a6.69,6.69,0,0,0-4.3,2.52c-1.33,1.62-2.48,4.27-2.56,8.62C259.37,499.43,260,501,260,501Z" transform="translate(-11.09 -87.42)" fill="#3f3d56"/>
    <path id="Path_73" data-name="Path 73" d="M260,501a5.91,5.91,0,0,0,4.84,3.65,53.767,53.767,0,0,1-3.44-5l.07-8.86a15.64,15.64,0,0,1,5-13.15h0s-6.67.45-6.86,11.14S260,501,260,501Z" transform="translate(-11.09 -87.42)" opacity="0.05"/>
    <path id="Path_74" data-name="Path 74" d="M314.91,481.62l11.79-9.23,18.54-18.27-5-.23c-.75.48-2.85,2-2.93,3.82-.09,2.23-5,.16-7.57,1.43s-15.07,17.3-17.26,17.19-3.93-1.11-4.85.45l-.06.1Z" transform="translate(-11.09 -87.42)" opacity="0.1"/>
    <path id="Path_75" data-name="Path 75" d="M262.11,480.12c.42.2.85.4,1.28.58,8.95,3.84,20,11.88,20.83,13.34.5.89,6.91,4.78,11.85,7.7,2.07-.39,3.59-.76,3.59-.76s-3.66-12.15-4.11-12.51-16.45-10-16.45-10l-12.66-.91h0a6.69,6.69,0,0,0-4.33,2.56Z" transform="translate(-11.09 -87.42)" opacity="0.1"/>
    <path id="Path_76" data-name="Path 76" d="M237.27,453.94c1.18,2.92,11.14,14.16,11.14,14.16s6.3,8.22,15.26,12,20,11.88,20.82,13.34c.53.94,7.67,5.24,12.69,8.19l1.13.66,2.49,1.45,1.32.75s3.06-2.45,6.11-4.92,6-4.89,6-5,1.28-3.38,1-3.56-.77-1.36-1.93-2.83a12.88,12.88,0,0,0-4.65-3.84,13.25,13.25,0,0,1-6-6.29s-.4-.29-1-.68a12.381,12.381,0,0,0-4.1-1.83c-2-.25-5.76-4.36-5.76-4.36a11.18,11.18,0,0,1-3.56-3.74c-1-2-15.13-11.74-16.44-12.64l34.34,22.06,8.22,5.28,11.79-9.22,18.54-18.27-6.12-.28c-9-.39-25-1-27-.54a15.689,15.689,0,0,1-5,.33s-4.56.2-7.58-1.39-7.77-2.34-8.32-3.52-16.71-6.84-16.71-6.84-22-11.69-29.87-4.75S236.08,451,237.27,453.94Z" transform="translate(-11.09 -87.42)" fill="#65617d"/>
    <path id="Path_77" data-name="Path 77" d="M308.24,386.89l2.83,9.41,3.66,21.19,13.43.91L332,412l3.88-6.44s2.42-8.56,4.16-16.84c1.53-7.33,2.54-14.45.87-15.22-1.49-.68-2.46-3.15-3.1-5.81-.08-.32-.15-.66-.21-1a52.656,52.656,0,0,1-.9-6.81s-28.13-1.46-24.2,10.14a18.511,18.511,0,0,1,1.06,6.17,8.078,8.078,0,0,1-.1,1.57,13.15,13.15,0,0,1-5.22,9.13Z" transform="translate(-11.09 -87.42)" fill="#ee8e9e"/>
    <path id="Path_78" data-name="Path 78" d="M302.4,385.34l1,16,2.28,13.61,2.56,6.31,2.29,34.48s22,2.55,27.38-.05a2.28,2.28,0,0,0,1-.75c6.47-9.77,4.35-38.07,4.35-38.07l2.46-18.27-1.64-9.48-4-.42-3.06-.33s-.69.85-1.69,2.17c-2.71,3.57-7.69,10.61-7.35,13.54.45,4-.55,8.13-2.11,8.77s-2.83,1.74-3.1.64a4.91,4.91,0,0,1-.28-2.92c.28-1.56-1.19-6.31-1.19-6.31s-2.46-5.57-2.28-7.94-.27-5.12-1-5.76-1.74-1.28-.92-4.2-3.6-8.61-3.6-8.61Z" transform="translate(-11.09 -87.42)" fill="#e3e8f4"/>
    <path id="Path_79" data-name="Path 79" d="M331.49,425.26l.92,27.31,5.27,2.93a2.37,2.37,0,0,0,1-.76c6.47-9.77,4.35-38.07,4.35-38.07l2.47-18.27-1.65-9.48-4-.42c1.54-7.33,2.54-14.44.87-15.22-1.49-.68-2.46-3.15-3.09-5.8h0l-2.85,19.32s.24,1.74.32,3.54a10,10,0,0,1-.23,3.4,11.35,11.35,0,0,0-.18,4.57c-1.65,2.9-2.47,8.28-2.87,13.47C331.28,418.68,331.49,425.26,331.49,425.26Z" transform="translate(-11.09 -87.42)" opacity="0.1"/>
    <path id="Path_80" data-name="Path 80" d="M337.71,367s4.61.57,6.07,2.49,5.3,2.2,5.3,2.2,4.38,1.46,4.29,1.82,1.28.92,4,1.65,7.31,3.38,7.31,4,7.21,7.76,7.21,8.49,2.19,3.47,1.92,8.31-.55,11,.55,12,0,4.93,0,4.93a2.7,2.7,0,0,0-.09,2.93c.91,1.64-.19,8.49-.19,8.49l.1,7.13s-1,4.47.18,4.66-.18,2.19-.18,2.19-1,3.65.27,5.3,1.64,8.67,1.64,8.67l19.55,28.41s.28,5.21-5.93,5.12-6.13,1.19-5.94,2.37-1.74,2.47-1.74,2.47-2.46,1.28-1,2.83,5.66,5.12-1.28,7.49a16.539,16.539,0,0,1-2-3.65,41.457,41.457,0,0,1-1.46-4.93s-.64-6.95-1.92-7.86-1.1-5.3-1.1-5.3,1.83-3.56-.73-5-39.64-22-39.64-22l-.9-27.32s-.64-20.19,3.2-26.95a11.351,11.351,0,0,1,.18-4.57c.64-1.64-.09-6.94-.09-6.94Z" transform="translate(-11.09 -87.42)" fill="#3f3d56"/>
    <path id="Path_81" data-name="Path 81" d="M313.77,378s-9.18-1.89-11.65-.61-7.3,2.28-8,3-2.55.19-4.2,4.48-1.82,8.68-3.93,10.69-3.19,3.38-3.28,4.84.27,1.83-.55,2.28-2,2.38-1.65,3.11,19,16.81,19,16.81.92,6.12,1.74,7.67-.91,22.93-2.74,24.39S310.8,456,310.8,456s.64-14,1.19-14.76-.37-15.71-.37-15.71-.09-12.79,1.1-16.17,1-14.62,1-14.62,1.05-6.74,2.33-8.31S313.77,378,313.77,378Z" transform="translate(-11.09 -87.42)" opacity="0.1"/>
    <path id="Path_82" data-name="Path 82" d="M313.5,377.73s-9.18-1.89-11.65-.62-7.31,2.29-8,3-2.56.18-4.2,4.48-1.83,8.67-3.93,10.68-3.2,3.38-3.29,4.84.28,1.83-.55,2.29-2,2.37-1.64,3.1,19,16.81,19,16.81.91,6.12,1.74,7.67-.92,22.93-2.75,24.39,12.34,1.33,12.34,1.33.64-14,1.18-14.75-.36-15.72-.36-15.72-.09-12.78,1.1-16.16,1.05-14.62,1.05-14.62,1.05-6.74,2.33-8.31S313.5,377.73,313.5,377.73Z" transform="translate(-11.09 -87.42)" fill="#3f3d56"/>
    <path id="Path_83" data-name="Path 83" d="M312.54,370a18.511,18.511,0,0,1,1.06,6.17,21,21,0,0,0,24-9.5,52.656,52.656,0,0,1-.9-6.81S308.61,358.39,312.54,370Z" transform="translate(-11.09 -87.42)" opacity="0.1"/>
    <path id="Path_84" data-name="Path 84" d="M298.65,355.56a20.93,20.93,0,1,0,.46-4.35,20.709,20.709,0,0,0-.46,4.35Z" transform="translate(-11.09 -87.42)" fill="#ee8e9e"/>
    <path id="Path_85" data-name="Path 85" d="M285.22,404l-5,1.55a2.59,2.59,0,0,1-1,2.74,3,3,0,0,0-1.27,2.74s-.55,2-1.83,2.47-2.1,3.47-2.1,3.47l-4.2,4.84s-1.56,1.28-1.28,1.92-1.65.82-1.65.82l1,16.26,8.68,1.65,5.39-.55,4.38-1.64,3.84-2.29,1.73-4.47,7.68-11.7Z" transform="translate(-11.09 -87.42)" fill="#3f3d56"/>
    <path id="Path_86" data-name="Path 86" d="M268.14,425.8s-11.14-16.07-19.46-7.4,3.38,22.75,6.12,22.29,15.81-1.19,15.81-1.19Z" transform="translate(-11.09 -87.42)" fill="#ee8e9e"/>
    <rect id="Rectangle_10" data-name="Rectangle 10" width="58.33" height="45.29" rx="1.54" transform="translate(232.713 305.613) rotate(27.04)" fill="#3f3d56"/>
    <path id="Path_120" data-name="Path 120" d="M0,0H49.03V36.95H0Z" transform="translate(235.048 311.375) rotate(27.04)" fill="#dc143c"/>
    <circle id="Ellipse_18" data-name="Ellipse 18" cx="0.8" cy="0.8" r="0.8" transform="translate(224.17 326.16)" fill="#e6e8ec"/>
    <circle id="Ellipse_19" data-name="Ellipse 19" cx="1.33" cy="1.33" r="1.33" transform="translate(270.91 349.85)" fill="#e6e8ec"/>
    <path id="Path_87" data-name="Path 87" d="M260.93,429.18c-.1,12.06,24.84,14.62,24.84,14.62l6.37,1,2.86.45,1.19-11.78s-1.31-.2-2.94-.58c-2.42-.56-5.55-1.53-6.2-2.9C286,427.72,261,417.12,260.93,429.18Z" transform="translate(-11.09 -87.42)" fill="#ee8e9e"/>
    <path id="Path_88" data-name="Path 88" d="M299.11,351.21a2.48,2.48,0,0,1,1.53.68c.7.75.74,2.08,1.66,2.54a1.92,1.92,0,0,0,1.09.12c2.43-.34,3.83-3.08,6.17-3.84a6.19,6.19,0,0,1,4.08.35,3.19,3.19,0,0,1,1.36.87c.78,1,.23,2.5.59,3.72.5,1.7,2.53,2.37,4.28,2.59s3.73.35,4.9,1.67a4.44,4.44,0,0,1,.87,3.54,2.76,2.76,0,0,0,0,1.31c.48,1.37,2.85,1.16,3.47.08.46-.79.32-1.44,1.39-1.66a4.53,4.53,0,0,1,2.23.39,16.541,16.541,0,0,0,5.79.89,20.92,20.92,0,1,0-39.4-13.25Z" transform="translate(-11.09 -87.42)" opacity="0.1"/>
    <path id="Path_89" data-name="Path 89" d="M325.63,364.21a2.77,2.77,0,0,1,0-1.31,4.41,4.41,0,0,0-.87-3.53c-1.17-1.33-3.14-1.45-4.9-1.68s-3.78-.89-4.28-2.59c-.36-1.22.19-2.71-.59-3.71a3,3,0,0,0-1.36-.87,6.2,6.2,0,0,0-4.08-.36c-2.34.76-3.74,3.5-6.17,3.84a1.84,1.84,0,0,1-1.09-.12c-.92-.46-1-1.79-1.66-2.54-1.11-1.17-3.22-.41-4.57-1.28a4.21,4.21,0,0,1-1.48-2.71,13.139,13.139,0,0,1-.4-6.06c.79-3.39,3.83-5.72,5.76-8.63,1.81-2.7,2.83-6.12,5.54-7.91s6.2-1.39,9.27-.48a26.161,26.161,0,0,0,4.34,1.14c2.47.3,4.95-.37,7.43-.45a15.9,15.9,0,0,1,9.82,3,5.37,5.37,0,0,1,1.6,1.62,8.411,8.411,0,0,1,.72,2.91,14.78,14.78,0,0,0,1.93,5.34c.76,1.29,1.73,2.45,2.42,3.78a5.86,5.86,0,0,1,.66,4.33c-.24.75-.7,1.43-.88,2.2-.4,1.78.77,3.49,1.57,5.13a9.62,9.62,0,0,1,1.07,4.87,6.1,6.1,0,0,1-2.19,4.38,7.91,7.91,0,0,1-4.63,1.41,16.65,16.65,0,0,1-5.9-.89,4.65,4.65,0,0,0-2.23-.39c-1.07.22-.93.87-1.39,1.66C328.48,365.37,326.12,365.58,325.63,364.21Z" transform="translate(-11.09 -87.42)" fill="#3f3d56"/>
    <path id="Path_90" data-name="Path 90" d="M314.36,482.16l11.79-9.22,18.54-18.27-6.12-.28a4,4,0,0,0-1.29,2.5c-.09,2.23-5,.15-7.57,1.43s-15.07,17.3-17.26,17.19-3.93-1.11-4.85.44l-.06.1a2.58,2.58,0,0,1-1.4.83Z" transform="translate(-11.09 -87.42)" opacity="0.1"/>
    <path id="Path_91" data-name="Path 91" d="M290.61,481.52l5.92,18.91.93,3,2.82-.77,6.22-1.71,27.68-7.6a24.07,24.07,0,0,0,10-2.66,30.17,30.17,0,0,1,17.2-3.75c3.66.34,7.73-1.24,11.11-7.48,0,0,7.67-22.65-11.69-29.14s-20.29,3.45-20.29,3.45l-.27.16c-.75.48-2.85,2-2.93,3.82-.09,2.23-5,.16-7.57,1.43s-15.07,17.3-17.26,17.19-3.93-1.11-4.85.45l-.06.1c-.68.93-2.71,1.15-4.06,1.18a11.984,11.984,0,0,1-1.26,0l-.18.05-1.4.42Z" transform="translate(-11.09 -87.42)" fill="#65617d"/>
    <path id="Path_92" data-name="Path 92" d="M292.14,444.81l2.86.45,1.19-11.78s-1.31-.2-2.94-.58C293.68,434.55,292.7,440.9,292.14,444.81Z" transform="translate(-11.09 -87.42)" opacity="0.1"/>
    <path id="Path_93" data-name="Path 93" d="M366.84,389.75s8.49-2.47,6.39,21.65a67.44,67.44,0,0,1-17.81,39.37s-18.09,7.94-26.22,6.66-14.06-1.55-14.06-1.55a20.671,20.671,0,0,0-8.23-2.19c-4.56-.18-14.15-3-14.34-3.93s2.38-14.34,1.28-15.34c0,0,12.79.52,14.07,1.44s3.11.27,4.48,0,5.57-3.91,13.88-.71c0,0,2.83.27,3.93-.46a3.93,3.93,0,0,1,2.86-.18,7.85,7.85,0,0,0,2-1c.27-.36,2.47,0,2.47,0a1,1,0,0,0,1.37-.64,6,6,0,0,1,1.28-2s2.46-13.88,7.12-19.09a3,3,0,0,0,1-2.65C347.93,407.65,355.88,386.82,366.84,389.75Z" transform="translate(-11.09 -87.42)" opacity="0.1"/>
    <path id="Path_94" data-name="Path 94" d="M366.61,387.89s8.5-2.46,6.4,21.65a67.39,67.39,0,0,1-17.81,39.37s-18.09,7.95-26.22,6.67S314.91,454,314.91,454a20.59,20.59,0,0,0-8.22-2.19c-4.57-.19-14.16-3-14.34-3.93s2.37-14.34,1.28-15.35c0,0,12.79.53,14.07,1.45s3.1.26,4.47,0,5.57-3.91,13.89-.72c0,0,2.83.28,3.92-.45a4,4,0,0,1,2.86-.19,8.309,8.309,0,0,0,2-1c.27-.37,2.46,0,2.46,0a1,1,0,0,0,1.37-.64,6,6,0,0,1,1.28-2s2.47-13.88,7.13-19.09a3,3,0,0,0,1-2.65C347.71,405.8,355.65,385,366.61,387.89Z" transform="translate(-11.09 -87.42)" fill="#3f3d56"/>
    <path id="Path_95" data-name="Path 95" d="M300.64,478.52l12.06,14.6.08-.08c.09-.28,1.28-3.38,1-3.57s-2.37-4.75-6.57-6.67a12.46,12.46,0,0,1-5.17-4.7Z" transform="translate(-11.09 -87.42)" opacity="0.1"/>
    <path id="Path_96" data-name="Path 96" d="M300.8,503.79l1.32.75s3.06-2.45,6.11-4.92,6-4.89,6-5,1.28-3.38,1-3.56-.77-1.36-1.93-2.83c-8.18-2.29-3,3.39-2.28,3.65,0,0-9.95-2.29-10.5,8.56A13.42,13.42,0,0,0,300.8,503.79Z" transform="translate(-11.09 -87.42)" opacity="0.1"/>
    <path id="Path_97" data-name="Path 97" d="M310.89,508.38l1.74,1,17.63.45a35.309,35.309,0,0,0,6.24,3,5.863,5.863,0,0,0,.88.19,39,39,0,0,0,4.92.09c1.35,0,2.39-.09,2.39-.09s-.83-22.23-1.46-24.57c-.3-1.12-1.78-.88-3.24-.32a22.089,22.089,0,0,0-3.16,1.6s-7.48.73-8.67,1.37-4.57-.37-6.67,0-5.85-2.47-5.85-2.47c-10.23-3.38-4.47,2.92-3.74,3.2,0,0-10-2.29-10.51,8.56S310.89,508.38,310.89,508.38Z" transform="translate(-11.09 -87.42)" fill="#3f3d56"/>
    <path id="Path_98" data-name="Path 98" d="M336.38,499.8c.19,4.6,3.78,10.31,5.92,13.33,1.35,0,2.39-.09,2.39-.09s-.83-22.23-1.46-24.57c-.3-1.12-1.78-.88-3.24-.32C338.22,491.47,336.22,496.08,336.38,499.8Z" transform="translate(-11.09 -87.42)" fill="#565387"/>
    <path id="Path_99" data-name="Path 99" d="M336.38,499.8c.19,4.6,3.78,10.31,5.92,13.33,1.35,0,2.39-.09,2.39-.09s-.83-22.23-1.46-24.57c-.3-1.12-1.78-.88-3.24-.32C338.22,491.47,336.22,496.08,336.38,499.8Z" transform="translate(-11.09 -87.42)" opacity="0.1"/>
    <path id="Path_100" data-name="Path 100" d="M333.36,500.41c1.22,4.44,1.2,9.42,3.14,12.44a5.857,5.857,0,0,0,.88.19,38.985,38.985,0,0,0,4.92.09c1.35,0,2.39-.09,2.39-.09s-.83-22.23-1.46-24.57c-.3-1.12-1.78-.88-3.24-.32a22.089,22.089,0,0,0-3.16,1.6S331.81,494.72,333.36,500.41Z" transform="translate(-11.09 -87.42)" opacity="0.05"/>
    <path id="Path_101" data-name="Path 101" d="M272.54,455.34s8.76,2.84,16.18,12.94Z" transform="translate(-11.09 -87.42)" opacity="0.1"/>
    <g id="Group_1" data-name="Group 1" opacity="0.1">
      <path id="Path_102" data-name="Path 102" d="M343.7,345.72a.3.3,0,0,1-.05.2,5.508,5.508,0,0,1-.31.76A7,7,0,0,1,343.7,345.72Z" transform="translate(-11.09 -87.42)"/>
      <path id="Path_103" data-name="Path 103" d="M294.16,341.29a7.81,7.81,0,0,1,.68-1.84,2.261,2.261,0,0,1-.14.47,13.28,13.28,0,0,0,.41,6.06,4.24,4.24,0,0,0,1.47,2.71c1.36.87,3.47.11,4.58,1.28.7.75.74,2.08,1.66,2.54a1.84,1.84,0,0,0,1.09.12c2.43-.34,3.83-3.08,6.17-3.84a6.14,6.14,0,0,1,4.08.36,3,3,0,0,1,1.36.87c.78,1,.23,2.49.59,3.71.5,1.7,2.53,2.37,4.28,2.59s3.73.35,4.9,1.68a4.41,4.41,0,0,1,.87,3.53,2.77,2.77,0,0,0,0,1.31c.48,1.37,2.85,1.16,3.47.08.46-.79.32-1.44,1.39-1.66a4.649,4.649,0,0,1,2.23.39,16.65,16.65,0,0,0,5.9.89,7.91,7.91,0,0,0,4.63-1.41,5.18,5.18,0,0,0,1.42-1.73,5.76,5.76,0,0,1-2,3.1,7.91,7.91,0,0,1-4.63,1.41,16.651,16.651,0,0,1-5.9-.89,4.65,4.65,0,0,0-2.23-.39c-1.07.22-.93.87-1.38,1.66-.63,1.08-3,1.29-3.48-.08a2.9,2.9,0,0,1,0-1.31,4.41,4.41,0,0,0-.87-3.53c-1.17-1.33-3.14-1.45-4.9-1.68s-3.78-.89-4.28-2.59c-.36-1.22.19-2.71-.59-3.71a3,3,0,0,0-1.35-.87,6.23,6.23,0,0,0-4.09-.36c-2.33.76-3.74,3.5-6.17,3.84a1.84,1.84,0,0,1-1.09-.12c-.92-.46-1-1.79-1.66-2.54-1.11-1.17-3.21-.41-4.57-1.28a4.21,4.21,0,0,1-1.48-2.71A13.14,13.14,0,0,1,294.16,341.29Z" transform="translate(-11.09 -87.42)"/>
    </g>
    <path id="Path_104" data-name="Path 104" d="M345.12,414.41c-1.68,2.26-3.59,4.35-5.07,6.73a12.81,12.81,0,0,0-2.22,8c1.53-1.57,2.24-3.75,3.2-5.72,1.64-3.34,4.08-6.17,6.15-9.23.39-.59,2.91-4,1.64-4.14C347.76,409.9,345.69,413.64,345.12,414.41Z" transform="translate(-11.09 -87.42)" opacity="0.1"/>
    <path id="Path_105" data-name="Path 105" d="M354.12,628.38c1.21,3.88,2.43,7.77,3.94,11.54a98.148,98.148,0,0,0,10.21,18.61,135.055,135.055,0,0,0,8.44,11.06c3.76,4.43,8,8.89,9.28,14.55.77,3.27.51,6.68.83,10s1.41,6.88,4.12,8.88c1.93,1.43,4.4,1.86,6.77,2.23,1.7.27,3.82.36,4.7-1.11a4.27,4.27,0,0,0,.47-1.94l.41-4.89c.08-1.06.46-2.41,1.52-2.46s1.59,1.36,2.49,2c1.2.84,3,0,3.66-1.27a6.17,6.17,0,0,0,.1-4.3,20.37,20.37,0,0,0-10.47-13,30,30,0,0,1-5.1-2.65,17.432,17.432,0,0,1-4-5.06c-9.28-15.28-18.61-30.64-25.16-47.27a35,35,0,0,1-2.59-9.32c-.32-3.27.19-6.56.4-9.84a56,56,0,0,0-1.62-17.53,14,14,0,0,0-1.67-4.26c-2.7-4.09-9-4.7-13-1.88a13.4,13.4,0,0,0-5.18,9.47c-.29,3.32,1.62,6.76,2.59,9.85Q349.67,614.1,354.12,628.38Z" transform="translate(-11.09 -87.42)" fill="#a1616a"/>
    <path id="Path_106" data-name="Path 106" d="M354.12,628.38c1.21,3.88,2.43,7.77,3.94,11.54a98.148,98.148,0,0,0,10.21,18.61,135.055,135.055,0,0,0,8.44,11.06c3.76,4.43,8,8.89,9.28,14.55.77,3.27.51,6.68.83,10s1.41,6.88,4.12,8.88c1.93,1.43,4.4,1.86,6.77,2.23,1.7.27,3.82.36,4.7-1.11a4.27,4.27,0,0,0,.47-1.94l.41-4.89c.08-1.06.46-2.41,1.52-2.46s1.59,1.36,2.49,2c1.2.84,3,0,3.66-1.27a6.17,6.17,0,0,0,.1-4.3,20.37,20.37,0,0,0-10.47-13,30,30,0,0,1-5.1-2.65,17.432,17.432,0,0,1-4-5.06c-9.28-15.28-18.61-30.64-25.16-47.27a35,35,0,0,1-2.59-9.32c-.32-3.27.19-6.56.4-9.84a56,56,0,0,0-1.62-17.53,14,14,0,0,0-1.67-4.26c-2.7-4.09-9-4.7-13-1.88a13.4,13.4,0,0,0-5.18,9.47c-.29,3.32,1.62,6.76,2.59,9.85Q349.67,614.1,354.12,628.38Z" transform="translate(-11.09 -87.42)" opacity="0.05"/>
    <path id="Path_107" data-name="Path 107" d="M295.82,791.76a13.33,13.33,0,0,0,5.64.68c.14-1.56,2.24-1.91,3.8-1.83a4.34,4.34,0,0,1,2.17.5c.39.25.69.61,1.07.87a4.63,4.63,0,0,0,2.21.57l8.12.68c3.62.31,7.39.59,10.78-.7a3.72,3.72,0,0,0,1.73-1.16c.92-1.32,0-3.21-1.27-4.17s-2.91-1.39-4.19-2.37c-2.82-2.15-3.21-6.17-4.7-9.39a27.71,27.71,0,0,0-3.89-5.63,21.612,21.612,0,0,0-3.83-3.93c-3.26-2.35-7-2.3-10.83-2.64-2.7-.24-5.24-.4-7.18,2-2.4,3-1.44,9-1.29,12.5a90.469,90.469,0,0,0,1.66,14.02Z" transform="translate(-11.09 -87.42)" fill="#514e7f"/>
    <path id="Path_108" data-name="Path 108" d="M295.82,791.76a13.33,13.33,0,0,0,5.64.68c.14-1.56,2.24-1.91,3.8-1.83a4.34,4.34,0,0,1,2.17.5c.39.25.69.61,1.07.87a4.63,4.63,0,0,0,2.21.57l8.12.68c3.62.31,7.39.59,10.78-.7a3.72,3.72,0,0,0,1.73-1.16c.92-1.32,0-3.21-1.27-4.17s-2.91-1.39-4.19-2.37c-2.82-2.15-3.21-6.17-4.7-9.39a27.71,27.71,0,0,0-3.89-5.63,21.612,21.612,0,0,0-3.83-3.93c-3.26-2.35-7-2.3-10.83-2.64-2.7-.24-5.24-.4-7.18,2-2.4,3-1.44,9-1.29,12.5a90.469,90.469,0,0,0,1.66,14.02Z" transform="translate(-11.09 -87.42)" opacity="0.05"/>
    <path id="Path_109" data-name="Path 109" d="M299.1,633.81c-2.48.8-3.56,3.89-3.1,6.46s2,4.79,3.27,7.07c3.62,6.47,5.18,13.87,8.22,20.62,2.27,5,5.34,9.7,7.58,14.76s3.63,10.77,2.27,16.14c-.66,2.61-1.94,5-2.79,7.57a42,42,0,0,0-1.64,8.55,162.392,162.392,0,0,0-.59,29.66,8.86,8.86,0,0,0,.74,3.5c.51,1,1.39,2,1,3-.17.41-.54.71-.72,1.11-.52,1.12.52,2.31,1.47,3.11a2.59,2.59,0,0,1-1.59,1.23,3.76,3.76,0,0,1,1.6,4.19c-.84.13-.89,1.42-.36,2.1s1.37,1.1,1.75,1.87a2.61,2.61,0,0,1-1.44,3.28,6.85,6.85,0,0,1-3.92.3,43,43,0,0,1-6.55-1.44,4.74,4.74,0,0,1-3.82-4.9,72.81,72.81,0,0,1-.45-12.27c.35-19.84,0-39.7-.86-59.53-.35-8-2.75-15.75-5.84-23.11a121.283,121.283,0,0,0-5.69-11c-4.46-8.16-8.4-17.2-7.38-26.45.11-1,.47-2.19,1.46-2.35a2.119,2.119,0,0,1,1.13.19,50.8,50.8,0,0,1,5.95,3.28A22.459,22.459,0,0,0,299.1,633.81Z" transform="translate(-11.09 -87.42)" fill="#464353"/>
    <path id="Path_110" data-name="Path 110" d="M299.1,633.81c-2.48.8-3.56,3.89-3.1,6.46s2,4.79,3.27,7.07c3.62,6.47,5.18,13.87,8.22,20.62,2.27,5,5.34,9.7,7.58,14.76s3.63,10.77,2.27,16.14c-.66,2.61-1.94,5-2.79,7.57a42,42,0,0,0-1.64,8.55,162.392,162.392,0,0,0-.59,29.66,8.86,8.86,0,0,0,.74,3.5c.51,1,1.39,2,1,3-.17.41-.54.71-.72,1.11-.52,1.12.52,2.31,1.47,3.11a2.59,2.59,0,0,1-1.59,1.23,3.76,3.76,0,0,1,1.6,4.19c-.84.13-.89,1.42-.36,2.1s1.37,1.1,1.75,1.87a2.61,2.61,0,0,1-1.44,3.28,6.85,6.85,0,0,1-3.92.3,43,43,0,0,1-6.55-1.44,4.74,4.74,0,0,1-3.82-4.9,72.81,72.81,0,0,1-.45-12.27c.35-19.84,0-39.7-.86-59.53-.35-8-2.75-15.75-5.84-23.11a121.283,121.283,0,0,0-5.69-11c-4.46-8.16-8.4-17.2-7.38-26.45.11-1,.47-2.19,1.46-2.35a2.119,2.119,0,0,1,1.13.19,50.8,50.8,0,0,1,5.95,3.28A22.459,22.459,0,0,0,299.1,633.81Z" transform="translate(-11.09 -87.42)" opacity="0.05"/>
    <path id="Path_111" data-name="Path 111" d="M265.57,609.69a8.62,8.62,0,0,0-4.32-1.36c-1.78.09-3.3,1.26-4.69,2.38a48,48,0,0,0-4.68,4.1,24.94,24.94,0,0,0-5.56,24.68c1.47,4.41,4.16,8.3,6.82,12.11l5.4,7.76c8.24,11.83,16.48,23.66,25.11,35.21a1.34,1.34,0,0,0,.94,1.27c.31.08.7.07.89.33a.94.94,0,0,1,.11.53,7.652,7.652,0,0,1-.48,2.5,1.19,1.19,0,0,0-.1.86c.28.65,1.46.28,1.84.89.25.4-.06.92-.39,1.26s-.74.72-.68,1.19.88,1,.85,1.58c0,.34-.3.6-.51.87a2.23,2.23,0,0,0,.27,2.84c.57,5.64-2.5,11-3.11,16.62-1,8.88,3.05,17.55,3.54,26.46a6.85,6.85,0,0,0,.56,2.92c.83,1.54,3,2.47,2.89,4.22a16.909,16.909,0,0,1-.61,2.12c-.17,1,.31,2,.33,3s-.87,2.23-1.81,1.83q1.06,3.54,1.89,7.14l18.9,1.56a16.77,16.77,0,0,0-.17-5.1c-.39-1.83-1.21-3.53-1.64-5.34a6.32,6.32,0,0,1,.74-5.35,2.09,2.09,0,0,1-2.08-1.71,8.309,8.309,0,0,1,.05-2.94c.5-4.93-1.57-9.79-1.51-14.74.06-3.9,1.43-7.65,2.12-11.48,1.48-8.2-.06-17.09,3.59-24.58,2.21-4.51,5.27-9.51,2.79-13.88-1.22-2.16-3.38-3.64-4.79-5.68a23.109,23.109,0,0,1-2.56-6.19c-2.91-9-7.62-17.36-11.75-25.92a27,27,0,0,1-2.53-6.81,35.7,35.7,0,0,1-.32-6.29,92.714,92.714,0,0,0-.69-11.289,10.74,10.74,0,0,0-1.37-4.671,10.45,10.45,0,0,0-3-2.69C279.65,615.65,272.27,613.22,265.57,609.69Z" transform="translate(-11.09 -87.42)" fill="#464353"/>
    <path id="Path_112" data-name="Path 112" d="M288.22,798.69a13.551,13.551,0,0,0,5.65.67c.14-1.56,2.23-1.91,3.79-1.83a4.339,4.339,0,0,1,2.17.5c.39.25.69.62,1.08.87a4.52,4.52,0,0,0,2.21.57l8.11.68c3.63.31,7.39.6,10.79-.7a3.621,3.621,0,0,0,1.72-1.16c.92-1.32,0-3.2-1.27-4.16s-2.91-1.4-4.18-2.38c-2.83-2.15-3.21-6.16-4.71-9.38a27.069,27.069,0,0,0-3.88-5.64,21.6,21.6,0,0,0-3.84-3.92c-3.25-2.36-7-2.31-10.82-2.65-2.71-.24-5.25-.39-7.18,2-2.4,3-1.44,9-1.3,12.51a90.612,90.612,0,0,0,1.66,14.02Z" transform="translate(-11.09 -87.42)" fill="#514e7f"/>
    <circle id="Ellipse_20" data-name="Ellipse 20" cx="18.72" cy="18.72" r="18.72" transform="translate(342.18 452.1)" fill="#a1616a"/>
    <path id="Path_113" data-name="Path 113" d="M354.33,563.8c-2.68,2.31-6.53,2.48-10.05,2.84a63.122,63.122,0,0,0-21.63,6.26,7.8,7.8,0,0,0-2.5,1.72,7.06,7.06,0,0,0-1.27,2.68,17.509,17.509,0,0,0-.71,6.51,18.551,18.551,0,0,0,1.81,6.12,33,33,0,0,0,11.6,13.23,8.5,8.5,0,0,0,2.94,1.41c2.46.51,4.84-.91,7.27-1.55a11.88,11.88,0,0,1,6.71.21c2,.68,4.19,1.92,6.17,1.09a6.33,6.33,0,0,0,2.79-3.18A108.2,108.2,0,0,0,362.57,590a42.867,42.867,0,0,1,1.85-4.36c2.17-4.13,5.92-7.32,7.79-11.61a2.55,2.55,0,0,0,.18-2.18,3,3,0,0,0-1.38-1.05,32.808,32.808,0,0,1-7.48-5.87c-1.23-1.18-3.49-4.37-5.26-4.65C356.28,559.94,355.68,562.64,354.33,563.8Z" transform="translate(-11.09 -87.42)" fill="#a1616a"/>
    <path id="Path_114" data-name="Path 114" d="M354.77,601.84c-2.17,1-4.73.57-7.08.08-6.06-1.27-12.19-2.55-17.8-5.17a9.64,9.64,0,0,1-4.37-3.36,11,11,0,0,1-1.22-4.19l-1-7c-.36-2.43.26-4.68.32-7.14a2.07,2.07,0,0,0-.41-1.55,1.69,1.69,0,0,0-1.23-.39c-2.81.05-4.51,3-6.48,5a12,12,0,0,1-4,2.68c-1.8.74-4,1.26-4.75,3.06-.3.75-.26,1.6-.58,2.35-1.26,3-6.63,2-8,5-.39.84-.36,1.89-1,2.55s-1.84.65-2.83.81c-3.91.64-5.8,5.15-9.14,7.28-2.81,1.8-6.43,1.76-9.46,3.16-1.68.78-3.17,2-4.95,2.51s-3.79.24-5.7.29a1.49,1.49,0,0,0-1.13.37,1.51,1.51,0,0,0-.19,1.24,34.46,34.46,0,0,0,21.29,26.68,7.117,7.117,0,0,1,1.82.88c1.7,1.27,2,4,3.93,4.9a4,4,0,0,0,4.09-.88,36.7,36.7,0,0,0,3-3.26,11.75,11.75,0,0,1,6.59-3.47c2.32-.37,4.91-.1,6.79-1.53a21.049,21.049,0,0,0,2.14-2.28,13.441,13.441,0,0,1,4.85-2.9,49.579,49.579,0,0,1,15.43-3.39c4.93-.27,10,.18,14.66-1.42a8.84,8.84,0,0,0,3.27-1.85,9.83,9.83,0,0,0,2.18-3.79,29,29,0,0,0,.96-15.27Z" transform="translate(-11.09 -87.42)" fill="#dc143c"/>
    <path id="Path_115" data-name="Path 115" d="M330.64,574.25c1.38-.13,2.77,0,4.16,0,1.63,0,3.24-.4,4.87-.41a12.11,12.11,0,0,1,11.42,8.69,2.25,2.25,0,0,1,.07,1.23.87.87,0,0,1-.94.64,20.729,20.729,0,0,0-2.11-4.21,11.83,11.83,0,0,0-6.28-4.38,16.26,16.26,0,0,0-7.72-.28c-1.07.2-2.11.48-3.15.77l-5,1.38c-.92.25-1.85.5-2.74.83-.69.26-1.87,1.21-2.55,1.25-.92,0-.18-.8.23-1.34a6.65,6.65,0,0,1,3.27-2.38A28.324,28.324,0,0,1,330.64,574.25Z" transform="translate(-11.09 -87.42)" fill="#6c63ff"/>
    <path id="Path_116" data-name="Path 116" d="M343.26,630.48c1.21,3.88,2.42,7.77,3.94,11.54a97.6,97.6,0,0,0,10.21,18.61,135.031,135.031,0,0,0,8.44,11.06c3.75,4.43,7.94,8.89,9.28,14.54.77,3.28.51,6.69.83,10s1.41,6.88,4.11,8.88c1.94,1.42,4.41,1.85,6.78,2.23,1.69.27,3.81.36,4.7-1.11a4.44,4.44,0,0,0,.47-1.94l.4-4.89c.09-1.06.47-2.41,1.52-2.46s1.6,1.36,2.5,2c1.2.84,3,0,3.66-1.27a6.22,6.22,0,0,0,.1-4.3,20.43,20.43,0,0,0-10.47-13,30.522,30.522,0,0,1-5.11-2.65,17.31,17.31,0,0,1-4-5.07c-9.29-15.27-18.62-30.63-25.16-47.27a35.261,35.261,0,0,1-2.6-9.31c-.31-3.27.19-6.56.41-9.84a56,56,0,0,0-1.62-17.53,13.79,13.79,0,0,0-1.68-4.26c-2.69-4.1-9-4.7-13-1.88a13.41,13.41,0,0,0-5.19,9.47c-.29,3.32,1.63,6.76,2.59,9.85Q338.8,616.2,343.26,630.48Z" transform="translate(-11.09 -87.42)" fill="#a1616a"/>
    <path id="Path_117" data-name="Path 117" d="M399.22,545c.15-1.56-1.25-3-2.84-4a37.608,37.608,0,0,1-4.81-2.94c-1.42-1.23-2.2-2.83-3.62-4.06a16.088,16.088,0,0,0-5.4-2.69A41.118,41.118,0,0,0,369.63,529c-4.45,0-9,1-12.35,3.27a7.311,7.311,0,0,0-2.1,2,8.581,8.581,0,0,0-1,3.1,61.183,61.183,0,0,1-3.23,9.81c-1.39,3.53-2.87,7.19-6.14,9.92-3.5,2.91-8.85,4.59-11.16,8.11a2.6,2.6,0,0,0-.51,2.27c.33.89,1.39,1.5,2.37,2.06,5.68,3.26,10.58,7.49,13.1,12.54s2.45,11-1.14,15.65c-1.32,1.72-3.14,3.76-1.85,5.49,2,2.63,8.69,1.12,10.25,3.9.49.89.2,1.9.2,2.87,0,2.92,2.81,5.51,6.22,6.86s7.36,1.67,11.2,1.84a9.78,9.78,0,0,0,.28-7.25,2.92,2.92,0,0,1-.29-1.65,4,4,0,0,1,1.29-1.58c4.1-3.88,3.23-9.58.77-14.19s-6.3-8.82-7.73-13.67c-.71-2.41-.71-5.12,1.2-7.12a24.052,24.052,0,0,1,3.53-2.57,13.339,13.339,0,0,0,4.94-6.2c1.15-3.19,1-7,4.34-9.15,3.21-2,7.72-1.42,11.27-2.79C395.82,551.44,399,547.29,399.22,545Z" transform="translate(-11.09 -87.42)" fill="#464353"/>
    <g id="layer1" transform="translate(546.284 552.979)">
      <g id="flowRoot2993" transform="translate(-24.304 11.111)">
        <path id="path3002" d="M41.911,118.359a10.654,10.654,0,0,0,3.317,7.782q3.444,3.189,9.95,3.189a20.408,20.408,0,0,0,9.95-2.934A40.157,40.157,0,0,0,74.7,118.87a43.448,43.448,0,0,0,7.4-10.206,25.416,25.416,0,0,0,3.317-10.971l-3.062.255q-8.42,0-12.629-4.082-4.082-4.082-4.082-13.65a16.46,16.46,0,0,1,1.4-7.144,14.161,14.161,0,0,1,3.827-4.72,14.372,14.372,0,0,1,5.485-2.679,22.219,22.219,0,0,1,6.251-.893,18.547,18.547,0,0,1,9.95,2.679A21.721,21.721,0,0,1,99.7,74.22a28.411,28.411,0,0,1,4.337,9.313,34.952,34.952,0,0,1,1.531,10.078,42.4,42.4,0,0,1-4.337,18.5,56.657,56.657,0,0,1-11.481,16.074,57.341,57.341,0,0,1-16.2,11.354,43.736,43.736,0,0,1-18.625,4.21,20.046,20.046,0,0,1-8.037-1.914,41.38,41.38,0,0,1-7.909-4.72,42.058,42.058,0,0,1-6.506-6.378,18.738,18.738,0,0,1-3.7-6.634V82.768h-12.5L4.15,70.266H28.771V45.518q0-4.592-2.424-6.378a13.422,13.422,0,0,0-6.761-2.551q-4.21,0-5.485,1.276-1.531-2.679-2.424-4.337-.765-1.786-1.276-2.934a10.54,10.54,0,0,1-.638-2.041,8.585,8.585,0,0,1-.128-1.4,4.713,4.713,0,0,1,1.914-3.827A16.91,16.91,0,0,1,16.142,20.9a26.985,26.985,0,0,1,8.164-1.786A14.184,14.184,0,0,1,31.578,20.9a14.569,14.569,0,0,1,5.358,4.848,22.682,22.682,0,0,1,3.317,7.527,45.74,45.74,0,0,1,1.658,9.568V70.266h7.271l12.247,12.5H41.911v35.592" transform="translate(-4.15 -19.111)" fill="rgba(128,128,128,0.18)"/>
      </g>
    </g>
    <g id="layer1-2" data-name="layer1" transform="translate(514.284 552.979)">
      <g id="flowRoot2993-2" data-name="flowRoot2993" transform="translate(10.696 7.111)">
        <path id="path3002-2" data-name="path3002" d="M41.911,118.359a10.654,10.654,0,0,0,3.317,7.782q3.444,3.189,9.95,3.189a20.408,20.408,0,0,0,9.95-2.934A40.157,40.157,0,0,0,74.7,118.87a43.448,43.448,0,0,0,7.4-10.206,25.416,25.416,0,0,0,3.317-10.971l-3.062.255q-8.42,0-12.629-4.082-4.082-4.082-4.082-13.65a16.46,16.46,0,0,1,1.4-7.144,14.161,14.161,0,0,1,3.827-4.72,14.372,14.372,0,0,1,5.485-2.679,22.219,22.219,0,0,1,6.251-.893,18.547,18.547,0,0,1,9.95,2.679A21.721,21.721,0,0,1,99.7,74.22a28.411,28.411,0,0,1,4.337,9.313,34.952,34.952,0,0,1,1.531,10.078,42.4,42.4,0,0,1-4.337,18.5,56.657,56.657,0,0,1-11.481,16.074,57.341,57.341,0,0,1-16.2,11.354,43.736,43.736,0,0,1-18.625,4.21,20.046,20.046,0,0,1-8.037-1.914,41.38,41.38,0,0,1-7.909-4.72,42.058,42.058,0,0,1-6.506-6.378,18.738,18.738,0,0,1-3.7-6.634V82.768h-12.5L4.15,70.266H28.771V45.518q0-4.592-2.424-6.378a13.422,13.422,0,0,0-6.761-2.551q-4.21,0-5.485,1.276-1.531-2.679-2.424-4.337-.765-1.786-1.276-2.934a10.54,10.54,0,0,1-.638-2.041,8.585,8.585,0,0,1-.128-1.4,4.713,4.713,0,0,1,1.914-3.827A16.91,16.91,0,0,1,16.142,20.9a26.985,26.985,0,0,1,8.164-1.786A14.184,14.184,0,0,1,31.578,20.9a14.569,14.569,0,0,1,5.358,4.848,22.682,22.682,0,0,1,3.317,7.527,45.74,45.74,0,0,1,1.658,9.568V70.266h7.271l12.247,12.5H41.911v35.592" transform="translate(-4.15 -19.111)" fill="#5dff00"/>
      </g>
    </g>
  </g>
</svg>
