<svg id="Layer_1" data-name="Layer 1" xmlns="http://www.w3.org/2000/svg" viewBox="0 0 374.88 342.77"><defs><style>.cls-1{fill:#fdfdfd;}.cls-2{fill:#084b21;}.cls-3{fill:#094b23;}.cls-4{fill:#04481e;}.cls-5{fill:#0b4d25;}.cls-6{fill:#11512a;}.cls-7{fill:#02461c;}.cls-8{fill:#195630;}.cls-9{fill:#17542e;}.cls-10{fill:#88b03e;}.cls-11{fill:#86af3e;}.cls-12{fill:#89b13e;}.cls-13{fill:#fbfbf5;}.cls-14{fill:#e3c64a;}.cls-15{fill:#88af3e;}.cls-16{fill:#88af3d;}.cls-17{fill:#7ca83d;}.cls-18{fill:#e6e315;}.cls-19{fill:#e6e316;}.cls-20{fill:#e7e41c;}.cls-21{fill:#2e6637;}.cls-22{fill:#f1f5f2;}.cls-23{fill:#f0f4f1;}.cls-24{fill:#e3eae5;}.cls-25{fill:#e8e415;}.cls-26{fill:#eae515;}.cls-27{fill:#1c5727;}.cls-28{fill:#286233;}.cls-29{fill:#3b6e34;}</style></defs><title>Australia</title><path class="cls-1" d="M375,1047.05H749.88v342.77H375Zm184.28,247.33a149.77,149.77,0,0,0,32-27.24c23.77-26.53,37.75-58,46.8-92.06,7.65-28.78,10.86-58.15,11.6-87.84.16-6.12,0-12.25,0-18.17a26.72,26.72,0,0,0-2.74-1,197.17,197.17,0,0,0-68.51-1.94c-31.72,4.44-61.82,14.25-90.59,28.21-3.7,1.8-7.26,3.89-10.75,5.77-.38,7.17-1.1,13.82-1,20.45.22,20.17,2.15,40.17,6.82,59.86,8.17,34.51,23.17,65.42,48.15,91A154.1,154.1,0,0,0,559.28,1294.38ZM495,1304.88v40.91h6.16v-18c7.34,4.92,9.3,12.33,13.44,18h7.54L511,1328.34c.84-.32,1.47-.52,2.07-.79,5.22-2.43,7.63-6.8,6.93-12.51-.59-4.9-4-8.55-9.57-9.3C505.42,1305.06,500.28,1305.14,495,1304.88Zm108.94.42h-7.74l-12.6,17.77-1.24-.32v-17.39h-6.19v40.36h6.08c.28-6.74-.15-13.22.27-19.65l1.29-.2,12.72,19.86h8.27l-14.72-21.61Zm12.57,35.39v-13.43h12.24v-5.5H616.48v-11.42h15.07c.47-1.94.82-3.35,1.21-4.95H610.2v40.38h22.64c.49-1.63.92-3,1.54-5.08Zm-128.38-33c-7.39-5.22-17.06-4.06-22.38,2.92-6.25,8.2-6.48,17.39-2.58,26.46,4.27,9.92,17,12.64,25.78,5.81l-2.56-3.48-2,.88c-7.5,3.39-13.9.45-15.45-7.58a38.3,38.3,0,0,1-.42-12.36c1.36-9.63,6.8-12.59,16-9.35a5.65,5.65,0,0,0,1.55,0Zm79.34,31.68c-1,.46-1.65.73-2.26,1-7.79,3.23-14.14.08-15.57-8.24a39.37,39.37,0,0,1-.13-12.4c1.36-8.92,7.87-12.4,16.07-8.63.26.12.62,0,1.22,0,.39-.5.91-1.13,1.36-1.81.35-.53.61-1.12.9-1.67-8.12-5.43-18-3.59-23.35,4.26-4.31,6.35-4.78,13.45-3.15,20.62,2.93,12.92,15.22,18,26.75,11.27.23-.14.31-.54.58-1Zm85.37-28.76h10.22c.6-1.88,1.13-3.51,1.71-5.33H637.69c-.52,1.79-1,3.41-1.58,5.49h10v35h6.69Zm-123.74-5.27v40.46h5.72v-40.46Zm36,63.9,1-.27c.89,1.15,1.85,2.26,2.66,3.47s1.29,2.81,2.33,3.77c.81.74,2.27.77,4.41,1.39l-5.42-8.68c3.95-3.13,5.3-5.83,3.77-8.68-2.8-5.19-7.68-3-12.1-3.28v20.35l3-.55C564.88,1374.1,565,1371.68,565.12,1369.27Zm-56.66,7.92L502.05,1357h-3.92c-2.17,6.63-4.32,13.18-6.59,20.09h3.14l1.81-4.76h6.86c.73,1.87,1.32,3.38,2,5Zm85.39,0c-2.27-7.08-4.34-13.53-6.42-20h-4.06c-2.18,6.75-4.28,13.27-6.56,20.32L580,1377l2-4.79h6.66l2,4.94Zm28.41-4.91h6.84l1.91,4.85h3.27l-6.43-20.21-4,.23-6.52,20.28,3.14-.27C621.1,1375.47,621.66,1373.94,622.26,1372.28Zm-93.23-10c.66,6.28,6.69,5.1,10,8.08-.13,1.25-.28,2.65-.46,4.34h-10a8.38,8.38,0,0,0,10.75,2.21c2.35-1.29,3.86-3.2,3.67-6-.18-2.65-1.81-4.18-4.18-5.06l-6-2.21.8-4.28h8.37C535.78,1354.81,531.5,1356,529,1362.28Zm-18.09-5.4c0,5.4-.13,10.35,0,15.3.13,3.65,2.71,5.67,6.74,5.73s7-2,7.2-5.39c.27-5.09.07-10.21.07-15.44h-2.63c-1.8,5.84,1.56,12.29-2.28,17.92l-5-.3c-2.31-5.81-.12-11.91-1.4-17.69Zm39.05,2.79v17.68l3-.46V1360.1l6-1.84c-7.08-2.09-11.78-1.67-14.15.78Zm57.88,15.5-7.7-.45V1357.1h-3v20.37C600.91,1376.58,604.69,1378.55,607.87,1375.17Zm6,2.08v-20.12h-2.63v20Z" transform="translate(-375 -1047.05)"/><path class="cls-2" d="M559.28,1294.38a154.1,154.1,0,0,1-28.19-22.93c-25-25.59-40-56.5-48.15-91-4.67-19.69-6.6-39.69-6.82-59.86-.07-6.63.65-13.28,1-20.45,3.49-1.88,7.05-4,10.75-5.77,28.77-14,58.87-23.77,90.59-28.21a197.17,197.17,0,0,1,68.51,1.94,26.72,26.72,0,0,1,2.74,1c0,5.92.14,12,0,18.17-.74,29.69-4,59.06-11.6,87.84-9,34-23,65.53-46.8,92.06A149.77,149.77,0,0,1,559.28,1294.38ZM489,1170.1l-.12-.06a30.41,30.41,0,0,0,.45,5.25c1.6,6.08,3.11,12.21,5.18,18.14s4.87,11.88,7.34,17.81a16.49,16.49,0,0,0,.77,2.84c10.45,22.09,24.87,41.12,43.89,56.55,4,3.21,8.23,6,12.62,9.23,10.29-6.9,19.7-14,27.57-23.42-3.7-6.83-7.32-13.3-12.65-18.64l-3.11-1.83c-.81-1.66-1.26-3.69-2.5-4.94a95.4,95.4,0,0,0-50-27.06l6.39-2a43.3,43.3,0,0,0,5,1.81,92.73,92.73,0,0,1,51.5,32c3.77,4.57,7.15,9.46,10.85,14.38a24.72,24.72,0,0,0,1.91-1.75c.66-.72,1.22-1.52,1.73-2.16a5.28,5.28,0,0,0-.37-1.19c-15.53-22.93-36.6-37.65-63.93-43.09a17.28,17.28,0,0,1-3.47-1.56l3.74-.92a3.9,3.9,0,0,0,.92.36c26.45,2.77,47.91,14.77,64.88,35a32,32,0,0,1,2.57,4.21l1.5-1,3-4.58c-12.89-14.33-27.77-24.87-45.81-30.47-7.06-2.18-14.45-3.29-21.7-4.89l3.7-1.25,3.17,0c24.86,2.56,46,13.24,65,30.44l10.91-23.39q4.32-12,8.65-23.9c2-7.7,4.48-15.31,5.92-23.11,2-10.57,3.11-21.29,4.61-32l.77-1.92c1.56-16.5,2.78-33,1.64-50.45L617,1069.87c-2.47-.27-4.93-.69-7.4-.78a195.45,195.45,0,0,0-40.13,3c-6.64,1.14-13.16,3-19.73,4.56a6.44,6.44,0,0,1-.63.36c-3,.63-6.21.92-9.11,1.94-10.73,3.78-21.37,7.8-32,11.73l-3.89,1.42-20.18,9.71c-.23,9.07-.45,17.65-.66,26.23.28,4.94.27,9.91.9,14.81,1.11,8.64,2.61,17.24,3.94,25.86Z" transform="translate(-375 -1047.05)"/><path class="cls-3" d="M495,1304.88c5.29.26,10.43.18,15.47.86,5.6.75,9,4.4,9.57,9.3.7,5.71-1.71,10.08-6.93,12.51-.6.27-1.23.47-2.07.79l11.1,17.49h-7.54c-4.14-5.68-6.1-13.09-13.44-18v18H495Zm6.22,18.71c10.18.82,12.66-1.39,11.49-10-3-3.78-7.16-3.4-11.49-3Z" transform="translate(-375 -1047.05)"/><path class="cls-3" d="M603.93,1305.3l-13.86,18.82,14.72,21.61h-8.27l-12.72-19.86-1.29.2c-.42,6.43,0,12.91-.27,19.65h-6.08v-40.36h6.19v17.39l1.24.32,12.6-17.77Z" transform="translate(-375 -1047.05)"/><path class="cls-4" d="M616.5,1340.69h17.88c-.62,2-1,3.45-1.54,5.08H610.2v-40.38h22.56c-.39,1.6-.74,3-1.21,4.95H616.48v11.42h12.26v5.5H616.5Z" transform="translate(-375 -1047.05)"/><path class="cls-5" d="M488.12,1307.72l-2.06,3.31a5.65,5.65,0,0,1-1.55,0c-9.23-3.24-14.67-.28-16,9.35a38.3,38.3,0,0,0,.42,12.36c1.55,8,8,11,15.45,7.58l2-.88,2.56,3.48c-8.82,6.83-21.51,4.11-25.78-5.81-3.9-9.07-3.67-18.26,2.58-26.46C471.06,1303.66,480.73,1302.5,488.12,1307.72Z" transform="translate(-375 -1047.05)"/><path class="cls-5" d="M567.46,1339.4l2.42,3.34c-.27.51-.35.91-.58,1-11.53,6.72-23.82,1.65-26.75-11.27-1.63-7.17-1.16-14.27,3.15-20.62,5.33-7.85,15.23-9.69,23.35-4.26-.29.55-.55,1.14-.9,1.67-.45.68-1,1.31-1.36,1.81-.6,0-1,.11-1.22,0-8.2-3.77-14.71-.29-16.07,8.63a39.37,39.37,0,0,0,.13,12.4c1.43,8.32,7.78,11.47,15.57,8.24C565.81,1340.13,566.42,1339.86,567.46,1339.4Z" transform="translate(-375 -1047.05)"/><path class="cls-6" d="M652.83,1310.64v35.18h-6.69v-35h-10c.6-2.08,1.06-3.7,1.58-5.49h27.07c-.58,1.82-1.11,3.45-1.71,5.33Z" transform="translate(-375 -1047.05)"/><path class="cls-7" d="M529.09,1305.37h5.72v40.46h-5.72Z" transform="translate(-375 -1047.05)"/><path class="cls-6" d="M565.12,1369.27c-.12,2.41-.24,4.83-.37,7.52l-3,.55V1357c4.42.27,9.3-1.91,12.1,3.28,1.53,2.85.18,5.55-3.77,8.68l5.42,8.68c-2.14-.62-3.6-.65-4.41-1.39-1-1-1.5-2.54-2.33-3.77s-1.77-2.32-2.66-3.47Zm0-3,5.45-.72v-5.31l-5.45-1Z" transform="translate(-375 -1047.05)"/><path class="cls-8" d="M508.46,1377.19l-3.14.2c-.65-1.64-1.24-3.15-2-5h-6.86l-1.81,4.76h-3.14c2.27-6.91,4.42-13.46,6.59-20.09h3.92Zm-5.69-8.08c-.94-2.67-1.68-4.77-2.41-6.86l-1.13.19-1.94,6.67Z" transform="translate(-375 -1047.05)"/><path class="cls-8" d="M593.85,1377.19h-3.23l-2-4.94H582l-2,4.79-3.15.43c2.28-7,4.38-13.57,6.56-20.32h4.06C589.51,1363.66,591.58,1370.11,593.85,1377.19Zm-11.47-7.81,5.69-.34c-.79-2.73-1.45-5-2.11-7.33h-1.09C584.13,1364,583.4,1366.22,582.38,1369.38Z" transform="translate(-375 -1047.05)"/><path class="cls-9" d="M622.26,1372.28c-.6,1.66-1.16,3.19-1.78,4.88l-3.14.27,6.52-20.28,4-.23,6.43,20.21H631l-1.91-4.85Zm6.38-2.77c-1-3.23-1.69-5.53-2.39-7.84l-1.07.09L623,1369Z" transform="translate(-375 -1047.05)"/><path class="cls-8" d="M529,1362.28c2.47-6.26,6.75-7.47,13-3h-8.37l-.8,4.28,6,2.21c2.37.88,4,2.41,4.18,5.06.19,2.83-1.32,4.74-3.67,6a8.38,8.38,0,0,1-10.75-2.21h10c.18-1.69.33-3.09.46-4.34C535.72,1367.38,529.69,1368.56,529,1362.28Z" transform="translate(-375 -1047.05)"/><path class="cls-5" d="M510.94,1356.88l2.75.13c1.28,5.78-.91,11.88,1.4,17.69l5,.3c3.84-5.63.48-12.08,2.28-17.92H525c0,5.23.2,10.35-.07,15.44-.19,3.37-3.3,5.44-7.2,5.39s-6.61-2.08-6.74-5.73C510.81,1367.23,510.94,1362.28,510.94,1356.88Z" transform="translate(-375 -1047.05)"/><path class="cls-3" d="M550,1359.67l-5.11-.63c2.37-2.45,7.07-2.87,14.15-.78l-6,1.84v16.79l-3,.46Z" transform="translate(-375 -1047.05)"/><path class="cls-4" d="M607.87,1375.17c-3.18,3.38-7,1.41-10.68,2.3V1357.1h3v17.62Z" transform="translate(-375 -1047.05)"/><path class="cls-7" d="M613.87,1377.25l-2.63-.12v-20h2.63Z" transform="translate(-375 -1047.05)"/><path class="cls-10" d="M617,1069.87l24.51,2.74c1.14,17.44-.08,34-1.64,50.45H637c-.46-2.51-1.11-4.77-4.91-3.53v5.75l-7.78,3.88-.87-11.05,11.87-2.45-4.31-2.81-4.54-4.07c.93-2.69,1.7-4.93,2.47-7.18l-.65-1.53-8.41.74-4.11-9.53c-.81,1.39-1.21,2.06-1.6,2.74l-3.58,7-4.56-.46-5.43-2-.64,1,1.66,2.52,1.33,1-.09.07c.53,1.84,1,3.68,1.68,5.87l-8.38,6.16.24,1,6.59.79,4.08,1.52c-.21,3.67-.39,6.94-.58,10.21l1.26.51q1.59-2.62,3.19-5.25l0,0,4.65-1.32,5.71,3.34.45-.09,1.32,3.61a39.1,39.1,0,0,1-4.3,3c-2.64,1.37-5.43,2.44-8.11,3.73-9.39,4.53-18.77,9.11-28.15,13.66l-2.9-4.66c-.37,2.29-.54,3.35-.71,4.42-.92,1.65-1.85,3.3-2.69,4.79a37,37,0,0,0-5.42.49c-1,.23-1.81,1.18-2.71,1.8L535.38,1173c-.11-.77-.22-1.54-.34-2.31,6.32-6.9,12.91-13.58,18.91-20.75,14.42-17.27,28.59-34.76,42.82-52.2,4.18-5.12,8.21-10.36,12.32-15.54L614,1076l0,0,1-2,0,0,1-1,0,0,1.06-1,0,.06.69-.49L617,1071Z" transform="translate(-375 -1047.05)"/><path class="cls-11" d="M518.44,1204a95.4,95.4,0,0,1,50,27.06c1.24,1.25,1.69,3.28,2.5,4.94l-2.1,2a.38.38,0,0,1-.55,0l-5-1.07-1.15-1.4c-.41-.82-.83-1.64-1.25-2.45l0,0-.81-4.09-1.22-2.52L558,1229a1.79,1.79,0,0,0-.11.79c-1.24,2.43-2.49,4.86-3.77,7.35L543,1234.29l5.38,10.19-9.1,7.17,11.33,2.14c-.19,3.92-.36,7.39-.53,10.86l1.07.24,7.6-6.76,6.34,3.83,0,0c.62,1,1.25,2,1.88,3l1.27-.56q-.62-3.2-1.21-6.41c.19-1.52.39-3,.57-4.46l10.79-1.76,0-1.13-4.47-1.58,0,0-1.08-1,.08.08-2.05-1h0l-1.94-5.56.06-.44.41-.15,1.71-.93,2.87-2.26c5.33,5.34,9,11.81,12.65,18.64-7.87,9.39-17.28,16.52-27.57,23.42-4.39-3.19-8.66-6-12.62-9.23-19-15.43-33.44-34.46-43.89-56.55a16.49,16.49,0,0,1-.77-2.84Z" transform="translate(-375 -1047.05)"/><path class="cls-12" d="M639.1,1125c-1.5,10.66-2.66,21.38-4.61,32-1.44,7.8-3.91,15.41-5.92,23.11-5.62.4-11.24.66-16.83,1.23-7.89.8-15.74,1.86-23.62,2.73-7.06.78-14.15,1.4-21.21,2.19-10.49,1.17-21,2.43-31.46,3.65,1.56-1.16,3.14-2.31,4.69-3.48,2.28-1.73,4.54-3.47,6.81-5.21,5.82-3.35,11.61-6.75,17.45-10,2.53-1.42,5.16-2.63,7.75-3.94l.5,3,7.61-4.2,7.45,4.06c.76-4-2.67-7.61.49-10.86l.91-1.11c.9-1,3.18-1.2,1.78-3.38,11.35-7.21,22.65-14.49,34.05-21.62C629.55,1130.22,634.37,1127.68,639.1,1125Z" transform="translate(-375 -1047.05)"/><path class="cls-10" d="M617,1069.87V1071l0,1,0-.06-1.06,1,0,0-1,1,0,0-1,2,0,0-6.08,5c-1.35,1.21-2.77,2.36-4.05,3.65q-37.51,37.56-75,75.13c-1.28,1.29-2.72,2.41-4.09,3.6l.18-4.3c2.54-7.11,5.28-14.16,7.58-21.34,3.35-10.53,6.38-21.16,9.55-31.74l8.51,1.35c-.24,3.73-.46,7-.68,10.35l1.23.41,1.83-2.34a.57.57,0,0,1,0-.65l1.89-1.26-.07.06,4.5-1.83,4.79,2.16-.09.31,1.89,2.71,1.27-.4v-9.34L574,1106l2.44-.85.25.13.26-.1.14-1.4-4.16-1.68h0c.13-2.42-1.28-2.45-3-2h0v-5.23l0,0,4.35-5.82-.11-1-1.5.73-1.6.14-1.29.92h-5.47l-3.36-2.86,0,0L561,1085l-2-3.64-4.74,9.5-5-1-1.38-1a75.37,75.37,0,0,0,2.44-7.83c.28-1.32-.36-2.84-.58-4.27,6.57-1.54,13.09-3.42,19.73-4.56a195.45,195.45,0,0,1,40.13-3C612.07,1069.18,614.53,1069.6,617,1069.87Z" transform="translate(-375 -1047.05)"/><path class="cls-13" d="M525,1159.05l-.18,4.3q-2.55,7.62-5.08,15.22l1.14.72c2-1.36,4-2.81,6.08-4.07,2.66-1.61,5.42-3.06,8.13-4.58.12.77.23,1.54.34,2.31L525,1186l-.15.11.06-.18c1.92-.25,3.87-.34,5.74-.77,5.44-1.27,10.85-2.68,16.27-4-2.27,1.74-4.53,3.48-6.81,5.21-1.55,1.17-3.13,2.32-4.69,3.48a15.22,15.22,0,0,0-7.07,4.68l12.43,2.41-3.7,1.25-5.32,1.28-3.74.92-3.22,1.54-6.39,2-16.62,7.27c-2.47-5.93-5.22-11.76-7.34-17.81s-3.58-12.06-5.18-18.14a30.41,30.41,0,0,1-.45-5.25l6.86,5.91c-.54-7-1-13.47-1.55-20l1.72,0,1.35,2.19q3.19,7.85,6.41,15.69a89,89,0,0,0,4-12.32,54.54,54.54,0,0,1,2.39-5.78l1.24,3.24c.24,5.37.48,10.74.77,17.34,2.15-3.07,3.56-5.23,5.11-7.28C519.69,1165.71,522.34,1162.39,525,1159.05Z" transform="translate(-375 -1047.05)"/><path class="cls-10" d="M508,1090.71c10.67-3.93,21.31-8,32-11.73,2.9-1,6.07-1.31,9.11-1.94l-3.45,11.15-1.79.37.3,2.18a9.14,9.14,0,0,0-1.19,1.55c-5.68,12.12-11.3,24.26-17,36.36a62.72,62.72,0,0,1-3.21,5.39c-.38-.78-1.29-1.79-1.07-2.3,1.23-2.77,2.74-5.42,4.45-8.69l-11.36,2.39c-1.12-2.76-1.83-5-2.9-7-.51-1-1.72-1.52-2.61-2.25Z" transform="translate(-375 -1047.05)"/><path class="cls-14" d="M540.81,1196.93l-12.43-2.41a15.22,15.22,0,0,1,7.07-4.68c10.48-1.22,21-2.48,31.46-3.65,7.06-.79,14.15-1.41,21.21-2.19,7.88-.87,15.73-1.93,23.62-2.73,5.59-.57,11.21-.83,16.83-1.23q-4.34,12-8.65,23.9c-11.21-4.06-22.66-7.42-34.57-8.17-10.88-.69-21.83-.46-32.75-.38-2.88,0-5.75,1-8.62,1.5Z" transform="translate(-375 -1047.05)"/><path class="cls-15" d="M544,1196.89c2.87-.52,5.74-1.48,8.62-1.5,10.92-.08,21.87-.31,32.75.38,11.91.75,23.36,4.11,34.57,8.17L609,1227.33C590,1210.13,568.84,1199.45,544,1196.89Z" transform="translate(-375 -1047.05)"/><path class="cls-16" d="M497.23,1158.2l-1.35-2.19-1.82-3.16c-3.08-7.95-6.13-15.91-9.26-23.83-.18-.46-1-.64-1.57-1,.21-8.58.43-17.16.66-26.23l20.18-9.71-3.27,32.06-6.31-.91,4.91,9.7c-1.1,1-1.93,1.78-2.72,2.58s-1.65,1.75-2.47,2.63l-1.93.64-.19,1.33,7,2.07Z" transform="translate(-375 -1047.05)"/><path class="cls-17" d="M524.83,1201.92l3.22-1.54a17.28,17.28,0,0,0,3.47,1.56c27.33,5.44,48.4,20.16,63.93,43.09a5.28,5.28,0,0,1,.37,1.19c-.51.64-1.07,1.44-1.73,2.16a24.72,24.72,0,0,1-1.91,1.75c-3.7-4.92-7.08-9.81-10.85-14.38a92.73,92.73,0,0,0-51.5-32A43.3,43.3,0,0,1,524.83,1201.92Z" transform="translate(-375 -1047.05)"/><path class="cls-18" d="M639.1,1125c-4.73,2.7-9.55,5.24-14.16,8.12-11.4,7.13-22.7,14.41-34.05,21.62-2.68-.45-5.8,1.17-8-1.71-.14-1-.28-2.08-.43-3.12,9.38-4.55,18.76-9.13,28.15-13.66,2.68-1.29,5.47-2.36,8.11-3.73a39.1,39.1,0,0,0,4.3-3l1.27-.33,7.78-3.88,4.91-2.22h2.85Z" transform="translate(-375 -1047.05)"/><path class="cls-17" d="M531.79,1199.46l5.32-1.28c7.25,1.6,14.64,2.71,21.7,4.89,18,5.6,32.92,16.14,45.81,30.47l-3,4.58-1.5,1a32,32,0,0,0-2.57-4.21c-17-20.28-38.43-32.28-64.88-35A3.9,3.9,0,0,1,531.79,1199.46Z" transform="translate(-375 -1047.05)"/><path class="cls-19" d="M483.23,1128.07c.54.31,1.39.49,1.57,1,3.13,7.92,6.18,15.88,9.26,23.83l.1,3.13c.5,6.5,1,13,1.55,20l-6.86-5.91.12.06-.9-1.36c-1.33-8.62-2.83-17.22-3.94-25.86C483.5,1138,483.51,1133,483.23,1128.07Z" transform="translate(-375 -1047.05)"/><path class="cls-18" d="M500.8,1124.19l3.27-32.06,3.89-1.42,1.31,25.52c-.13.91-.25,1.83-.38,2.75l-3.53,7.16Z" transform="translate(-375 -1047.05)"/><path class="cls-20" d="M545.66,1088.19l3.45-11.15a6.44,6.44,0,0,0,.63-.36c.22,1.43.86,3,.58,4.27a75.37,75.37,0,0,1-2.44,7.83Z" transform="translate(-375 -1047.05)"/><path class="cls-21" d="M574,1237.8l-2.87,2.26-1,0c-.44-.68-.88-1.37-1.31-2.06l2.1-2Z" transform="translate(-375 -1047.05)"/><path class="cls-13" d="M488.07,1168.74l.9,1.36Z" transform="translate(-375 -1047.05)"/><path class="cls-22" d="M501.21,1323.59v-13c4.33-.43,8.46-.81,11.49,3C513.87,1322.2,511.39,1324.41,501.21,1323.59Z" transform="translate(-375 -1047.05)"/><path class="cls-23" d="M565.11,1366.22v-7.06l5.45,1v5.31Z" transform="translate(-375 -1047.05)"/><path class="cls-24" d="M502.77,1369.11h-5.48l1.94-6.67,1.13-.19C501.09,1364.34,501.83,1366.44,502.77,1369.11Z" transform="translate(-375 -1047.05)"/><path class="cls-24" d="M582.38,1369.38c1-3.16,1.75-5.42,2.49-7.68H586c.66,2.3,1.32,4.6,2.11,7.33Z" transform="translate(-375 -1047.05)"/><path class="cls-24" d="M628.64,1369.51,623,1369l2.19-7.24,1.07-.09C627,1364,627.66,1366.28,628.64,1369.51Z" transform="translate(-375 -1047.05)"/><path class="cls-25" d="M535,1170.64c-2.71,1.52-5.47,3-8.13,4.58-2.09,1.26-4.06,2.71-6.08,4.07l-1.14-.72q2.53-7.6,5.08-15.22c1.37-1.19,2.81-2.31,4.09-3.6q37.53-37.55,75-75.13c1.28-1.29,2.7-2.44,4.05-3.65l1.15,1.18c-4.11,5.18-8.14,10.42-12.32,15.54-14.23,17.44-28.4,34.93-42.82,52.2C548,1157.06,541.36,1163.74,535,1170.64Z" transform="translate(-375 -1047.05)"/><path class="cls-26" d="M525,1186,535.38,1173l32.69-16.22,3.08,1.24-.13-.06.91,1.14c.62.76,1.23,1.53,1.84,2.29l.36,2.9-.18,1.66a3.76,3.76,0,0,0-.89.23l-.93,1,0,.06c-2.59,1.31-5.22,2.52-7.75,3.94-5.84,3.29-11.63,6.69-17.45,10-5.42,1.35-10.83,2.76-16.27,4-1.87.43-3.82.52-5.74.77Z" transform="translate(-375 -1047.05)"/><path class="cls-22" d="M628.3,1100.07l.65,1.53-6.75,7.86,8.76,4.64-4.57.89-4.65.94v10l-.45.09-5.68-7.87-4.68,5.85,0,0h-2.73c.43-2.77.79-5.09,1.21-7.78H603l-2.84-1.84,8.2-4.92-4.65-6.38,2.28-1.12,6.46,2.66c1-3.93,1.89-7.2,2.74-10.47l3.65,10.67Z" transform="translate(-375 -1047.05)"/><path class="cls-27" d="M621.74,1125.88v-10l4.65-.94,4.57-.89.06-1.25,4.31,2.81-11.87,2.45.87,11.05-1.27.33Z" transform="translate(-375 -1047.05)"/><path class="cls-28" d="M603.72,1103l4.65,6.38-8.2,4.92,2.84,1.84c0,.27,0,.53,0,.79l-6.59-.79-.24-1,8.38-6.16c-.63-2.19-1.15-4-1.68-5.87A4.85,4.85,0,0,1,603.72,1103Z" transform="translate(-375 -1047.05)"/><path class="cls-21" d="M628.3,1100.07l-9.45,4.68-3.65-10.67-1-.06c.39-.68.79-1.35,1.6-2.74l4.11,9.53Z" transform="translate(-375 -1047.05)"/><path class="cls-27" d="M603,1116.94c0-.26,0-.52,0-.79h6.42c-.42,2.69-.78,5-1.21,7.78H611q-1.61,2.63-3.19,5.25l-1.26-.51c.19-3.27.37-6.54.58-10.21Z" transform="translate(-375 -1047.05)"/><path class="cls-21" d="M631,1112.85l-.06,1.25-8.76-4.64,6.75-7.86c-.77,2.25-1.54,4.49-2.47,7.18Z" transform="translate(-375 -1047.05)"/><path class="cls-28" d="M614.18,1094l1,.06c-.85,3.27-1.71,6.54-2.74,10.47l-6.46-2.66,0-1.3,4.56.46Z" transform="translate(-375 -1047.05)"/><path class="cls-27" d="M610.93,1124l4.68-5.85,5.68,7.87-5.71-3.34Z" transform="translate(-375 -1047.05)"/><path class="cls-12" d="M637,1123.06l-4.91,2.22v-5.75C635.91,1118.29,636.56,1120.55,637,1123.06Z" transform="translate(-375 -1047.05)"/><path class="cls-27" d="M571.15,1158l-3.08-1.24c.9-.62,1.72-1.57,2.71-1.8a37,37,0,0,1,5.42-.49c.84-1.49,1.77-3.14,2.69-4.79l.37,1.73-1.23,4.23C575.53,1157,572.44,1154.74,571.15,1158Z" transform="translate(-375 -1047.05)"/><path class="cls-29" d="M579.26,1151.38l-.37-1.73c.17-1.07.34-2.13.71-4.42l2.9,4.66c.15,1,.29,2.08.43,3.12l-1.24,0-1.2-2Z" transform="translate(-375 -1047.05)"/><path class="cls-29" d="M606,1100.59l0,1.3-2.28,1.12a4.85,4.85,0,0,0-.85.13l.09-.07-1.33-1-1.66-2.52.64-1Z" transform="translate(-375 -1047.05)"/><path class="cls-20" d="M609.09,1082.15l-1.15-1.18,6.08-5Z" transform="translate(-375 -1047.05)"/><path class="cls-20" d="M614,1076l1-2Z" transform="translate(-375 -1047.05)"/><path class="cls-20" d="M617,1072l0-1,.67.53Z" transform="translate(-375 -1047.05)"/><path class="cls-28" d="M601.63,1102.07l1.33,1Z" transform="translate(-375 -1047.05)"/><path class="cls-20" d="M615,1074l1-1Z" transform="translate(-375 -1047.05)"/><path class="cls-20" d="M616,1073l1.06-1Z" transform="translate(-375 -1047.05)"/><path class="cls-22" d="M568.81,1238c.43.69.87,1.38,1.31,2.06l-.68,1-.41.15-.06.44-2.61,4.11,4.55,1.45h0l2.05,1-.08-.08,1.08,1,0,0,.27,1.74-9.78.62c.72,2.9,1.17,4.74,1.63,6.58l-1,3.91,0,0-6.35-8.69-6.77,8.48c.57-4.08,1-7,1.43-10.28l-10.18-.81,8.66-5.38-5.09-7.78,9.36,2.59c.7-2.64,1.35-5.16,2-7.68l2.73.69,0,0c.4,2.35.79,4.7,1.25,7.4l6.16-2.48A.38.38,0,0,0,568.81,1238Z" transform="translate(-375 -1047.05)"/><path class="cls-28" d="M558.15,1232.41c-.66,2.52-1.31,5-2,7.68l-9.36-2.59,5.09,7.78-8.66,5.38,10.18.81c-.46,3.3-.86,6.2-1.43,10.28l6.77-8.48,6.35,8.69-6.34-3.83-7.6,6.76-1.07-.24c.17-3.47.34-6.94.53-10.86l-11.33-2.14,9.1-7.17L543,1234.29l11.15,2.85c1.28-2.49,2.53-4.92,3.77-7.35Z" transform="translate(-375 -1047.05)"/><path class="cls-27" d="M566,1258c-.46-1.84-.91-3.68-1.63-6.58l9.78-.62-.27-1.74,4.47,1.58,0,1.13-10.79,1.76c-.18,1.42-.38,2.94-.57,4.46C566.66,1258,566.35,1258,566,1258Z" transform="translate(-375 -1047.05)"/><path class="cls-21" d="M568.26,1238l-6.16,2.48c-.46-2.7-.85-5-1.25-7.4.42.81.84,1.63,1.25,2.45l1.15,1.4Z" transform="translate(-375 -1047.05)"/><path class="cls-28" d="M566,1258c.32,0,.63,0,1,0q.6,3.21,1.21,6.41l-1.27.56-1.88-3Z" transform="translate(-375 -1047.05)"/><path class="cls-27" d="M570.91,1247.14l-4.55-1.45,2.61-4.11Q569.93,1244.37,570.91,1247.14Z" transform="translate(-375 -1047.05)"/><path class="cls-21" d="M558.15,1232.41l-.24-2.62a1.79,1.79,0,0,1,.11-.79h2.05l.81,4.09Z" transform="translate(-375 -1047.05)"/><path class="cls-28" d="M560.07,1229H558l.83-2.51Z" transform="translate(-375 -1047.05)"/><path class="cls-27" d="M573,1248.16l-2.05-1Z" transform="translate(-375 -1047.05)"/><path class="cls-28" d="M563.25,1236.92l-1.15-1.4Z" transform="translate(-375 -1047.05)"/><path class="cls-27" d="M574,1249.09l-1.08-1Z" transform="translate(-375 -1047.05)"/><path class="cls-27" d="M569.44,1241l.68-1,1,0Z" transform="translate(-375 -1047.05)"/><path class="cls-28" d="M573.06,1166.13a3.76,3.76,0,0,1,.89-.23l6.88-2.12,4.56,2.66c-.56-2.49-.94-4.15-1.35-6l3.27-2.22.89,1c-3.16,3.25.27,6.87-.49,10.86l-7.45-4.06-7.61,4.2-.5-3,0-.06Z" transform="translate(-375 -1047.05)"/><path class="cls-28" d="M581.69,1153.06l1.24,0c2.16,2.88,5.28,1.26,8,1.71,1.4,2.18-.88,2.42-1.78,3.38l-.81-.68-6.11-2Z" transform="translate(-375 -1047.05)"/><path class="cls-28" d="M589.11,1158.1l-.91,1.11-.89-1,1-.81Z" transform="translate(-375 -1047.05)"/><path class="cls-19" d="M522.76,1134a62.72,62.72,0,0,0,3.21-5.39c5.71-12.1,11.33-24.24,17-36.36a9.14,9.14,0,0,1,1.19-1.55c4,3.87,1.06,7.48-.4,11.15l-4.33,2.9,2.64,1.18c-3.17,10.58-6.2,21.21-9.55,31.74-2.3,7.18-5,14.23-7.58,21.34-2.61,3.34-5.26,6.66-7.82,10-1.55,2.05-3,4.21-5.11,7.28-.29-6.6-.53-12-.77-17.34q2.41-3.62,4.81-7.24l3.18,2.09c-.24-2.75-.41-4.78-.59-6.82l-.06-3.13.75-1.8,6.63-1.23,3.49-.46.17-.88-4.38-2.64-2-1.27Z" transform="translate(-375 -1047.05)"/><path class="cls-23" d="M564,1114.53l.09-.31c-1.55-2.11-3.09-4.22-5.26-7.2l-4,6.87.07-.06-1.89,1.26a.57.57,0,0,0,0,.65,44.73,44.73,0,0,1-.38-4.88c0-1.88.39-3.76.62-5.73l-9.24-1,1.7-1.85,6.35-3.57a60,60,0,0,1-3.77-5.14c-.41-.72-.17-1.82-.23-2.74l7.37,2.75,4.43-8.52,1.08,2,0,0c.37,2.16.73,4.33,1.15,6.79l7.5-2.57.81,1-.48,2.58,0,0-4.22,4,4.22,1.2h0l3,2h0l.77,2-8.7,1.17c.35,3.29.66,6.28,1,9.37Z" transform="translate(-375 -1047.05)"/><path class="cls-28" d="M545.67,1102.29l-1.7,1.85,9.24,1c-.23,2-.57,3.85-.62,5.73a44.73,44.73,0,0,0,.38,4.88l-1.83,2.34-1.23-.41c.22-3.31.44-6.62.68-10.35l-8.51-1.35-2.64-1.18,4.33-2.9Z" transform="translate(-375 -1047.05)"/><path class="cls-21" d="M545.67,1102.29l-1.9-.4c1.46-3.67,4.42-7.28.4-11.15l-.3-2.18,1.79-.37,2.22.59,1.38,1-1.24,1c.06.92-.18,2,.23,2.74a60,60,0,0,0,3.77,5.14Z" transform="translate(-375 -1047.05)"/><path class="cls-21" d="M564,1114.53l1.94.09c-.32-3.09-.63-6.08-1-9.37l8.7-1.17-.77-2,4.16,1.68-.14,1.4-.26.1-.25-.13L574,1106l-6.8,1.52v9.34l-1.27.4Z" transform="translate(-375 -1047.05)"/><path class="cls-21" d="M569.53,1091.28l-7.5,2.57c-.42-2.46-.78-4.63-1.15-6.79l3.36,2.86h5.47L571,1089l1.6-.14,1.61.23-4.35,5.82.48-2.58.84-1.37Z" transform="translate(-375 -1047.05)"/><path class="cls-28" d="M548,1090.84l1.24-1,5,1,4.74-9.5,2,3.64-1.21.06-4.43,8.52Z" transform="translate(-375 -1047.05)"/><path class="cls-21" d="M554.84,1113.89l4-6.87c2.17,3,3.71,5.09,5.26,7.2l-4.79-2.16Z" transform="translate(-375 -1047.05)"/><path class="cls-21" d="M569.88,1100.12l-4.22-1.2,4.22-4Z" transform="translate(-375 -1047.05)"/><path class="cls-21" d="M572.93,1102.09l-3-2C571.65,1099.64,573.06,1099.67,572.93,1102.09Z" transform="translate(-375 -1047.05)"/><path class="cls-21" d="M553,1115.09l1.89-1.26Z" transform="translate(-375 -1047.05)"/><path class="cls-28" d="M574,1106l2.44-.85Z" transform="translate(-375 -1047.05)"/><path class="cls-28" d="M574.21,1089.09l-1.61-.23,1.5-.73Z" transform="translate(-375 -1047.05)"/><path class="cls-21" d="M559.82,1085.07,561,1085l-.13,2.07Z" transform="translate(-375 -1047.05)"/><path class="cls-28" d="M577,1105.16l.14-1.4Z" transform="translate(-375 -1047.05)"/><path class="cls-28" d="M571,1089l-1.29.92Z" transform="translate(-375 -1047.05)"/><path class="cls-20" d="M497.23,1158.2q.94-8,1.9-16h2.61V1153l.86.35L506,1149l4.46-2,.89,1.79c-.44,2.35-.87,4.69-1.31,7a54.54,54.54,0,0,0-2.39,5.78,89,89,0,0,1-4,12.32Q500.43,1166,497.23,1158.2Z" transform="translate(-375 -1047.05)"/><path class="cls-12" d="M510,1155.79c.44-2.35.87-4.69,1.31-7l4.74,3q-2.4,3.62-4.81,7.24Z" transform="translate(-375 -1047.05)"/><path class="cls-24" d="M494.16,1156l-.1-3.13,1.82,3.16Z" transform="translate(-375 -1047.05)"/><path class="cls-26" d="M524.94,1186l-.06.18.15-.11Z" transform="translate(-375 -1047.05)"/><path class="cls-28" d="M522.76,1134l.54,1.61-.91,1-4.8-2.63,4.34-7.39-8.88,1.46c-.72-2.71-1.42-5.35-2.11-8l-2.05-1.18c.13-.92.25-1.84.38-2.75.89.73,2.1,1.3,2.61,2.25,1.07,2,1.78,4.2,2.9,7l11.36-2.39c-1.71,3.27-3.22,5.92-4.45,8.69C521.47,1132.25,522.38,1133.26,522.76,1134Z" transform="translate(-375 -1047.05)"/><path class="cls-21" d="M508.89,1119l2.05,1.18c-1.47,2.88-2.93,5.76-4.35,8.57l-7.09-2.36-1.68-.45,1.08,1.17c1.27,2.2,2.53,4.41,4.21,7.32l-8.85,3.8-.05,0c.82-.88,1.62-1.78,2.47-2.63s1.62-1.55,2.72-2.58l-4.91-9.7,6.31.91,4.56,2Z" transform="translate(-375 -1047.05)"/><path class="cls-28" d="M506,1149l-3.37,4.38-.86-.35v-10.8h-2.61l-7-2.07.19-1.33,1.93-.64.05,0,10.05,2.63c-.3,2.66-.64,5.61-1,8.62L506,1149Z" transform="translate(-375 -1047.05)"/><path class="cls-24" d="M588.3,1157.42l-1,.81-3.27,2.22c.41,1.84.79,3.5,1.35,6l-4.56-2.66L574,1165.9l.18-1.66,2.71-3.56-3.87-2.53-2-.24.13.06c1.29-3.23,4.38-1,6.88-2.36l1.23-4.23,1.23-.31,1.2,2,.5,2.34Z" transform="translate(-375 -1047.05)"/><path class="cls-29" d="M573,1158.15l3.87,2.53-2.71,3.56-.36-2.9c-.61-.76-1.22-1.53-1.84-2.29Z" transform="translate(-375 -1047.05)"/><path class="cls-27" d="M573,1158.15l-1,.9-.91-1.14Z" transform="translate(-375 -1047.05)"/><path class="cls-12" d="M573.06,1166.13l-.93,1Z" transform="translate(-375 -1047.05)"/><path class="cls-29" d="M516.06,1151.79l-4.74-3-.89-1.79-4.46,2,0,0,3.94-6.4c2.06,2.16,3.46,3.74,5,5.17a9.63,9.63,0,0,0,2.25,1.19l1.47-1.93.59,6.82Z" transform="translate(-375 -1047.05)"/><path class="cls-28" d="M518.65,1147.06l-1.47,1.93c-.34-2.78-.69-5.56-1.13-9.2h8.61l1.31,1.11-6.63,1.23-.75,1.8Z" transform="translate(-375 -1047.05)"/><path class="cls-29" d="M526,1140.9l-1.31-1.11.31-1.24-1.49-1.28,1.77-.35,4.38,2.64-.17.88Z" transform="translate(-375 -1047.05)"/><path class="cls-29" d="M518.59,1143.93l.75-1.8Z" transform="translate(-375 -1047.05)"/><path class="cls-28" d="M525.25,1136.92l-1.77.35-1.09-.57.91-1Z" transform="translate(-375 -1047.05)"/><path class="cls-23" d="M569.53,1091.28l1.65-.32-.84,1.37Z" transform="translate(-375 -1047.05)"/><path class="cls-23" d="M522.39,1136.7l1.09.57,1.49,1.28-.31,1.24h-8.61c.44,3.64.79,6.42,1.13,9.2a9.63,9.63,0,0,1-2.25-1.19c-1.53-1.43-2.93-3-5-5.17L506,1149l-2.67.43c.34-3,.68-6,1-8.62l-10.05-2.63,8.85-3.8c-1.68-2.91-2.94-5.12-4.21-7.32a3.19,3.19,0,0,0,.6-.72l7.09,2.36c1.42-2.81,2.88-5.69,4.35-8.57.69,2.63,1.39,5.27,2.11,8l8.88-1.46-4.34,7.39Z" transform="translate(-375 -1047.05)"/><path class="cls-23" d="M498.9,1127.09l-1.08-1.17,1.68.45A3.19,3.19,0,0,1,498.9,1127.09Z" transform="translate(-375 -1047.05)"/></svg>