<svg xmlns="http://www.w3.org/2000/svg" width="112.18" height="209.317" viewBox="0 0 112.18 209.317">
  <g id="england-cricket-team-seeklogo" transform="translate(0 -12.503)">
    <path id="Path_2" data-name="Path 2" d="M98.99,68.57a4.942,4.942,0,0,1-1.28,9.73,5.075,5.075,0,0,1-1.03-.11,1.009,1.009,0,0,1-.31-.08,171.538,171.538,0,0,0-40.29-4.72,172.149,172.149,0,0,0-40.31,4.72c-.1.03-.2.06-.3.08a4.831,4.831,0,0,1-1.02.11,4.938,4.938,0,0,1-1.29-9.73,182.2,182.2,0,0,1,42.92-5.06,181.416,181.416,0,0,1,42.85,5.06Z" fill="#15295e"/>
    <path id="Path_3" data-name="Path 3" d="M112.18,26.69c-1.47,1.11-4.15,1.59-7.15,1.21a18.036,18.036,0,0,1-.29,8.03c-3.13-1.67-5.13-5.24-5.57-9.46a34.247,34.247,0,0,1-.76,4.23A29.611,29.611,0,0,1,92.9,42.2c4.1-2.69,10.4-1.48,6.84,2.65-1.92,2.19-4.91,3.15-8.45,2.52a9.347,9.347,0,0,1-7.42-5.82,2.248,2.248,0,0,0,2.12-1.76,8.784,8.784,0,0,0,3.3,2.86c-.75-5.35,1.39-7.09,2.77-9.62,1.38-2.55,1.29-4.71-.02-5.58-1.28-.86-2.87.14-4.22,1.43a5.618,5.618,0,0,0,.16-.71c1.71-8.13,1.04-15.13-1.51-15.64-2.53-.49-5.99,5.67-7.7,13.79-.05.24-.1.47-.15.72-.71-1.71-1.74-3.23-3.27-2.95-1.56.3-2.54,2.25-2.29,5.13s1.5,5.29-1.38,9.91a8.946,8.946,0,0,0,4.21-1.35A2.162,2.162,0,0,0,77,40.14a10.3,10.3,0,0,1-8.93,3.13c-4.79-.52-7.71-4.5-8.34-8.79a17.338,17.338,0,0,1,8.3,3.57,29.142,29.142,0,0,1-.01-14.51c.13-.52.27-1.04.43-1.54a14.112,14.112,0,0,1-8.99,5.28,21.366,21.366,0,0,1,.66-2.74,21.8,21.8,0,0,1,4.21-7.89,25.758,25.758,0,0,1-8.25,1.32,25.52,25.52,0,0,1-8.27-1.32,22.021,22.021,0,0,1,4.22,7.9,21.308,21.308,0,0,1,.65,2.74A14.14,14.14,0,0,1,43.7,22c.15.51.29,1.03.42,1.55a29.258,29.258,0,0,1-.01,14.51,17.456,17.456,0,0,1,8.32-3.57c-.63,4.3-3.54,8.27-8.35,8.8a10.285,10.285,0,0,1-8.91-3.14,2.17,2.17,0,0,0,1.09-2.37,8.893,8.893,0,0,0,4.21,1.36c-2.85-4.62-1.63-7.03-1.38-9.91s-.75-4.82-2.29-5.13c-1.5-.29-2.57,1.24-3.29,2.95l-.13-.72c-1.72-8.12-5.17-14.28-7.71-13.79-2.55.51-3.23,7.51-1.5,15.64l.15.72c-1.35-1.29-2.91-2.29-4.21-1.43-1.31.88-1.4,3.04-.02,5.59,1.41,2.52,3.51,4.27,2.75,9.62a8.849,8.849,0,0,0,3.34-2.85,2.219,2.219,0,0,0,2.1,1.75,9.314,9.314,0,0,1-7.42,5.82c-3.52.63-6.52-.33-8.43-2.52-3.57-4.13,2.73-5.34,6.84-2.66a29.8,29.8,0,0,1-5.53-11.49,30.027,30.027,0,0,1-.75-4.21c-.42,4.22-2.44,7.78-5.56,9.45a17.819,17.819,0,0,1-.29-8.11c-2.98.44-5.65.05-7.14-1.01L11.5,57.84c1.39,3.5,1.84,5.56.6,9.4a177.509,177.509,0,0,1,43.98-5.46,177.449,177.449,0,0,1,43.98,5.46c-1.26-3.84-.79-5.9.59-9.4ZM17.1,61l-2.88-8.91,2.69-.56,2.86,8.92ZM25,56.72a2.115,2.115,0,1,1,2.16-2.12A2.118,2.118,0,0,1,25,56.72Zm10.28.87-4.15-3.8,2.72-4.85L38,52.73Zm9.57-2.56a2.545,2.545,0,1,1,2.57-2.55,2.569,2.569,0,0,1-2.57,2.55Zm14.11,1.66H53.23V47.66h5.73Zm8.41-1.66a2.545,2.545,0,1,1,0-5.09,2.546,2.546,0,1,1,0,5.09Zm9.58,2.56-2.74-4.85,4.13-3.79,2.74,4.85Zm10.24-.87a2.115,2.115,0,1,1,2.15-2.12,2.143,2.143,0,0,1-2.15,2.12ZM95.13,61l-2.7-.55,2.88-8.92,2.67.56Z" fill="#15295e"/>
    <path id="Path_4" data-name="Path 4" d="M25.91,109.05c-.48.84-.83,1.51-.83,1.51a13.629,13.629,0,0,1-.07-7.96,9.561,9.561,0,0,0-1.13.83c.16-.97.38-1.85.6-2.68-6.72-2.86-11.28-5.29-10.71-9.6.24-1.69,1.53-3.02.78-4.56a2.3,2.3,0,0,0-.68-.83,2.1,2.1,0,0,0-.13-.55,2.536,2.536,0,0,0-3.29-1.54,1.8,1.8,0,0,1,1.39,1.17,1.627,1.627,0,0,1,.09.64,1.911,1.911,0,0,0-1.02.82,1.641,1.641,0,0,0-.71-.62,1.8,1.8,0,0,0-1.02-.12,2.5,2.5,0,0,0-4.27.14,1.789,1.789,0,0,1,1.79.02,1.639,1.639,0,0,1,.71.81,1.929,1.929,0,0,0-.36.52,1.64,1.64,0,0,0-.04,1.3,1.685,1.685,0,0,0-.95.16,2.468,2.468,0,0,0-.85-.19,2.541,2.541,0,0,0-2.63,2.5,1.742,1.742,0,0,1,1.58-.85,1.551,1.551,0,0,1,.99.38c-.68,1.45.75,3.55,2.75,4.01,3.55.79,1.88,4.61,1.8,4.93a1.276,1.276,0,0,0,.11,1,1.8,1.8,0,0,1-.69.35,1.861,1.861,0,0,1-1.7-.41,2.491,2.491,0,0,0,3.09,1.75,2.76,2.76,0,0,0,.68-.3,2.349,2.349,0,0,0,1.25.36,2.061,2.061,0,0,0,2.08-1.65l.23.15c4.68,3.24,3.87,8.29,7.23,11.06a4.676,4.676,0,0,1,.46-3.11,4.42,4.42,0,0,0,3.94,3.21,16.456,16.456,0,0,1-.47-2.65Z" fill="#15295e"/>
    <path id="Path_5" data-name="Path 5" d="M30.86,118.53a7.335,7.335,0,0,0-.96-3.05,6.871,6.871,0,0,1-.6-3.64,9.2,9.2,0,0,0-1.08,1.91,10.473,10.473,0,0,1-1.23-7.77,7.728,7.728,0,0,0-1.42,1.62,10.612,10.612,0,0,1,1.01-6.78,4.932,4.932,0,0,0-1.58.8,13.163,13.163,0,0,1,2.4-5.19,6.79,6.79,0,0,0-1.76.56,18.2,18.2,0,0,1,4.65-7.59,1.859,1.859,0,0,1-1.82-1.78,4.552,4.552,0,0,0-1.23-2.87c1.95.49,1.91.13,3.34.26a2.327,2.327,0,0,1,1.73.89A7.952,7.952,0,0,1,34,84.29a5.744,5.744,0,0,0-.39,1.53,10.924,10.924,0,0,1,2.88-2.74,6.226,6.226,0,0,0-.59,1.87c.79-.81,2.88-2.74,5.07-2.14-1.86.63-1.88,3.2-.21,3.63a1.465,1.465,0,0,0,1.81-1.02,1.885,1.885,0,0,0,0-.67,5.6,5.6,0,0,1,1.16,3.7,4.666,4.666,0,0,0,.44-1.64,6.82,6.82,0,0,1,.73,2.27,2.307,2.307,0,0,1,2.07-.01c1.28.55,1.07.85,3.03,1.31a4.789,4.789,0,0,0-2.42,1.98,1.924,1.924,0,0,1-2.63.64,17.944,17.944,0,0,1,.53,8.9,7.4,7.4,0,0,0-1.3-1.29,12.183,12.183,0,0,1-.31,5.6,4.508,4.508,0,0,0-1.14-1.44,11.658,11.658,0,0,1-2.46,6.76,10.407,10.407,0,0,0-.34-1.88,11.153,11.153,0,0,1-4.64,5.88,8.963,8.963,0,0,0-.13-1.82,7.166,7.166,0,0,1-2.06,2.57,7.036,7.036,0,0,0-2.22,2.27ZM45.32,91.3s-.44-.09-.36-.66a1,1,0,0,1,1.24-.71,3.188,3.188,0,0,1,.96.44s-1.25-.43-1.32.49c-.05.57-.51.44-.52.44ZM29.71,86.05s1.28.19.95,1.05c-.23.53.19.62.2.62s.41.12.59-.4a1,1,0,0,0-.71-1.24,3.317,3.317,0,0,0-1.03-.03ZM36.6,97.44a.753.753,0,0,1,.94-.38.977.977,0,0,1,.42.21,1.561,1.561,0,0,0,.4-.55c.5-1.2-1-.38-1.9-.6-.87-.23-1.82-1.62-1.95-.37a1.2,1.2,0,0,0,.12.71.9.9,0,0,1,.46,0,.714.714,0,0,1,.62.77.532.532,0,0,1-.42.38,1.673,1.673,0,0,0,.68.38c-.26.69-.84,1.66-2.02.69-1.29-1.12-2.49-1.63-3.29-1.26.48-.01,2.09.4,1.52,3.2a6.556,6.556,0,0,0,.2,4.61c.01.02.25-.69.67-.92a4.359,4.359,0,0,0,.55,3.11,4.192,4.192,0,0,0,2.03-2.5,2.384,2.384,0,0,1,.16,1.17,6.3,6.3,0,0,0,2.34-3.99c.83-2.72,2.44-2.35,2.88-2.1-.55-.71-1.84-.8-3.5-.45-1.51.32-1.57-.8-1.48-1.54a1.612,1.612,0,0,0,.76-.01.63.63,0,0,1-.19-.56Zm3.08-2.08a9.744,9.744,0,0,0-1.67-.75c-.11-.3-.11-.7.04-.77.39-.13.45.86,1.12.57l2.78-1.28c-.08.99-1.62,1.13-1.14,2.01a1.538,1.538,0,0,1-1.13.22Zm-6.61-4.44c-.41.9.85,1.73.04,2.3a1.5,1.5,0,0,0,.86.74,9.572,9.572,0,0,1,1.84.11c.26-.22.44-.57.32-.71-.29-.32-.78.55-1.23-.02Z" fill="#15295e"/>
    <path id="Path_6" data-name="Path 6" d="M34.44,99.7a2.023,2.023,0,0,0-.63,1.12,2.487,2.487,0,0,1-.02-1.33c-.29-.13-.56-.29-.89-.42.47.93-.39,3.26.34,4.64a3.69,3.69,0,0,1,.48-1l-.06.19a1.755,1.755,0,0,0,.2,1.45,2.411,2.411,0,0,0,.49.21,2.347,2.347,0,0,0,.52.05,1.772,1.772,0,0,0,.85-1.19l.04-.19a3.835,3.835,0,0,1,0,1.07c1.27-.84,1.63-3.31,2.46-3.93-.32-.04-.66-.02-.99-.04a2.737,2.737,0,0,1-.65,1.17,2.044,2.044,0,0,0-.02-1.28,1.536,1.536,0,0,1-.9-.88,1.545,1.545,0,0,1-1.22.36Z" fill="#15295e"/>
    <path id="Path_7" data-name="Path 7" d="M106.86,109.47a2.39,2.39,0,0,0-1.05-1.57,4.991,4.991,0,0,0,1.76-3.47,5.152,5.152,0,0,1-2.42,1.35,7.651,7.651,0,0,0,2.26-4.72c-2.75,4.2-5.99.06-12.18,3.17a6.565,6.565,0,0,1-4.89.27c11.37-1.93,15.43-8.71,11.48-11.33-1.77-1.14-4.87-.97-8.82.57a81.5,81.5,0,0,1-9.44,3.09c-2.47.34-4.28.13-5.91-1.58a2.314,2.314,0,0,0,1,2.26,5.975,5.975,0,0,1-4.46-3.27c-.82,2.28.55,3.34.55,3.34-3.56-1.13-2.91-4.59-6.25-4.76a1.613,1.613,0,0,1,.55.58,1.672,1.672,0,0,1,.26.86A1.715,1.715,0,0,1,67.59,96c-.11,0-.22-.01-.36-.02a.037.037,0,0,1-.03-.01c-.82-.11-2-.61-2.12-2.77l-.01-.33c.04-1.89,1.68-3.5,4.04-4.15.47-.13.93-.23,1.35-.32a13.91,13.91,0,0,1,3.97.33c2.44.51,4.87,1.96,7.23.97a2.974,2.974,0,0,1-2.48-1.81c5.16,1.5,6.33-1.72,6.33-1.72a4.629,4.629,0,0,1-3.79.21c4.2-2.34.94-6.56.94-6.56s1.45,5.53-7.55,5.76c-5.26.14-8.81,1.08-10.68,3.36a5.714,5.714,0,0,0-.84,6.85c-.54.19-1.79.27-3.8-1.11.62,1.53,3,4.03,9.44,4.97,8.17,1.81,17.07-.88,24.57-3.85,2.88-1.13,4.78-1.28,5.91-1.09a1.438,1.438,0,0,1,1.12,1.36,2.721,2.721,0,0,1-.13.79,5.518,5.518,0,0,1-.53.74c-2.44,3.01-10.18,6.67-23.86,4.58-2.96-.41-5.37-.52-8.76-.68-8.21-.41-18.3,1.44-22.43,2.31a20.248,20.248,0,0,1-.84,4.87,15.2,15.2,0,0,0-1-1.78,13.639,13.639,0,0,1-3.57,7.47s-.03-.87-.12-1.88a17.578,17.578,0,0,1-5.17,5.14s.08-.48.16-1.19a11.134,11.134,0,0,1-1.96,1.98,7.256,7.256,0,0,0-2.15,2.63l-.28.59-.05-.66a11.619,11.619,0,0,0-1.23-4.36,13.92,13.92,0,0,1-.52-1.48c-.21.5-.34.88-.34.88a12.68,12.68,0,0,1-1.04-2.17l-.75.33c-1.92.68-11.7,4.06-11.55-2.2.08-3.83-1.45-4.52-2.45-4.56a1.849,1.849,0,0,0-.25-.32,2.565,2.565,0,0,0-3.61-.14,1.746,1.746,0,0,1,1.72.54,2.391,2.391,0,0,1,.27.43,2.139,2.139,0,0,0-.64.86,2.956,2.956,0,0,0-2.53.55,2.562,2.562,0,0,0-.84-.07,2.556,2.556,0,0,0-2.26,2.83,1.757,1.757,0,0,1,2.35-.93,1.519,1.519,0,0,0-.1.57,2.19,2.19,0,0,0,.66,1.57,2.023,2.023,0,0,0-1.06,1.4c-.04.17-.05.36-.11.55a2.506,2.506,0,0,0-1.44,3.3,1.731,1.731,0,0,1,1.14-1.39,1.581,1.581,0,0,1,.7-.11,2.392,2.392,0,0,0,3.34.83c1.14-.85,1.98-.14,2.51.76a5.565,5.565,0,0,0,4.3,2.72c.02.07.03.14.05.21a1.8,1.8,0,0,0,.81,1.01,1.806,1.806,0,0,1-2.18.78,2.561,2.561,0,0,0,3.57.43,2.084,2.084,0,0,0,.45-.44,1.753,1.753,0,0,0,.9-.09,2.065,2.065,0,0,0,1.41-1.52c1.55.16,2.99.3,4.31.42a13.036,13.036,0,0,1,4.69,1.54,11.393,11.393,0,0,1,4.2,3.99,9.11,9.11,0,0,0-.19-2.88c2.61.85,5.54.82,7.09-1.52-1.1.21-1.82-1.11-.81-2.43a5.643,5.643,0,0,0,.95-4.98c1.14,2.26.92,3.89.5,4.75,3.33.09,6.13-1.02,12.37-6.05,4.71-3.8,8.26-5.28,10.54-5.9-1.38,3.23,1.76,4.92,5.82,5.27,1.62.25,3.23.34,3.75.52.25.11.88.29,1.63.5a1.337,1.337,0,0,1,.43,1.2,10.667,10.667,0,0,1-10.31-.5c-2.54-1.64-3.91-1.15-4.65-.25a2.52,2.52,0,0,0-2.6,2.49,1.86,1.86,0,0,1,1.6-.84,1.348,1.348,0,0,1,.52.11,1.846,1.846,0,0,0,.41,1.47l.11.11a2.034,2.034,0,0,0-.25.58,1.876,1.876,0,0,0-.06.31,2.591,2.591,0,0,0-.29.14,2.506,2.506,0,0,0-.91,3.48,1.786,1.786,0,0,1,.87-1.55,1.808,1.808,0,0,1,.74-.22,2.309,2.309,0,0,0,.14.19,1.835,1.835,0,0,0,.9.62c.07.02.14.03.21.05a7.06,7.06,0,0,0,.22.98,2.581,2.581,0,0,0,1.18,3.44,1.8,1.8,0,0,1-.12-1.82,1.431,1.431,0,0,1,.41-.49c1.31.7,3.11-.5,3.33-.69,5.39-4.72,7.71-.54,9.76-.79a1.906,1.906,0,0,1,.16.59,1.826,1.826,0,0,1-.64,1.63,2.488,2.488,0,0,0,2.15-2.84l-.03-.16a2.094,2.094,0,0,0,.71-1.51,10.923,10.923,0,0,0,3.06-1.49,3.094,3.094,0,0,1,.07,2.75,4.586,4.586,0,0,0,1.57-4.14,4.254,4.254,0,0,1,.44,3,4.66,4.66,0,0,0,1.61-4.11l-.02-.21c-.25-1.84,1.01-2.08,1.7-2.08l.46.04c-1.23-1.47-4.12-1.27-5.56-1.27-2.04.02-2.81-1.23-2.08-2.01,0,0-.81-.55-2.04-1.24a61.225,61.225,0,0,0,7.16,1.94c5.41.92,6.82-.5,8.8-2.26a10.81,10.81,0,0,1,3.55-2.47c-1.96,2.51.13,5.61.28,7.09.19,1.86-1.21,1.89-2.52,1.91-2.33.05-3.15.72-3.29,1.61a1.918,1.918,0,0,0-.48.19,2.545,2.545,0,0,0-1.03,3.5,1.757,1.757,0,0,1,.95-1.54,1.887,1.887,0,0,1,.69-.2,1.689,1.689,0,0,0,1.29,1.79,1.827,1.827,0,0,0,.73.06,1.809,1.809,0,0,0,.18,1.12,1.652,1.652,0,0,0,.61.62l-.06.18a2.562,2.562,0,0,0,1.72,3.19,1.848,1.848,0,0,1-.4-1.78,1.714,1.714,0,0,1,.52-.79,1.767,1.767,0,0,0,1.78-.17,2.251,2.251,0,0,0,.82-1.01,2.109,2.109,0,0,0,.94.66,2.3,2.3,0,0,0,1.32.09,1.309,1.309,0,0,0,.12.28,2.546,2.546,0,0,0,3.47,1.07,1.743,1.743,0,0,1-1.69-2.16l.17-.09c.72-.44,1.69-1.51.66-3.48-1.32-2.54-2.36-2.16-1.79-4.67.17-.77.64-1.73,1.01-2.88a2.44,2.44,0,0,0,1.42-.76,1.213,1.213,0,0,1,.3.11,1.914,1.914,0,0,1,1.05,1.44,2.4,2.4,0,0,0-.89-3.07Z" fill="#15295e"/>
    <path id="Path_8" data-name="Path 8" d="M25.91,203.14c-.48.84-.83,1.51-.83,1.51a13.629,13.629,0,0,1-.07-7.96,9.56,9.56,0,0,0-1.13.83c.16-.96.38-1.84.6-2.67-6.72-2.86-11.28-5.29-10.71-9.6.24-1.7,1.53-3.02.78-4.57a2.3,2.3,0,0,0-.68-.83,2.028,2.028,0,0,0-.13-.54,2.536,2.536,0,0,0-3.29-1.54,1.8,1.8,0,0,1,1.39,1.17,1.627,1.627,0,0,1,.09.64,2.007,2.007,0,0,0-1.02.82,1.708,1.708,0,0,0-.71-.62,1.887,1.887,0,0,0-1.02-.12,2.191,2.191,0,0,0-.77-.74,2.51,2.51,0,0,0-3.5.89,1.814,1.814,0,0,1,1.79.01,1.66,1.66,0,0,1,.71.82,1.929,1.929,0,0,0-.36.52,1.639,1.639,0,0,0-.04,1.3,1.685,1.685,0,0,0-.95.16,2.468,2.468,0,0,0-.85-.19,2.548,2.548,0,0,0-2.63,2.5,1.742,1.742,0,0,1,1.58-.85,1.551,1.551,0,0,1,.99.38c-.68,1.46.75,3.55,2.75,4.01,3.55.79,1.88,4.61,1.8,4.93a1.282,1.282,0,0,0,.11,1,1.8,1.8,0,0,1-.69.35,1.861,1.861,0,0,1-1.7-.41,2.5,2.5,0,0,0,3.09,1.75,3.789,3.789,0,0,0,.68-.3,2.442,2.442,0,0,0,1.25.36,2.061,2.061,0,0,0,2.08-1.65l.23.16c4.68,3.25,3.87,8.29,7.23,11.05a4.676,4.676,0,0,1,.46-3.11,4.42,4.42,0,0,0,3.94,3.21,17.048,17.048,0,0,1-.47-2.67Z" fill="#15295e"/>
    <path id="Path_9" data-name="Path 9" d="M30.86,212.62a7.335,7.335,0,0,0-.96-3.05,6.859,6.859,0,0,1-.6-3.64,9.2,9.2,0,0,0-1.08,1.91,10.473,10.473,0,0,1-1.23-7.77,7.729,7.729,0,0,0-1.42,1.62,10.626,10.626,0,0,1,1.01-6.78,5.177,5.177,0,0,0-1.58.8,13.028,13.028,0,0,1,2.4-5.18,6.576,6.576,0,0,0-1.76.55,18.011,18.011,0,0,1,4.65-7.58,1.869,1.869,0,0,1-1.82-1.79,4.552,4.552,0,0,0-1.23-2.87c1.95.49,1.91.13,3.34.26a2.352,2.352,0,0,1,1.73.88A7.952,7.952,0,0,1,34,178.37a5.744,5.744,0,0,0-.39,1.53,10.414,10.414,0,0,1,2.88-2.73,6.02,6.02,0,0,0-.59,1.87c.79-.82,2.88-2.74,5.07-2.14-1.86.63-1.88,3.2-.21,3.63a1.46,1.46,0,0,0,1.81-1.01,1.942,1.942,0,0,0,0-.68,5.6,5.6,0,0,1,1.16,3.7,4.773,4.773,0,0,0,.44-1.64,6.82,6.82,0,0,1,.73,2.27,2.307,2.307,0,0,1,2.07-.01c1.28.56,1.07.84,3.03,1.32a4.789,4.789,0,0,0-2.42,1.98,1.934,1.934,0,0,1-2.63.64,17.912,17.912,0,0,1,.53,8.9,7.23,7.23,0,0,0-1.3-1.3,12.184,12.184,0,0,1-.31,5.6,4.508,4.508,0,0,0-1.14-1.44,11.658,11.658,0,0,1-2.46,6.76,10.407,10.407,0,0,0-.34-1.88,11.153,11.153,0,0,1-4.64,5.88,8.964,8.964,0,0,0-.13-1.82,7.166,7.166,0,0,1-2.06,2.57,7.138,7.138,0,0,0-2.22,2.27h-.02Zm14.46-27.23s-.44-.09-.36-.66a1,1,0,0,1,1.24-.71,3.107,3.107,0,0,1,.96.45s-1.25-.43-1.32.48c-.05.57-.51.44-.52.44Zm-15.61-5.24s1.28.18.95,1.05c-.23.52.19.62.2.62s.41.13.59-.39a1,1,0,0,0-.71-1.24,2.857,2.857,0,0,0-1.03-.04Zm6.89,11.38a.763.763,0,0,1,.94-.38,1.1,1.1,0,0,1,.42.2,1.4,1.4,0,0,0,.4-.55c.5-1.2-1-.38-1.9-.61-.87-.22-1.82-1.62-1.95-.36a1.2,1.2,0,0,0,.12.71.9.9,0,0,1,.46,0,.714.714,0,0,1,.62.77.547.547,0,0,1-.42.38,1.8,1.8,0,0,0,.68.38c-.26.7-.84,1.65-2.02.69-1.29-1.11-2.49-1.63-3.29-1.26.48-.02,2.09.4,1.52,3.2a6.529,6.529,0,0,0,.2,4.6c.01.02.25-.69.67-.92a4.349,4.349,0,0,0,.55,3.11,4.192,4.192,0,0,0,2.03-2.5,2.384,2.384,0,0,1,.16,1.17,6.278,6.278,0,0,0,2.34-3.99c.83-2.72,2.44-2.35,2.88-2.1-.55-.71-1.84-.8-3.5-.45-1.51.31-1.57-.8-1.48-1.54a1.612,1.612,0,0,0,.76-.01.578.578,0,0,1-.19-.54Zm3.08-2.08a10.582,10.582,0,0,0-1.67-.75c-.11-.3-.11-.7.04-.77.39-.13.45.86,1.12.58l2.78-1.29c-.08.99-1.62,1.13-1.14,2.01a1.587,1.587,0,0,1-1.13.22Zm-6.61-4.43c-.41.9.85,1.73.04,2.3a1.449,1.449,0,0,0,.86.73,10.447,10.447,0,0,1,1.84.11c.26-.21.44-.57.32-.71-.29-.32-.78.56-1.23-.02Z" fill="#15295e"/>
    <path id="Path_10" data-name="Path 10" d="M34.44,193.79a2.023,2.023,0,0,0-.63,1.12,2.444,2.444,0,0,1-.02-1.32c-.29-.13-.56-.29-.89-.42.47.93-.39,3.26.34,4.64a3.69,3.69,0,0,1,.48-1l-.06.19a1.779,1.779,0,0,0,.2,1.46,1.939,1.939,0,0,0,.49.2,1.872,1.872,0,0,0,.52.05,1.772,1.772,0,0,0,.85-1.19l.04-.19a3.835,3.835,0,0,1,0,1.07c1.27-.83,1.63-3.3,2.46-3.92-.32-.04-.66-.02-.99-.04a2.737,2.737,0,0,1-.65,1.17,2.036,2.036,0,0,0-.02-1.28,1.508,1.508,0,0,1-.9-.88,1.56,1.56,0,0,1-1.22.34Z" fill="#15295e"/>
    <path id="Path_11" data-name="Path 11" d="M106.86,203.56a2.413,2.413,0,0,0-1.05-1.57,4.976,4.976,0,0,0,1.76-3.47,5.184,5.184,0,0,1-2.42,1.36,7.63,7.63,0,0,0,2.26-4.72c-2.75,4.2-5.99.06-12.18,3.18a6.614,6.614,0,0,1-4.89.27c11.37-1.92,15.43-8.71,11.48-11.32-1.77-1.15-4.87-.98-8.82.57a83.473,83.473,0,0,1-9.44,3.09c-2.47.33-4.28.12-5.91-1.59a2.3,2.3,0,0,0,1,2.26,5.947,5.947,0,0,1-4.46-3.26c-.82,2.27.55,3.33.55,3.33-3.56-1.13-2.91-4.58-6.25-4.76a1.613,1.613,0,0,1,.55.58,1.666,1.666,0,0,1,.26.85,1.7,1.7,0,0,1-1.71,1.74,2.486,2.486,0,0,1-.36-.03H67.2c-.82-.12-2-.61-2.12-2.77l-.01-.33c.04-1.89,1.68-3.5,4.04-4.15.47-.12.93-.22,1.35-.32a13.91,13.91,0,0,1,3.97.33c2.44.51,4.87,1.96,7.23.98A2.953,2.953,0,0,1,79.18,182c5.16,1.49,6.33-1.72,6.33-1.72a4.6,4.6,0,0,1-3.79.2c4.2-2.34.94-6.56.94-6.56s1.45,5.53-7.55,5.77c-5.26.14-8.81,1.08-10.68,3.36a5.636,5.636,0,0,0-1.61,4.18,5.705,5.705,0,0,0,.77,2.67c-.54.19-1.79.27-3.8-1.11.62,1.52,3,4.03,9.44,4.97,8.17,1.81,17.07-.88,24.57-3.85,2.88-1.13,4.78-1.28,5.91-1.08a1.42,1.42,0,0,1,1.12,1.36,2.721,2.721,0,0,1-.13.79,5.519,5.519,0,0,1-.53.74c-2.44,3.01-10.18,6.68-23.86,4.58-2.96-.4-5.37-.52-8.76-.68-8.21-.41-18.3,1.44-22.43,2.31a20.323,20.323,0,0,1-.84,4.88,15.2,15.2,0,0,0-1-1.78,13.639,13.639,0,0,1-3.57,7.47s-.03-.88-.12-1.88a17.344,17.344,0,0,1-5.17,5.14s.08-.48.16-1.18a11.043,11.043,0,0,1-1.96,1.97,7.343,7.343,0,0,0-2.15,2.63l-.28.59-.05-.66a11.619,11.619,0,0,0-1.23-4.36,14.613,14.613,0,0,1-.52-1.47c-.21.5-.34.88-.34.88a12.68,12.68,0,0,1-1.04-2.17l-.75.33c-1.92.66-11.7,4.06-11.55-2.2.08-3.83-1.45-4.52-2.45-4.56a1.85,1.85,0,0,0-.25-.32,2.547,2.547,0,0,0-3.61-.14,1.768,1.768,0,0,1,1.72.54,2.085,2.085,0,0,1,.27.43,2.286,2.286,0,0,0-.64.86,2.924,2.924,0,0,0-2.53.55,2.321,2.321,0,0,0-.84-.06,2.55,2.55,0,0,0-2.26,2.83,1.736,1.736,0,0,1,2.35-.92,1.484,1.484,0,0,0-.1.57,2.226,2.226,0,0,0,.66,1.57,2.026,2.026,0,0,0-1.06,1.39c-.04.18-.05.36-.11.56a2.5,2.5,0,0,0-1.44,3.29,1.759,1.759,0,0,1,1.14-1.39,1.462,1.462,0,0,1,.7-.12,2.4,2.4,0,0,0,3.34.84c1.14-.86,1.98-.14,2.51.76a5.565,5.565,0,0,0,4.3,2.72c.02.07.03.14.05.21a1.8,1.8,0,0,0,.81,1.01,1.675,1.675,0,0,1-.41.47,1.865,1.865,0,0,1-1.77.3,2.55,2.55,0,0,0,3.57.42,2.084,2.084,0,0,0,.45-.44,1.753,1.753,0,0,0,.9-.09,2.05,2.05,0,0,0,1.41-1.52c1.55.16,2.99.3,4.31.42a12.659,12.659,0,0,1,4.69,1.54,11.4,11.4,0,0,1,4.2,3.98,9.047,9.047,0,0,0-.19-2.87c2.61.85,5.54.81,7.09-1.52-1.1.21-1.82-1.11-.81-2.43a5.643,5.643,0,0,0,.95-4.98c1.14,2.27.92,3.89.5,4.76,3.33.09,6.13-1.01,12.37-6.05,4.71-3.8,8.26-5.28,10.54-5.9-1.38,3.23,1.76,4.92,5.82,5.27,1.62.25,3.23.34,3.75.53.25.11.88.29,1.63.5a1.337,1.337,0,0,1,.43,1.2,10.667,10.667,0,0,1-10.31-.5c-2.54-1.64-3.91-1.14-4.65-.25a2.522,2.522,0,0,0-2.6,2.5,1.869,1.869,0,0,1,1.6-.85,1.548,1.548,0,0,1,.52.1,1.868,1.868,0,0,0,.41,1.48l.11.11a2.231,2.231,0,0,0-.25.59,1.8,1.8,0,0,0-.06.32,1.108,1.108,0,0,0-.29.14,2.506,2.506,0,0,0-.91,3.48,1.786,1.786,0,0,1,.87-1.55,1.808,1.808,0,0,1,.74-.22,2.424,2.424,0,0,0,.14.2,1.817,1.817,0,0,0,.9.61,1.6,1.6,0,0,0,.21.05,7.394,7.394,0,0,0,.22.98,2.566,2.566,0,0,0,1.18,3.43,1.78,1.78,0,0,1-.12-1.81,1.574,1.574,0,0,1,.41-.5c1.31.7,3.11-.49,3.33-.69,5.39-4.72,7.71-.54,9.76-.79a1.906,1.906,0,0,1,.16.59,1.826,1.826,0,0,1-.64,1.63,2.484,2.484,0,0,0,2.15-2.83l-.03-.16a2.094,2.094,0,0,0,.71-1.51,10.923,10.923,0,0,0,3.06-1.49,3.094,3.094,0,0,1,.07,2.75A4.586,4.586,0,0,0,84.96,212a4.254,4.254,0,0,1,.44,3,4.66,4.66,0,0,0,1.61-4.11l-.02-.21c-.25-1.84,1.01-2.07,1.7-2.07l.46.04c-1.23-1.48-4.12-1.27-5.56-1.27-2.04.02-2.81-1.23-2.08-2.02,0,0-.81-.55-2.04-1.24a63.391,63.391,0,0,0,7.16,1.95c5.41.92,6.82-.51,8.8-2.25a10.7,10.7,0,0,1,3.55-2.48c-1.96,2.51.13,5.61.28,7.09.19,1.86-1.21,1.89-2.52,1.92-2.33.04-3.15.72-3.29,1.6a1.918,1.918,0,0,0-.48.19,2.545,2.545,0,0,0-1.03,3.5,1.757,1.757,0,0,1,.95-1.54,1.887,1.887,0,0,1,.69-.2,1.683,1.683,0,0,0,1.29,1.79,1.827,1.827,0,0,0,.73.06,1.8,1.8,0,0,0,.18,1.12,1.611,1.611,0,0,0,.61.63l-.06.18a2.562,2.562,0,0,0,1.72,3.19,1.842,1.842,0,0,1-.4-1.78,1.714,1.714,0,0,1,.52-.79,1.767,1.767,0,0,0,1.78-.17,2.251,2.251,0,0,0,.82-1.01,2.109,2.109,0,0,0,.94.66,2.3,2.3,0,0,0,1.32.09,1.31,1.31,0,0,0,.12.28,2.555,2.555,0,0,0,3.47,1.07,1.838,1.838,0,0,1-1.55-.95,1.816,1.816,0,0,1-.14-1.21l.17-.09c.72-.45,1.69-1.51.66-3.48-1.32-2.54-2.36-2.16-1.79-4.67.17-.77.64-1.73,1.01-2.88a2.485,2.485,0,0,0,1.42-.75,1.213,1.213,0,0,1,.3.11,1.931,1.931,0,0,1,1.05,1.44,2.513,2.513,0,0,0-.89-3.18Z" fill="#15295e"/>
    <path id="Path_12" data-name="Path 12" d="M25.91,156.08c-.48.84-.83,1.51-.83,1.51a13.629,13.629,0,0,1-.07-7.96,9.56,9.56,0,0,0-1.13.83c.16-.97.38-1.85.6-2.68-6.72-2.86-11.28-5.29-10.71-9.59.24-1.7,1.53-3.02.78-4.56a2.343,2.343,0,0,0-.68-.84,1.939,1.939,0,0,0-.13-.54,2.536,2.536,0,0,0-3.29-1.54,1.777,1.777,0,0,1,1.39,1.17,1.6,1.6,0,0,1,.09.64,1.958,1.958,0,0,0-1.02.82,1.708,1.708,0,0,0-.71-.62,1.8,1.8,0,0,0-1.02-.12,2.4,2.4,0,0,0-.77-.75,2.518,2.518,0,0,0-3.5.89,1.789,1.789,0,0,1,1.79.02,1.639,1.639,0,0,1,.71.81,1.836,1.836,0,0,0-.36.53,1.639,1.639,0,0,0-.04,1.3,1.685,1.685,0,0,0-.95.16,2.468,2.468,0,0,0-.85-.2,2.548,2.548,0,0,0-2.63,2.5,1.742,1.742,0,0,1,1.58-.85,1.551,1.551,0,0,1,.99.38c-.68,1.45.75,3.55,2.75,4.01,3.55.79,1.88,4.61,1.8,4.93a1.282,1.282,0,0,0,.11,1,1.8,1.8,0,0,1-.69.35,1.861,1.861,0,0,1-1.7-.41,2.491,2.491,0,0,0,3.09,1.75,3.193,3.193,0,0,0,.68-.3,2.349,2.349,0,0,0,1.25.36,2.061,2.061,0,0,0,2.08-1.65l.23.15c4.68,3.25,3.87,8.3,7.23,11.05a4.676,4.676,0,0,1,.46-3.11,4.42,4.42,0,0,0,3.94,3.21,16.458,16.458,0,0,1-.47-2.65Z" fill="#15295e"/>
    <path id="Path_13" data-name="Path 13" d="M30.86,165.56a7.256,7.256,0,0,0-.96-3.05,6.859,6.859,0,0,1-.6-3.64,9.2,9.2,0,0,0-1.08,1.91,10.47,10.47,0,0,1-1.23-7.77,7.939,7.939,0,0,0-1.42,1.63,10.658,10.658,0,0,1,1.01-6.79,5.177,5.177,0,0,0-1.58.8,13.238,13.238,0,0,1,2.4-5.19,6.79,6.79,0,0,0-1.76.56,18.131,18.131,0,0,1,4.65-7.59,1.869,1.869,0,0,1-1.82-1.79,4.506,4.506,0,0,0-1.23-2.86c1.95.48,1.91.13,3.34.26a2.352,2.352,0,0,1,1.73.88A7.952,7.952,0,0,1,34,131.31a5.73,5.73,0,0,0-.39,1.54,10.73,10.73,0,0,1,2.88-2.74,6.214,6.214,0,0,0-.59,1.88c.79-.82,2.88-2.74,5.07-2.14-1.86.63-1.88,3.2-.21,3.63a1.458,1.458,0,0,0,1.81-1.02,1.885,1.885,0,0,0,0-.67,5.6,5.6,0,0,1,1.16,3.7,4.719,4.719,0,0,0,.44-1.64,6.82,6.82,0,0,1,.73,2.27,2.34,2.34,0,0,1,2.07-.01c1.28.55,1.07.85,3.03,1.32a4.789,4.789,0,0,0-2.42,1.98,1.924,1.924,0,0,1-2.63.64,17.944,17.944,0,0,1,.53,8.9,7.23,7.23,0,0,0-1.3-1.3,12.226,12.226,0,0,1-.31,5.61,4.508,4.508,0,0,0-1.14-1.44,11.588,11.588,0,0,1-2.46,6.75,10.369,10.369,0,0,0-.34-1.87,11.153,11.153,0,0,1-4.64,5.88,9.077,9.077,0,0,0-.13-1.83,7.166,7.166,0,0,1-2.06,2.57,7.036,7.036,0,0,0-2.22,2.27Zm14.46-27.23s-.44-.09-.36-.66a1,1,0,0,1,1.24-.71,3.376,3.376,0,0,1,.96.45s-1.25-.43-1.32.49c-.05.56-.51.43-.52.43Zm-15.61-5.25s1.28.18.95,1.05c-.23.52.19.62.2.62s.41.13.59-.4a1,1,0,0,0-.71-1.24,3.318,3.318,0,0,0-1.03-.03Zm6.89,11.39a.777.777,0,0,1,.94-.39,1.1,1.1,0,0,1,.42.21,1.4,1.4,0,0,0,.4-.55c.5-1.2-1-.38-1.9-.6-.87-.23-1.82-1.62-1.95-.37a1.208,1.208,0,0,0,.12.71.9.9,0,0,1,.46,0,.714.714,0,0,1,.62.77.532.532,0,0,1-.42.38,1.8,1.8,0,0,0,.68.38c-.26.7-.84,1.66-2.02.7-1.29-1.12-2.49-1.63-3.29-1.26.48-.02,2.09.4,1.52,3.2a6.559,6.559,0,0,0,.2,4.61c.01.02.25-.69.67-.92a4.349,4.349,0,0,0,.55,3.11,4.269,4.269,0,0,0,2.03-2.51,2.42,2.42,0,0,1,.16,1.18,6.278,6.278,0,0,0,2.34-3.99c.83-2.72,2.44-2.35,2.88-2.1-.55-.7-1.84-.81-3.5-.45-1.51.32-1.57-.8-1.48-1.54a1.612,1.612,0,0,0,.76-.01.63.63,0,0,1-.19-.56Zm3.08-2.09a9.745,9.745,0,0,0-1.67-.75c-.11-.29-.11-.7.04-.77.39-.13.45.86,1.12.57l2.78-1.28c-.08.99-1.62,1.14-1.14,2.01a1.538,1.538,0,0,1-1.13.22Zm-6.61-4.43c-.41.9.85,1.73.04,2.3a1.5,1.5,0,0,0,.86.74,10.447,10.447,0,0,1,1.84.11c.26-.22.44-.57.32-.72-.29-.31-.78.56-1.23-.02Z" fill="#15295e"/>
    <path id="Path_14" data-name="Path 14" d="M34.44,146.73a1.993,1.993,0,0,0-.63,1.12,2.447,2.447,0,0,1-.02-1.32c-.29-.13-.56-.29-.89-.42.47.93-.39,3.26.34,4.64a3.5,3.5,0,0,1,.48-.99l-.06.19a1.755,1.755,0,0,0,.2,1.45,1.631,1.631,0,0,0,.49.2,1.558,1.558,0,0,0,.52.05,1.751,1.751,0,0,0,.85-1.18l.04-.19a3.835,3.835,0,0,1,0,1.07c1.27-.84,1.63-3.31,2.46-3.93-.32-.04-.66-.02-.99-.04a2.737,2.737,0,0,1-.65,1.17,2.009,2.009,0,0,0-.02-1.27,1.536,1.536,0,0,1-.9-.88,1.631,1.631,0,0,1-1.22.33Z" fill="#15295e"/>
    <path id="Path_15" data-name="Path 15" d="M106.86,156.5a2.39,2.39,0,0,0-1.05-1.57,4.974,4.974,0,0,0,1.76-3.48,5.184,5.184,0,0,1-2.42,1.36,7.667,7.667,0,0,0,2.26-4.73c-2.75,4.21-5.99.07-12.18,3.18a6.614,6.614,0,0,1-4.89.27c11.37-1.93,15.43-8.71,11.48-11.33-1.77-1.15-4.87-.98-8.82.56a81.5,81.5,0,0,1-9.44,3.09c-2.47.34-4.28.13-5.91-1.58a2.3,2.3,0,0,0,1,2.26,5.947,5.947,0,0,1-4.46-3.26c-.82,2.28.55,3.34.55,3.34-3.56-1.12-2.91-4.58-6.25-4.75a1.8,1.8,0,0,1,.81,1.42,1.709,1.709,0,0,1-1.71,1.74c-.11,0-.22-.01-.36-.02H67.2c-.82-.11-2-.61-2.12-2.76l-.01-.34c.04-1.89,1.68-3.5,4.04-4.15.47-.12.93-.22,1.35-.31a13.591,13.591,0,0,1,3.97.32c2.44.52,4.87,1.96,7.23.98a2.957,2.957,0,0,1-2.48-1.8c5.16,1.49,6.33-1.72,6.33-1.72a4.6,4.6,0,0,1-3.79.2c4.2-2.34.94-6.55.94-6.55s1.45,5.52-7.55,5.76c-5.26.14-8.81,1.07-10.68,3.36a5.636,5.636,0,0,0-1.61,4.18,5.705,5.705,0,0,0,.77,2.67c-.54.2-1.79.27-3.8-1.11.62,1.53,3,4.03,9.44,4.97,8.17,1.82,17.07-.88,24.57-3.85,2.88-1.13,4.78-1.28,5.91-1.09a1.429,1.429,0,0,1,1.12,1.36,2.721,2.721,0,0,1-.13.79,5.519,5.519,0,0,1-.53.74c-2.44,3-10.18,6.68-23.86,4.58-2.96-.41-5.37-.52-8.76-.68-8.21-.41-18.3,1.44-22.43,2.31a20.413,20.413,0,0,1-.84,4.87,14.333,14.333,0,0,0-1-1.78,13.609,13.609,0,0,1-3.57,7.47s-.03-.87-.12-1.88a17.46,17.46,0,0,1-5.17,5.14s.08-.49.16-1.19a11.134,11.134,0,0,1-1.96,1.98,7.256,7.256,0,0,0-2.15,2.63l-.28.58-.05-.66a11.619,11.619,0,0,0-1.23-4.36,14.613,14.613,0,0,1-.52-1.47c-.21.5-.34.88-.34.88a12.422,12.422,0,0,1-1.04-2.18l-.75.34c-1.92.67-11.7,4.06-11.55-2.2.08-3.83-1.45-4.52-2.45-4.55a1.536,1.536,0,0,0-.25-.32,2.565,2.565,0,0,0-3.61-.14,1.746,1.746,0,0,1,1.72.54,2.16,2.16,0,0,1,.27.44,2.176,2.176,0,0,0-.64.85,2.956,2.956,0,0,0-2.53.55,2.321,2.321,0,0,0-.84-.06,2.55,2.55,0,0,0-2.26,2.83,1.757,1.757,0,0,1,2.35-.93,1.467,1.467,0,0,0-.1.56,2.208,2.208,0,0,0,.66,1.57,2.023,2.023,0,0,0-1.06,1.4c-.04.18-.05.36-.11.55a2.506,2.506,0,0,0-1.44,3.3,1.745,1.745,0,0,1,1.14-1.39,1.581,1.581,0,0,1,.7-.11,2.4,2.4,0,0,0,3.34.83c1.14-.85,1.98-.14,2.51.76a5.514,5.514,0,0,0,4.3,2.72c.02.07.03.14.05.21a1.8,1.8,0,0,0,.81,1.01,1.827,1.827,0,0,1-.41.47,1.892,1.892,0,0,1-1.77.3,2.56,2.56,0,0,0,3.57.42,2.628,2.628,0,0,0,.45-.43,1.753,1.753,0,0,0,.9-.09,2.065,2.065,0,0,0,1.41-1.52c1.55.16,2.99.3,4.31.42a12.872,12.872,0,0,1,4.69,1.55,11.32,11.32,0,0,1,4.2,3.98,9.089,9.089,0,0,0-.19-2.88c2.61.86,5.54.82,7.09-1.52-1.1.21-1.82-1.11-.81-2.43a5.644,5.644,0,0,0,.95-4.98c1.14,2.26.92,3.89.5,4.75,3.33.08,6.13-1.02,12.37-6.06,4.71-3.79,8.26-5.28,10.54-5.9-1.38,3.23,1.76,4.92,5.82,5.27,1.62.25,3.23.34,3.75.53.25.1.88.29,1.63.5a1.342,1.342,0,0,1,.43,1.2,10.667,10.667,0,0,1-10.31-.5c-2.54-1.63-3.91-1.14-4.65-.25a2.522,2.522,0,0,0-2.6,2.5,1.838,1.838,0,0,1,1.6-.84,1.561,1.561,0,0,1,.52.11,1.846,1.846,0,0,0,.41,1.47l.11.11a2.311,2.311,0,0,0-.25.58,1.8,1.8,0,0,0-.06.32,2.589,2.589,0,0,0-.29.14,2.506,2.506,0,0,0-.91,3.48,1.718,1.718,0,0,1,1.61-1.77,1.33,1.33,0,0,0,.14.19,1.835,1.835,0,0,0,.9.62.8.8,0,0,0,.21.05,7.394,7.394,0,0,0,.22.98,2.575,2.575,0,0,0,1.18,3.44,1.78,1.78,0,0,1-.12-1.81,1.574,1.574,0,0,1,.41-.5c1.31.7,3.11-.5,3.33-.69,5.39-4.72,7.71-.54,9.76-.79a1.906,1.906,0,0,1,.16.59,1.8,1.8,0,0,1-.64,1.62,2.484,2.484,0,0,0,2.15-2.83l-.03-.17a2.094,2.094,0,0,0,.71-1.51,11.146,11.146,0,0,0,3.06-1.48,3.091,3.091,0,0,1,.07,2.75,4.6,4.6,0,0,0,1.57-4.14,4.254,4.254,0,0,1,.44,3,4.66,4.66,0,0,0,1.61-4.11l-.02-.21c-.25-1.84,1.01-2.08,1.7-2.07l.46.03c-1.23-1.46-4.12-1.27-5.56-1.26-2.04.02-2.81-1.23-2.08-2.02,0,0-.81-.55-2.04-1.24a63.391,63.391,0,0,0,7.16,1.95c5.41.92,6.82-.5,8.8-2.26a10.81,10.81,0,0,1,3.55-2.47c-1.96,2.51.13,5.61.28,7.09.19,1.86-1.21,1.89-2.52,1.92-2.33.05-3.15.72-3.29,1.6a1.636,1.636,0,0,0-.48.2,2.542,2.542,0,0,0-1.03,3.5,1.757,1.757,0,0,1,.95-1.54,1.7,1.7,0,0,1,.69-.19,1.672,1.672,0,0,0,1.29,1.78,1.836,1.836,0,0,0,.73.07,1.82,1.82,0,0,0,.18,1.12,1.652,1.652,0,0,0,.61.62l-.06.18a2.552,2.552,0,0,0,1.72,3.18,1.829,1.829,0,0,1-.4-1.77,1.694,1.694,0,0,1,.52-.8,1.767,1.767,0,0,0,1.78-.17,2.251,2.251,0,0,0,.82-1.01,2.126,2.126,0,0,0,.94.67,2.3,2.3,0,0,0,1.32.09,1.31,1.31,0,0,0,.12.28,2.563,2.563,0,0,0,3.47,1.07,1.859,1.859,0,0,1-1.55-.95,1.823,1.823,0,0,1-.14-1.21l.17-.09c.72-.44,1.69-1.51.66-3.48-1.32-2.54-2.36-2.15-1.79-4.66.17-.78.64-1.73,1.01-2.88a2.5,2.5,0,0,0,1.42-.76,1.213,1.213,0,0,1,.3.11,1.914,1.914,0,0,1,1.05,1.44,2.484,2.484,0,0,0-.89-3.15Z" fill="#15295e"/>
  </g>
</svg>
