<svg xmlns="http://www.w3.org/2000/svg" width="373.56" height="341.88" viewBox="0 0 373.56 341.88">
  <g id="Pakistan" transform="translate(-376 -1047.08)">
    <g id="Group_1" data-name="Group 1">
      <path id="Path_2" data-name="Path 2" d="M376,1181c44.14-.51,88.28-1.11,132.43-1.41,4.82-.03,6.81-1.69,8.37-6.07,14.24-40.11,28.71-80.14,43.12-120.19.6-1.66,1.2-3.31,2.28-6.25,5.92,17.14,11.37,32.91,16.81,48.69,9,26.09,18.08,52.15,26.88,78.31,1.28,3.81,2.91,5.01,6.97,5.03,44.31.2,88.63.64,132.94,1.01a6.34,6.34,0,0,1,3.76.93c-1.41.97-2.79,1.97-4.22,2.92q-53.895,35.745-107.86,71.41c-3.3,2.17-3.77,4.02-2.49,7.63q21.375,60.15,42.45,120.42c.54,1.53,1.01,3.08,1.82,5.53-2.23-1.46-3.7-2.38-5.12-3.37q-54.06-37.755-108.05-75.6c-3.09-2.17-5.15-2.18-8.28-.08q-54.3,36.495-108.8,72.7c-1.58,1.05-3.34,1.83-5.85,3.19,13.73-41.12,27.04-81.22,40.62-121.24,1.6-4.7,1.03-7.11-3.24-10.07-33.54-23.21-66.86-46.75-100.27-70.16a43.762,43.762,0,0,0-4.26-2.33C376,1181.67,376,1181.33,376,1181Zm250.28,38.55c-1.65,3.76-3.04,6.68-4.22,9.68-.91,2.31-1.15,4.99-2.45,7.01a6.462,6.462,0,0,1-4.71,2.59c-1,0-2.63-2.28-2.89-3.73a50.347,50.347,0,0,1-.48-9.44c.11-8.65.81-17.32.41-25.95-.43-9.38-5.48-12.09-13.77-7.55a137.307,137.307,0,0,0-17.04,11.28c-5.6,4.25-6.67,8.58-3.78,14.95a77,77,0,0,0,7.2,11.91c3.05,4.36,6.62,8.36,9.68,12.71,1.43,2.03,2.22,4.52,3.43,7.09-1.55.47-2.19.88-2.76.81-5.53-.71-10.4.34-14.82,4.14-1.11.95-4.27.63-5.82-.26-3.19-1.82-5.76-1.86-8.73.3-1.19.86-3.34,1.7-4.4,1.19a10.317,10.317,0,0,0-10.41.34c-1.38.78-3.42.4-6.06.63.68-5.6,1.14-10.51,1.91-15.37,1.6-10.02,3.6-19.97,1.53-30.22-2.88-14.29-19.23-23.38-31.85-17.52-7.19,3.34-8.61,8.2-4.23,14.64,3.37,4.95,7.08,9.7,10.1,14.86,5.74,9.78,4.53,25.91-2.72,33.81-2.02,2.2-5.75,4.52-8.32,4.15-3.82-.55-5.24-4.54-5.16-8.61.07-3.49.26-7.08-.43-10.45-.36-1.77-2.49-3.18-3.82-4.75-1.58,1.61-4.35,3.1-4.52,4.85a63.966,63.966,0,0,0,.16,16.36c1.33,8.23,7.24,12.75,15.09,12.11,9.89-.8,16.45-6.73,19.5-15.61,4.99-14.53,4.62-28.83-5.03-41.8-2.72-3.66-5.45-7.32-8.36-11.23,13.97-2.33,22.04,3.96,21.44,17.14-.52,11.41-2.29,22.77-3.61,34.13-.49,4.22-1.15,8.5,2.79,11.46,3.67,2.75,7.56,1.4,11.79.9,6.88-.82,13.82-.9,20.53-3.03.79-.25,1.88.52,2.86.74a13.874,13.874,0,0,0,11.83-2.22,11.02,11.02,0,0,1,6.75-1.56c6.7.52,11.88-.88,13.14-5.62,1.56-5.85,4.72-6.54,10.01-6.35,8.93.31,18.12-16.39,13.73-24.33C629.12,1222.48,627.96,1221.51,626.28,1219.55Zm-2.76,28.39c-2.03,2.54-4.09,4.01-4.18,5.59-.06,1.15,2.42,3.27,3.89,3.39,1.08.08,3.02-2.24,3.34-3.75C626.81,1252.02,625.09,1250.47,623.52,1247.94Zm-108.91-16c-2.59-1.91-4.29-3.92-5.1-3.61-1.72.65-2.97,2.52-4.42,3.89,1.3.98,2.57,2.7,3.89,2.75C510.42,1235.02,511.9,1233.5,514.61,1231.94Zm45,10.57c-2.87-1.86-4.3-3.47-5.78-3.53-1.23-.05-2.53,1.73-3.8,2.69,1.15,1.39,2.11,3.59,3.51,3.93C554.8,1245.91,556.55,1244.17,559.61,1242.51Zm59.96,13.44c-3.02-1.58-4.59-3.05-6.1-2.99-1.19.05-2.31,1.98-3.45,3.08,1.28,1.27,2.44,3.37,3.87,3.57C615.16,1259.8,616.73,1257.89,619.57,1255.95Zm-50.43-14.37c-3.11-1.45-4.77-2.88-6.26-2.71-1.16.13-3.07,2.45-2.87,3.45.27,1.34,2.27,3.3,3.47,3.26C564.94,1245.52,566.34,1243.67,569.14,1241.58Zm51.78,26.65c2.05-2.7,3.89-4.06,3.88-5.41-.01-1.29-1.93-2.57-3.01-3.86-1.26,1.26-3.07,2.33-3.58,3.84C617.88,1263.79,619.44,1265.41,620.92,1268.23Z" fill="#ad861f"/>
      <path id="Path_3" data-name="Path 3" d="M626.28,1219.55c1.69,1.96,2.85,2.93,3.53,4.17,4.39,7.94-4.8,24.64-13.73,24.33-5.29-.18-8.45.5-10.01,6.35-1.26,4.73-6.45,6.13-13.14,5.62a11.019,11.019,0,0,0-6.75,1.56,13.913,13.913,0,0,1-11.83,2.22c-.97-.22-2.06-.99-2.86-.74-6.71,2.14-13.64,2.22-20.53,3.03-4.23.5-8.12,1.85-11.79-.9-3.95-2.96-3.29-7.24-2.79-11.46,1.32-11.37,3.09-22.72,3.61-34.13.6-13.17-7.47-19.46-21.44-17.14,2.91,3.91,5.64,7.57,8.36,11.23,9.65,12.97,10.02,27.27,5.03,41.8-3.05,8.88-9.61,14.81-19.5,15.61-7.85.64-13.76-3.88-15.09-12.11a64.423,64.423,0,0,1-.16-16.36c.17-1.75,2.94-3.24,4.52-4.85,1.33,1.57,3.46,2.98,3.82,4.75.69,3.38.5,6.96.43,10.45-.08,4.08,1.34,8.07,5.16,8.61,2.57.37,6.3-1.94,8.32-4.15,7.25-7.91,8.46-24.04,2.72-33.81-3.02-5.15-6.74-9.9-10.1-14.86-4.38-6.44-2.96-11.3,4.23-14.64,12.62-5.86,28.97,3.23,31.85,17.52,2.06,10.24.06,20.19-1.53,30.22-.77,4.86-1.23,9.77-1.91,15.37,2.64-.23,4.68.16,6.06-.63a10.317,10.317,0,0,1,10.41-.34c1.07.51,3.22-.33,4.4-1.19,2.96-2.16,5.53-2.12,8.73-.3,1.56.89,4.71,1.22,5.82.26,4.42-3.8,9.28-4.84,14.82-4.14.58.07,1.21-.34,2.76-.81-1.22-2.57-2-5.06-3.43-7.09-3.07-4.35-6.63-8.35-9.68-12.71a75.47,75.47,0,0,1-7.2-11.91c-2.89-6.37-1.82-10.7,3.78-14.95a139.6,139.6,0,0,1,17.04-11.28c8.29-4.54,13.34-1.83,13.77,7.55.4,8.62-.3,17.29-.41,25.95a50.352,50.352,0,0,0,.48,9.44c.26,1.45,1.89,3.73,2.89,3.73a6.462,6.462,0,0,0,4.71-2.59c1.3-2.02,1.54-4.7,2.45-7.01C623.23,1226.23,624.62,1223.31,626.28,1219.55Zm-25.48,17.23c.59-.15,1.19-.29,1.78-.44V1199.6c-5.58,3.49-11.04,6.58-16.03,10.3-1.09.82-1.41,4.48-.54,5.83C590.67,1222.92,595.82,1229.8,600.8,1236.78Z" fill="#fcfbf8"/>
      <path id="Path_4" data-name="Path 4" d="M623.52,1247.94c1.57,2.53,3.29,4.08,3.05,5.22-.32,1.51-2.26,3.84-3.34,3.75-1.47-.11-3.95-2.24-3.89-3.39C619.43,1251.95,621.49,1250.47,623.52,1247.94Z" fill="#f9f7f1"/>
      <path id="Path_5" data-name="Path 5" d="M514.61,1231.94c-2.71,1.56-4.19,3.08-5.62,3.04-1.33-.04-2.6-1.76-3.89-2.75,1.44-1.37,2.7-3.24,4.42-3.89C510.33,1228.02,512.02,1230.03,514.61,1231.94Z" fill="#f8f5ed"/>
      <path id="Path_6" data-name="Path 6" d="M559.61,1242.51c-3.05,1.66-4.81,3.39-6.07,3.09-1.41-.34-2.36-2.54-3.51-3.93,1.27-.97,2.57-2.74,3.8-2.69C555.31,1239.04,556.73,1240.65,559.61,1242.51Z" fill="#f7f4ec"/>
      <path id="Path_7" data-name="Path 7" d="M619.57,1255.95c-2.84,1.94-4.41,3.85-5.69,3.67-1.43-.2-2.59-2.3-3.87-3.57,1.15-1.1,2.26-3.03,3.45-3.08C614.98,1252.9,616.55,1254.37,619.57,1255.95Z" fill="#f7f4ec"/>
      <path id="Path_8" data-name="Path 8" d="M569.14,1241.58c-2.8,2.1-4.2,3.94-5.66,4-1.2.04-3.2-1.91-3.47-3.26-.2-1,1.71-3.32,2.87-3.45C564.37,1238.69,566.03,1240.13,569.14,1241.58Z" fill="#fbf9f5"/>
      <path id="Path_9" data-name="Path 9" d="M620.92,1268.23c-1.49-2.81-3.04-4.44-2.71-5.43.51-1.51,2.32-2.58,3.58-3.84,1.08,1.29,3,2.57,3.01,3.86C624.81,1264.17,622.98,1265.53,620.92,1268.23Z" fill="#fcfbf8"/>
      <path id="Path_10" data-name="Path 10" d="M600.8,1236.78c-4.98-6.99-10.13-13.86-14.79-21.06-.87-1.35-.55-5.01.54-5.83,4.99-3.72,10.45-6.8,16.03-10.3v36.74C601.99,1236.49,601.4,1236.64,600.8,1236.78Z" fill="#ae8823"/>
    </g>
  </g>
</svg>
