<svg xmlns="http://www.w3.org/2000/svg" width="364.872" height="384" viewBox="0 0 364.872 384">
  <g id="Group_1" data-name="Group 1" transform="translate(-42.564 -33)">
    <g id="Group">
      <path id="Path_1" data-name="Path 1" d="M300.587,315.19c-12.094,0-6.067-28.179-6.067-32.24,1.027-2.006-9.051-121.916-9.051-121.916,1.028-4.062,3.024-9.1,10.078-9.1h2.006c16.145,0,30.235-13.1,30.235-29.207,0-16.145-13.1-29.257-30.235-29.257-16.1,0-30.235,13.112-30.235,29.257a27.3,27.3,0,0,0,1.028,9.051s6.017,15.117-7.054,13.111c0,0-113.884,39.285-118.923,40.313-14.14,25.2-50.391,12.094-61.5,4.011-3.024-4.011-9.051-7.044-16.1-7.044A22.373,22.373,0,0,0,42.564,204.34c1.028,11.1,11.106,21.174,23.2,21.174,4.062,0,9.1-1.028,12.094-3.023,18.141-9.071,51.409-3.044,55.43,13.1v1.028c1.008,2.983,24.188,49.363,27.222,53.374C175.627,318.223,138.3,329.33,138.3,329.33c-10.078,0-19.128,9.05-19.128,20.156a22.162,22.162,0,1,0,44.324-.01c3.033-23.18,15.117-38.3,37.329-39.325,2.984,1.028,57.436-2.983,61.447-4.011,16.146,3.023,7.055,16.145,7.055,38.3,0,16.1,13.1,29.227,30.235,29.227,16.135,0,30.234-13.122,30.234-29.227,1.018-16.125-12.094-29.247-29.216-29.247Z" fill="#fff"/>
      <path id="Path_2" data-name="Path 2" d="M367.123,167.06c-9.1,0-16.145,4.052-19.179,12.074-9.05,13.112-28.219,16.145-40.313,10.078-2.005-5.039-129-39.285-129-38.257-16.105,9.051-31.222-19.178-30.234-32.29v-.978a27.839,27.839,0,0,0,1.017-9.1c0-16.1-13.1-29.207-30.234-29.207-16.146,0-30.235,13.1-30.235,29.207,0,13.111,9.05,23.19,19.129,28.229,17.173,7.054,40.312,27.211,38.307,41.34,7.055,12.084-9.05,74.559-8.063,79.6-9.06,9.1-27.211,7.055-34.256,4.062-3.023-4.062-9.05-6.067-15.117-6.067-16.145,0-30.234,13.1-30.234,29.206,0,16.146,13.1,29.257,30.234,29.257a28.747,28.747,0,0,0,24.168-12.094c9.1-13.1,24.218-25.2,37.329-25.2,2.006,2.993,164.235-60.469,164.235-61.487,1.028-6.067,25.2-12.094,46.38-7.055h6.067a22.362,22.362,0,0,0,22.162-22.152c0-12.134-10.078-19.179-22.172-19.179Z" fill="#fff"/>
      <path id="Path_3" data-name="Path 3" d="M315.7,225.514a90.7,90.7,0,1,1-90.7-90.7A90.724,90.724,0,0,1,315.7,225.514Z" fill="#fff"/>
      <path id="Path_4" data-name="Path 4" d="M248.18,311.179c3.044-6.067-8.063-8.063-17.113-8.063-9.1,0-18.151,5.039-16.145,11.086,24.167,36.262,6.067,41.3-5.039,48.4-9.051,4.011-15.118,15.117-15.118,25.2,0,16.1,13.1,29.207,30.235,29.207s30.235-13.1,30.235-29.207C256.263,359.564,238.1,320.229,248.18,311.179Zm126.965-56.458c-6.017,0-12.084,1.028-16.1,4.061-18.151,7.045-34.3-6.067-46.38-14.14-6.016-4.011-13.1,6.068-15.117,9.1s-5.039,17.123,7.055,17.123c20.156-7.055,45.352,28.219,45.352,28.219,4.051,10.078,15.117,16.105,27.241,16.105,16.1,0,30.235-13.061,30.235-29.207C404.4,267.842,391.29,254.721,375.145,254.721ZM198.776,79.38c19.179,39.285,18.151,54.4,7.1,58.454-9.1,7.054,6.016,16.1,17.122,14.109,11.056-2.016,21.134-7.055,14.09-17.133-17.123-30.235,5.039-50.391,5.039-50.391,7.055-4.011,12.094-13.1,12.094-22.172C254.217,46.122,241.145,33,223.982,33c-17.133,0-30.235,13.112-30.235,29.257a31.323,31.323,0,0,0,3.024,13.1c0,2.993,0,2.993,2.016,4.021Z" fill="#fff"/>
      <path id="Path_5" data-name="Path 5" d="M208.855,225.514c-16.1,0-30.235-13.1-30.235-29.207,0-16.145,13.112-29.257,30.235-29.257,17.173,0,30.234,13.112,30.234,29.257C239.089,212.4,226.028,225.514,208.855,225.514Z" fill="#fff"/>
      <path id="Path_6" data-name="Path 6" d="M193.737,269.838c-9.05,0-15.117-6.017-15.117-15.117,0-9.051,6.067-15.118,15.117-15.118,9.1,0,15.118,6.067,15.118,15.118C208.855,263.821,202.838,269.838,193.737,269.838Z" fill="#fff"/>
      <path id="Path_7" data-name="Path 7" d="M247.172,285.983a22.157,22.157,0,1,0-.01,0Z" fill="#fff"/>
    </g>
  </g>
</svg>
