<svg id="virus-svgrepo-com" xmlns="http://www.w3.org/2000/svg" width="512" height="512" viewBox="0 0 512 512">
  <g id="Group_2" data-name="Group 2">
    <path id="Path_1" data-name="Path 1" d="M371.273,397.081,323.42,349.228c-17.048-17.048,8.734-42.882,25.807-25.807l47.853,47.854C414.13,388.322,388.344,414.153,371.273,397.081Z" fill="#fff"/>
    <path id="Path_2" data-name="Path 2" d="M437.27,274.249H369.594c-24.114,0-24.139-36.5,0-36.5H437.27C461.384,237.751,461.409,274.249,437.27,274.249Z" fill="#fff"/>
    <path id="Path_3" data-name="Path 3" d="M323.42,162.772l47.853-47.853c17.05-17.052,42.876,8.739,25.807,25.807L349.227,188.58C332.176,205.632,306.351,179.841,323.42,162.772Z" fill="#fff"/>
  </g>
  <g id="Group_3" data-name="Group 3">
    <path id="Path_4" data-name="Path 4" d="M371.6,437.02h0a46.257,46.257,0,1,1,65.417,0A46.31,46.31,0,0,1,371.6,437.02Z" fill="#fff"/>
    <path id="Path_5" data-name="Path 5" d="M465.743,302.256A46.257,46.257,0,1,1,512,256,46.308,46.308,0,0,1,465.743,302.256Z" fill="#fff"/>
    <path id="Path_6" data-name="Path 6" d="M371.6,140.4a46.257,46.257,0,1,1,65.417,0h0A46.308,46.308,0,0,1,371.6,140.4Z" fill="#fff"/>
    <path id="Path_7" data-name="Path 7" d="M256,160.653A18.25,18.25,0,0,1,237.751,142.4V74.73c0-24.114,36.5-24.139,36.5,0v67.676A18.247,18.247,0,0,1,256,160.653Z" fill="#fff"/>
  </g>
  <path id="Path_8" data-name="Path 8" d="M256,56.481V160.654A18.25,18.25,0,0,0,274.249,142.4V74.73A18.249,18.249,0,0,0,256,56.481Z" fill="#fff"/>
  <path id="Path_9" data-name="Path 9" d="M237.751,437.27V369.594c0-24.114,36.5-24.139,36.5,0V437.27C274.249,461.384,237.751,461.409,237.751,437.27Z" fill="#fff"/>
  <path id="Path_10" data-name="Path 10" d="M256,351.346V455.519a18.25,18.25,0,0,0,18.249-18.249V369.594A18.249,18.249,0,0,0,256,351.346Z" fill="#fff"/>
  <g id="Group_4" data-name="Group 4">
    <path id="Path_11" data-name="Path 11" d="M162.772,188.58l-47.853-47.854c-17.048-17.048,8.734-42.881,25.807-25.807l47.853,47.853C205.629,179.821,179.843,205.652,162.772,188.58Z" fill="#fff"/>
    <path id="Path_12" data-name="Path 12" d="M142.406,274.249H74.73c-24.114,0-24.139-36.5,0-36.5h67.676C166.519,237.751,166.544,274.249,142.406,274.249Z" fill="#fff"/>
    <path id="Path_13" data-name="Path 13" d="M114.919,371.273l47.853-47.854c17.05-17.053,42.876,8.739,25.807,25.807l-47.853,47.853C123.816,413.991,97.633,388.56,114.919,371.273Z" fill="#fff"/>
  </g>
  <g id="Group_5" data-name="Group 5">
    <path id="Path_14" data-name="Path 14" d="M256,92.514a46.257,46.257,0,1,1,46.257-46.257A46.31,46.31,0,0,1,256,92.514Z" fill="#fff"/>
    <path id="Path_15" data-name="Path 15" d="M256,512a46.257,46.257,0,1,1,46.257-46.257A46.309,46.309,0,0,1,256,512Z" fill="#fff"/>
  </g>
  <path id="Path_16" data-name="Path 16" d="M256,419.486V512a46.257,46.257,0,0,0,0-92.514Z" fill="#fff"/>
  <g id="Group_6" data-name="Group 6">
    <path id="Path_17" data-name="Path 17" d="M74.98,140.4A46.257,46.257,0,0,1,140.4,74.98h0A46.257,46.257,0,1,1,74.98,140.4Z" fill="#fff"/>
    <path id="Path_18" data-name="Path 18" d="M46.257,302.256A46.257,46.257,0,1,1,92.512,256,46.309,46.309,0,0,1,46.257,302.256Z" fill="#fff"/>
    <path id="Path_19" data-name="Path 19" d="M74.98,437.02a46.229,46.229,0,0,1,0-65.417h0a46.257,46.257,0,1,1,0,65.417Z" fill="#fff"/>
    <path id="Path_20" data-name="Path 20" d="M256,387.843c-72.7,0-131.843-59.145-131.843-131.843S183.3,124.157,256,124.157,387.843,183.3,387.843,256,328.7,387.843,256,387.843Z" fill="#fff"/>
  </g>
  <g id="Group_7" data-name="Group 7">
    <path id="Path_21" data-name="Path 21" d="M256,0V92.514A46.257,46.257,0,0,0,256,0Z" fill="#fff"/>
    <path id="Path_22" data-name="Path 22" d="M256,124.156V387.844c72.7,0,131.843-59.145,131.843-131.843S328.7,124.156,256,124.156Z" fill="#fff"/>
    <path id="Path_23" data-name="Path 23" d="M256,314.947A58.947,58.947,0,1,1,314.947,256,59.014,59.014,0,0,1,256,314.947Z" fill="#fff"/>
  </g>
  <path id="Path_24" data-name="Path 24" d="M256,197.053V314.947a58.947,58.947,0,0,0,0-117.894Z" fill="#fff"/>
</svg>
