<svg xmlns="http://www.w3.org/2000/svg" xmlns:xlink="http://www.w3.org/1999/xlink" width="1929" height="1080.343" viewBox="0 0 1929 1080.343">
  <defs>
    <linearGradient id="linear-gradient" x1="0.532" y1="0.575" x2="0.535" gradientUnits="objectBoundingBox">
      <stop offset="0" stop-color="#97c2ee"/>
      <stop offset="1" stop-color="#63aaf2"/>
    </linearGradient>
    <filter id="Subtraction_2" x="0" y="874.5" width="1416.503" height="57" filterUnits="userSpaceOnUse">
      <feOffset dy="3" input="SourceAlpha"/>
      <feGaussianBlur stdDeviation="3" result="blur"/>
      <feFlood flood-opacity="0.161"/>
      <feComposite operator="in" in2="blur"/>
      <feComposite in="SourceGraphic"/>
    </filter>
  </defs>
  <g id="Group_1" data-name="Group 1" transform="translate(272.5 514.5)">
    <g id="Group_1-2" data-name="Group 1" transform="translate(-263.5 -514.5)">
      <g id="Component_2_1" data-name="Component 2 – 1" transform="translate(0 0)">
        <path id="Rectangle_2" data-name="Rectangle 2" d="M-.557-1.5,1919.5,0l-.068,1078.843L0,1076Z" transform="translate(0.5 1.5)" fill="url(#linear-gradient)"/>
        <path id="Subtraction_2-2" data-name="Subtraction 2" d="M1088.53,1340.5H323.473c-7.932-14.365-15.543-29.35-22.621-44.541-7.11-15.259-13.861-31.108-20.066-47.107-6.241-16.091-12.085-32.736-17.369-49.472-5.323-16.856-10.212-34.229-14.531-51.637C231.046,1075.84,222,1000.41,222,923.544c0-23.214.841-46.621,2.5-69.575,1.634-22.616,4.1-45.353,7.334-67.566,3.192-21.929,7.205-43.87,11.927-65.214,4.669-21.1,10.144-42.138,16.276-62.519,6.072-20.183,12.929-40.2,20.381-59.48,7.4-19.148,15.555-38.024,24.243-56.105,8.647-17.993,18.021-35.618,27.863-52.386,9.813-16.718,20.323-32.978,31.238-48.321s22.474-30.114,34.371-43.919c11.922-13.833,24.458-27.013,37.26-39.173A490.942,490.942,0,0,1,475.3,325.2a443.358,443.358,0,0,1,42.309-28.655,404.365,404.365,0,0,1,44.468-22.882c11.325-4.952,22.965-9.379,34.6-13.158H815.329c11.634,3.78,23.275,8.207,34.6,13.158A404.529,404.529,0,0,1,894.4,296.541,443.48,443.48,0,0,1,936.7,325.2a490.954,490.954,0,0,1,39.906,34.085c12.8,12.161,25.338,25.341,37.26,39.173,11.9,13.8,23.462,28.582,34.37,43.919s21.421,31.6,31.238,48.321c9.842,16.766,19.216,34.391,27.863,52.386,8.69,18.084,16.846,36.963,24.243,56.105,7.452,19.288,14.309,39.3,20.38,59.48,6.129,20.372,11.6,41.406,16.276,62.519,4.722,21.343,8.735,43.284,11.927,65.213,3.232,22.212,5.7,44.945,7.334,67.566,1.658,22.963,2.5,46.371,2.5,69.575,0,76.863-9.046,152.295-26.886,224.2-4.318,17.4-9.207,34.776-14.531,51.637-5.285,16.738-11.13,33.381-17.37,49.472-6.2,15.991-12.953,31.839-20.067,47.107-7.08,15.2-14.691,30.182-22.62,44.541Z" transform="translate(-148.5 -260.5)" fill="#fff" opacity="0.2"/>
        <g id="Component_1_2" data-name="Component 1 – 2" transform="translate(0.5 370.5)">
          <path id="Subtraction_10" data-name="Subtraction 10" d="M754.985,185.5H231V-334.8a390.485,390.485,0,0,1,81-28.284,393.811,393.811,0,0,1,43.263-7.391,397.768,397.768,0,0,1,84.714-.512c13.1,1.331,26.2,3.33,39.022,5.95A390.919,390.919,0,0,1,552.582-342.2a392.97,392.97,0,0,1,66.587,36.142A394.162,394.162,0,0,1,725.051-200.171a392.956,392.956,0,0,1,36.142,66.587A390.906,390.906,0,0,1,784.04-60c2.617,12.81,4.616,25.9,5.94,38.922a398.757,398.757,0,0,1,0,80.16c-1.324,13.011-3.323,26.1-5.941,38.918a390.89,390.89,0,0,1-22.84,73.583c-1.972,4.657-4.063,9.339-6.214,13.916h0Z" transform="translate(-231 524)" fill="#89a3f8"/>
          <path id="Subtraction_9" data-name="Subtraction 9" d="M1225.13,82.464H750.375a358.565,358.565,0,0,1-17.5-67.361,380.355,380.355,0,0,1-4.42-72.917,382.1,382.1,0,0,1,7.3-62.24,363.949,363.949,0,0,1,16.716-57.724,341.9,341.9,0,0,1,25.1-52.043,314.58,314.58,0,0,1,32.444-45.195A283.652,283.652,0,0,1,848.768-312.2a253.566,253.566,0,0,1,44.029-28,230.175,230.175,0,0,1,48.269-17.656A219.37,219.37,0,0,1,992.539-364c2.552,0,5.143.045,7.7.135a219.187,219.187,0,0,1,52.324,8.244,228.114,228.114,0,0,1,48.3,20.08,250.81,250.81,0,0,1,43.272,30.611,281.07,281.07,0,0,1,37.24,39.839,312.639,312.639,0,0,1,30.2,47.762,340.74,340.74,0,0,1,22.164,54.381,363.388,363.388,0,0,1,13.12,59.7,381.944,381.944,0,0,1,3.072,63.706,381.913,381.913,0,0,1-7.527,63.359,363.3,363.3,0,0,1-17.279,58.65Z" transform="translate(-318.156 625.037)" fill="#89a3f8"/>
          <path id="Subtraction_7" data-name="Subtraction 7" d="M1756.56,37.5H945.444c-.3-6.138-.444-12.362-.444-18.5a384.22,384.22,0,0,1,2.089-39.97,378.345,378.345,0,0,1,16.168-76.6,382.092,382.092,0,0,1,13.653-36.015,387.986,387.986,0,0,1,37.433-66.587,398.179,398.179,0,0,1,49.576-58.015A406.183,406.183,0,0,1,1124-306.053a410.772,410.772,0,0,1,68.965-36.142,414.6,414.6,0,0,1,76.21-22.841c13.252-2.618,26.815-4.617,40.312-5.94,13.7-1.343,27.662-2.024,41.511-2.024s27.816.681,41.511,2.024c13.5,1.323,27.06,3.322,40.312,5.94a414.59,414.59,0,0,1,76.21,22.841A410.776,410.776,0,0,1,1578-306.053a406.174,406.174,0,0,1,60.087,47.866,398.155,398.155,0,0,1,49.576,58.015,387.978,387.978,0,0,1,37.433,66.587,382.047,382.047,0,0,1,13.653,36.015,378.349,378.349,0,0,1,16.157,76.49A384.763,384.763,0,0,1,1757,19c0,6.142-.15,12.367-.444,18.5Z" transform="translate(-111.5 670)" fill="#89a3f8"/>
          <path id="Subtraction_8" data-name="Subtraction 8" d="M1992.4,335.5H1610.6a360.381,360.381,0,0,1-54.635-61.261,406.507,406.507,0,0,1-41.811-74.989,444.169,444.169,0,0,1-26.737-85.989A473.266,473.266,0,0,1,1478,19a475.826,475.826,0,0,1,6.572-79,452.537,452.537,0,0,1,18.85-73.582,424.05,424.05,0,0,1,29.826-66.587,388.666,388.666,0,0,1,39.5-58.015,348.9,348.9,0,0,1,47.877-47.867,310.91,310.91,0,0,1,54.951-36.142,282.437,282.437,0,0,1,60.724-22.841,272.045,272.045,0,0,1,32.121-5.94A271.811,271.811,0,0,1,1801.5-373a271.593,271.593,0,0,1,33.016,2.017,272.031,272.031,0,0,1,32.181,5.947,282.434,282.434,0,0,1,60.724,22.841,310.918,310.918,0,0,1,54.951,36.142,348.891,348.891,0,0,1,47.877,47.867,388.658,388.658,0,0,1,39.5,58.015,424.02,424.02,0,0,1,29.827,66.587A452.637,452.637,0,0,1,2118.43-60,475.879,475.879,0,0,1,2125,19a473.288,473.288,0,0,1-9.413,94.261,444.145,444.145,0,0,1-26.737,85.989,406.512,406.512,0,0,1-41.811,74.989A360.387,360.387,0,0,1,1992.4,335.5Z" transform="translate(-286.5 373)" fill="#89a3f8"/>
        </g>
        <g transform="matrix(1, 0, 0, 1, -9, 0)" filter="url(#Subtraction_2)">
          <path id="Subtraction_2-3" data-name="Subtraction 2" d="M1107.5,237c-113.166,0-222.654-.55-325.425-1.635-99.282-1.048-187.625-2.543-262.575-4.443V204.079c74.97-1.9,163.313-3.4,262.575-4.443C884.846,198.55,994.335,198,1107.5,198c109.422,0,215.566.516,315.483,1.532,96.518.982,183.2,2.388,257.627,4.179s132.874,3.876,173.7,6.2c20.687,1.177,36.576,2.408,47.227,3.66,10.926,1.285,16.466,2.607,16.466,3.93s-5.54,2.645-16.466,3.93c-10.652,1.252-26.541,2.484-47.227,3.66-40.821,2.322-99.261,4.407-173.7,6.2s-161.114,3.2-257.627,4.179C1323.07,236.484,1216.92,237,1107.5,237Z" transform="translate(-510.5 682.5)" fill="#576f88"/>
        </g>
        <g id="undraw_Login_v483" transform="translate(159.5 304.365)">
          <rect id="Rectangle_1" data-name="Rectangle 1" width="379.035" height="560.87" transform="translate(0 14.567)" fill="#535461"/>
          <path id="Path_1" data-name="Path 1" d="M275.74,589.958,0,575.446V14.576L275.74.063Z" transform="translate(0 -0.009)" fill="#f50057"/>
          <circle id="Ellipse_1" data-name="Ellipse 1" cx="3.415" cy="3.415" r="3.415" transform="translate(249.276 318.478)" fill="#535461"/>
          <path id="Path_2" data-name="Path 2" d="M295.189,377.66l2.367,4.1,2.366,4.1h-9.467l2.366-4.1Z" transform="translate(-42.498 -55.258)" fill="#535461"/>
          <path id="Path_3" data-name="Path 3" d="M334.105,589.958l-16.888-.054L317.885.063h16.22Z" transform="translate(-46.414 -0.009)" fill="#f50057"/>
          <g id="Group_1-3" data-name="Group 1" transform="translate(270.803)" opacity="0.1">
            <path id="Path_4" data-name="Path 4" d="M334.291,589.9H317.217L318.071,0h16.22Z" transform="translate(-317.217)" fill="#fff"/>
          </g>
          <circle id="Ellipse_2" data-name="Ellipse 2" cx="11.098" cy="11.098" r="11.098" transform="translate(241.592 286.038)" opacity="0.1"/>
          <circle id="Ellipse_3" data-name="Ellipse 3" cx="11.098" cy="11.098" r="11.098" transform="translate(241.592 284.33)" fill="#535461"/>
          <line id="Line_1" data-name="Line 1" y2="564.326" transform="translate(45.091 13.751)" fill="none" stroke="#000" stroke-miterlimit="10" stroke-width="2" opacity="0.1"/>
          <line id="Line_2" data-name="Line 2" y2="569.448" transform="translate(93.751 10.336)" fill="none" stroke="#000" stroke-miterlimit="10" stroke-width="2" opacity="0.1"/>
          <line id="Line_3" data-name="Line 3" y2="575.29" transform="translate(142.411 7.775)" fill="none" stroke="#000" stroke-miterlimit="10" stroke-width="2" opacity="0.1"/>
          <line id="Line_4" data-name="Line 4" y2="581.399" transform="translate(191.071 5.214)" fill="none" stroke="#000" stroke-miterlimit="10" stroke-width="2" opacity="0.1"/>
          <line id="Line_5" data-name="Line 5" y2="584.681" transform="translate(239.731 2.653)" fill="none" stroke="#000" stroke-miterlimit="10" stroke-width="2" opacity="0.1"/>
          <ellipse id="Ellipse_4" data-name="Ellipse 4" cx="33.72" cy="31.586" rx="33.72" ry="31.586" transform="translate(361.72 49.79)" fill="#2f2e41"/>
          <path id="Path_5" data-name="Path 5" d="M677.415,425.939l-8.537,11.952s-40.977,8.537-25.611,21.342,37.562-11.952,37.562-11.952l11.952-15.366Z" transform="translate(-380.148 -147.789)" fill="#ffb8b8"/>
          <path id="Path_6" data-name="Path 6" d="M727.4,266.939s-11.1,0-13.659,15.366-5.122,66.587-5.122,66.587-35.855,46.953-29.879,52.928,12.8,17.074,17.074,15.366,40.977-52.075,40.977-52.075Z" transform="translate(-385.745 -124.525)" fill="#f50057"/>
          <path id="Path_7" data-name="Path 7" d="M727.4,266.939s-11.1,0-13.659,15.366-5.122,66.587-5.122,66.587-35.855,46.953-29.879,52.928,12.8,17.074,17.074,15.366,40.977-52.075,40.977-52.075Z" transform="translate(-385.745 -124.525)" opacity="0.1"/>
          <path id="Path_8" data-name="Path 8" d="M772.693,215.939s-.854,33.294-11.1,35-6.829,12.8-6.829,12.8,33.294,19.635,55.489,0l4.268-10.244s-15.366-11.1-8.537-26.464Z" transform="translate(-396.886 -117.063)" fill="#ffb8b8"/>
          <path id="Path_9" data-name="Path 9" d="M702.726,455.939s-50.367,93.9-31.586,122.93,46.953,88.783,51.221,88.783,28.172-11.952,26.464-19.635-27.318-64.88-34.147-70-3.415-18.781-2.561-19.635,29.025-46.1,29.025-46.1-.854,71.709,2.561,82.807-.854,90.49,3.415,93.9,23.9,9.391,27.318,4.268,13.659-82.807,6.829-100.735L794.07,469.6Z" transform="translate(-384.117 -152.179)" fill="#2f2e41"/>
          <path id="Path_10" data-name="Path 10" d="M756.3,722.939l-21.342,39.269s-30.733,22.2-9.391,25.611,34.147-5.122,34.147-5.122l18.781-13.659v-39.27Z" transform="translate(-391.59 -191.245)" fill="#2f2e41"/>
          <path id="Path_11" data-name="Path 11" d="M728.859,694.382l11.1,26.464s4.268,11.1,0,13.659-16.22,17.927-8.537,19.635a25.009,25.009,0,0,0,4.691.466A47.436,47.436,0,0,0,770.6,740.572l6.921-6.921s-23.707-54.592-23.378-54.187S728.859,694.382,728.859,694.382Z" transform="translate(-393.176 -184.884)" fill="#2f2e41"/>
          <circle id="Ellipse_5" data-name="Ellipse 5" cx="29.025" cy="29.025" r="29.025" transform="translate(368.123 61.314)" fill="#ffb8b8"/>
          <path id="Path_12" data-name="Path 12" d="M803.377,253.43l-8.964,8.964s-27.318,10.244-40.123,0c0,0,4.7-9.817,4.7-8.964s-37.135,6.4-40.55,21.769,2.56,41.83,2.56,41.83-23.9,112.686-14.513,115.247,97.32,23.9,96.466,7.683,6.829-82.807,6.829-82.807l29.879-57.2s-4.268-18.781-14.513-24.757S803.377,253.43,803.377,253.43Z" transform="translate(-389.582 -122.541)" fill="#f50057"/>
          <path id="Path_13" data-name="Path 13" d="M769.349,448.939l-11.1,6.829s-42.684,29.025-20.488,34.147,35-20.488,35-20.488l8.537-10.244Z" transform="translate(-393.542 -151.155)" fill="#ffb8b8"/>
          <path id="Path_14" data-name="Path 14" d="M837.342,301.939l7.683,7.683s5.122,71.709-5.122,86.222-57.2,53.782-59.758,51.221-18.781-15.366-15.366-17.074,48.816-49.146,48.816-49.146l-3.571-66.1Z" transform="translate(-398.362 -129.646)" opacity="0.1"/>
          <path id="Path_15" data-name="Path 15" d="M841.342,298.939l7.683,7.683s5.122,71.709-5.122,86.222-57.2,53.782-59.758,51.221-18.781-15.366-15.366-17.074,48.816-49.146,48.816-49.146l-3.571-66.1Z" transform="translate(-398.948 -129.207)" fill="#f50057"/>
          <path id="Path_16" data-name="Path 16" d="M781.954,157.218s-9.866-3.588-23.321,4.036l7.176,1.794s-10.763.9-12.109,15.248h4.933s-3.139,12.557,0,16.145l2.018-3.812,5.83,11.66,1.345-5.83,2.691.9,1.794-9.418s4.485,6.727,8.073,7.176v-5.831s9.866,11.212,13.006,10.763l-4.49-6.279,6.279,1.345-2.691-4.485,16.145,4.485-3.588-4.485,11.212,3.588,5.382,2.242s7.624-17.491-3.139-29.6S792.045,152.06,781.954,157.218Z" transform="translate(-396.81 -108.107)" fill="#2f2e41"/>
        </g>
        <g id="undraw_updated_resume_u4fy" transform="translate(760.333 311.159)">
          <path id="Path_18" data-name="Path 18" d="M880.423,335.176s13.837,29.211,23.062,32.287l-26.137,39.974L855.824,381.3s1.537-18.449-3.075-26.137S880.423,335.176,880.423,335.176Z" transform="translate(-801.522 -291.083)" fill="#fbbebe"/>
          <circle id="Ellipse_6" data-name="Ellipse 6" cx="29.212" cy="29.212" r="29.212" transform="translate(28.165 14.533)" fill="#fbbebe"/>
          <path id="Path_19" data-name="Path 19" d="M671.817,323.635l7.687,21.524,9.225-10.763-7.742-24.516Z" transform="translate(-654.415 -70.795)" fill="#fbbebe"/>
          <path id="Path_20" data-name="Path 20" d="M845.179,479.225s-9.225,38.436-4.612,56.886,18.45,144.521,18.45,144.521l9.225,99.934,36.9,3.075L900.53,666.794l4.612-101.472,26.137,98.4v119.92l44.586,1.537L971.25,629.9s3.075-119.921-16.912-135.3-23.062-18.449-23.062-18.449Z" transform="translate(-806.253 -237.149)" fill="#2f2e41"/>
          <path id="Path_21" data-name="Path 21" d="M869.307,698.327l-3.075,10.762-4.612,13.837s-13.837,27.674,9.225,23.062,19.987-15.375,19.987-15.375,7.687-4.612,6.15-6.15-1.537-24.6-1.537-24.6Z" transform="translate(-799.632 -156.446)" fill="#2f2e41"/>
          <path id="Path_22" data-name="Path 22" d="M939,698.327l3.075,10.762,4.612,13.837s13.837,27.674-9.225,23.062-19.987-15.375-19.987-15.375-7.687-4.612-6.15-6.15,1.537-24.6,1.537-24.6Z" transform="translate(-780.154 -156.446)" fill="#2f2e41"/>
          <path id="Path_23" data-name="Path 23" d="M882.143,382.023l18.8-27.674L935.955,372.8l4.612,159.9s-19.987-12.3-50.736,3.075-50.736,4.612-50.736,4.612l18.45-69.185-7.687-92.247,10.995-9.98Z" transform="translate(-806.318 -281.392)" fill="#e6e6e6"/>
          <path id="Path_24" data-name="Path 24" d="M867.82,362.95l-6.386,5.2s-39.974,19.987-41.511,33.824L847.6,477.311s7.687,16.912,1.537,23.062-12.3,21.524-10.762,29.212-9.225,39.974,3.075,39.974,41.511-73.8,39.974-103.009S878.819,360.823,867.82,362.95Z" transform="translate(-813.282 -278.284)" fill="#2f2e41"/>
          <path id="Path_25" data-name="Path 25" d="M835.53,384.8l-9.476,1.014s-8.973,6.674-8.973,22.048-1.537,61.5-1.537,61.5-3.075,23.062,6.15,39.974,10.762,21.524,10.762,21.524l15.375-18.45V473.971l6.15-24.6Z" transform="translate(-815.052 -270.331)" fill="#2f2e41"/>
          <path id="Path_26" data-name="Path 26" d="M881.2,349.709l15.03,6.325s52.274,13.837,59.961,36.9l-21.525,53.811s15.375,98.4,10.762,98.4h-4.612s12.3,9.225,4.612,12.3-26.137,27.674-30.749,16.912S882.4,435.982,885.47,408.308,878.472,352.609,881.2,349.709Z" transform="translate(-791.196 -283.077)" fill="#2f2e41"/>
          <path id="Path_27" data-name="Path 27" d="M879.117,306.909v-3.075H871.43s-12.3-7.687-23.062,1.537-15.375,13.837-15.375,13.837l-4.612,6.15,4.612,1.538-4.612,4.612h4.612l-3.075,4.612,8.618,11.531s-.931-11.531,8.294-11.531,19.987-12.3,19.987-12.3l23.062,16.912s-1.537-9.181,3.844-9.2C893.722,331.53,896.029,308.446,879.117,306.909Z" transform="translate(-810.21 -300.831)" fill="#2f2e41"/>
          <path id="Path_28" data-name="Path 28" d="M951.545,486.3l-3.075,32.286s0,47.661-16.912,43.049-3.075-44.586-3.075-44.586l2.336-28.913Z" transform="translate(-775.785 -233.462)" fill="#fbbebe"/>
          <path id="Path_29" data-name="Path 29" d="M919.988,376.1s19.987-7.687,26.137,15.375,13.837,69.185,13.837,69.185a69.186,69.186,0,0,1,0,50.736l-4.612,23.062-26.137-3.075-6.15-52.274L916.913,413Z" transform="translate(-778.052 -273.936)" fill="#2f2e41"/>
        </g>
        <g id="Component_1_1" data-name="Component 1 – 1" transform="translate(0 589.5)">
          <path id="Subtraction_6" data-name="Subtraction 6" d="M1169.66-258.5H612.5V-553.56a389.8,389.8,0,0,1,81.219-28.461,392.358,392.358,0,0,1,43.4-7.438A397.794,397.794,0,0,1,782-592a398.131,398.131,0,0,1,40.033,2.02A392.9,392.9,0,0,1,861-584.036,390.108,390.108,0,0,1,934.584-561.2a392.045,392.045,0,0,1,66.586,36.142,394.8,394.8,0,0,1,58.015,47.867,394.776,394.776,0,0,1,47.867,58.015,392.019,392.019,0,0,1,36.142,66.586A390.061,390.061,0,0,1,1166.04-279c1.377,6.73,2.6,13.628,3.626,20.5Z" transform="translate(-612.5 749.343)" fill="#efeff9"/>
          <path id="Subtraction_5" data-name="Subtraction 5" d="M1506.72-360.536H933.211a321.08,321.08,0,0,1,42.424-88.869,311.387,311.387,0,0,1,65.6-69.976,296.081,296.081,0,0,1,83.408-45.834A286.764,286.764,0,0,1,1220.5-581.66c3.383,0,6.815.06,10.2.179a287.091,287.091,0,0,1,93.249,18.977,294.034,294.034,0,0,1,80.148,46.6,309.233,309.233,0,0,1,62.455,69.047,319.686,319.686,0,0,1,40.171,86.323Z" transform="translate(-508.662 850.38)" fill="#efeff9"/>
          <path id="Subtraction_3" data-name="Subtraction 3" d="M1856.17-404.5H1165.84a400.275,400.275,0,0,1,63.65-76.779,407.069,407.069,0,0,1,81.135-59.177,409.534,409.534,0,0,1,95.034-38.074,414.426,414.426,0,0,1,51.608-10.029A421.362,421.362,0,0,1,1511-592a421.707,421.707,0,0,1,53.825,3.444,414.374,414.374,0,0,1,51.52,10.018,409.532,409.532,0,0,1,95.034,38.074,407.088,407.088,0,0,1,81.136,59.177,400.287,400.287,0,0,1,63.65,76.779h0Z" transform="translate(-270.874 895.343)" fill="#efeff9"/>
          <path id="Subtraction_4" data-name="Subtraction 4" d="M2184.407-101.157H1556.884A477.117,477.117,0,0,1,1547-198.12a480.11,480.11,0,0,1,6.575-79.379,456.357,456.357,0,0,1,18.858-73.936,426.993,426.993,0,0,1,29.84-66.906,390.6,390.6,0,0,1,39.517-58.293,349.828,349.828,0,0,1,47.9-48.1,310.936,310.936,0,0,1,54.975-36.315A281.8,281.8,0,0,1,1805.413-584a271.075,271.075,0,0,1,32.134-5.968A270.739,270.739,0,0,1,1870.641-592a270.511,270.511,0,0,1,33.033,2.027A271.1,271.1,0,0,1,1935.866-584a281.809,281.809,0,0,1,60.75,22.951,310.952,310.952,0,0,1,54.975,36.315,349.807,349.807,0,0,1,47.9,48.1,390.6,390.6,0,0,1,39.517,58.293,427,427,0,0,1,29.84,66.906,456.322,456.322,0,0,1,18.862,73.937,480.165,480.165,0,0,1,6.573,79.379,477.156,477.156,0,0,1-9.88,96.963Z" transform="translate(-307 592)" fill="#efeff9"/>
        </g>
      </g>
    </g>
  </g>
</svg>
