<svg xmlns="http://www.w3.org/2000/svg" xmlns:xlink="http://www.w3.org/1999/xlink" width="1920.732" height="1080.346" viewBox="0 0 1920.732 1080.346">
  <defs>
    <linearGradient id="linear-gradient" x1="0.468" y1="0.575" x2="0.465" gradientUnits="objectBoundingBox">
      <stop offset="0" stop-color="#97c2ee"/>
      <stop offset="1" stop-color="#63aaf2"/>
    </linearGradient>
    <filter id="Subtraction_2" x="48.77" y="874.5" width="1416.461" height="57" filterUnits="userSpaceOnUse">
      <feOffset dy="3" input="SourceAlpha"/>
      <feGaussianBlur stdDeviation="3" result="blur"/>
      <feFlood flood-opacity="0.161"/>
      <feComposite operator="in" in2="blur"/>
      <feComposite in="SourceGraphic"/>
    </filter>
  </defs>
  <g id="Group_1" data-name="Group 1" transform="translate(263.846 514.5)">
    <g id="Group_1-2" data-name="Group 1" transform="translate(-263.557 -514.5)">
      <g id="Component_2_1" data-name="Component 2 – 1">
        <path id="Rectangle_2" data-name="Rectangle 2" d="M1919.443-1.5-.557,0l.068,1078.84L1918.886,1076Z" transform="translate(0.557 1.5)" fill="url(#linear-gradient)"/>
        <path id="Subtraction_2-2" data-name="Subtraction 2" d="M323.464,1340.5H1088.5c7.932-14.365,15.542-29.35,22.62-44.541,7.11-15.259,13.861-31.108,20.066-47.107,6.241-16.091,12.085-32.736,17.368-49.472,5.323-16.856,10.212-34.229,14.531-51.637,17.839-71.9,26.885-147.333,26.885-224.2,0-23.214-.841-46.621-2.5-69.575-1.634-22.616-4.1-45.353-7.334-67.566-3.192-21.929-7.2-43.87-11.927-65.214-4.669-21.1-10.144-42.138-16.275-62.519-6.072-20.183-12.929-40.2-20.38-59.48-7.4-19.148-15.555-38.024-24.242-56.1-8.647-17.993-18.02-35.618-27.862-52.386-9.813-16.718-20.322-32.978-31.237-48.321s-22.473-30.114-34.37-43.919c-11.922-13.833-24.457-27.013-37.259-39.173A490.958,490.958,0,0,0,936.676,325.2a443.345,443.345,0,0,0-42.308-28.655A404.327,404.327,0,0,0,849.9,273.663c-11.325-4.952-22.964-9.379-34.6-13.158H596.657c-11.634,3.78-23.274,8.207-34.6,13.158a404.5,404.5,0,0,0-44.47,22.878,443.452,443.452,0,0,0-42.3,28.659,490.939,490.939,0,0,0-39.9,34.085c-12.8,12.161-25.337,25.341-37.259,39.173-11.9,13.8-23.461,28.582-34.369,43.919s-21.42,31.6-31.237,48.321c-9.842,16.766-19.215,34.391-27.862,52.386-8.69,18.084-16.845,36.963-24.242,56.1-7.452,19.288-14.309,39.3-20.379,59.48-6.129,20.372-11.6,41.406-16.276,62.519-4.722,21.343-8.735,43.284-11.927,65.213-3.232,22.212-5.7,44.945-7.334,67.566-1.658,22.963-2.5,46.371-2.5,69.575,0,76.863,9.046,152.295,26.885,224.2,4.318,17.4,9.207,34.776,14.531,51.637,5.285,16.738,11.13,33.381,17.37,49.472,6.2,15.991,12.953,31.839,20.066,47.107,7.08,15.2,14.691,30.182,22.619,44.541Z" transform="translate(319.477 -260.5)" fill="#fff" opacity="0.2"/>
        <g id="Component_1_2" data-name="Component 1 – 2" transform="translate(-0.002 370.5)">
          <path id="Subtraction_10" data-name="Subtraction 10" d="M268.013,185.5H791.983V-334.8a390.466,390.466,0,0,0-81-28.284,393.768,393.768,0,0,0-43.262-7.391,397.747,397.747,0,0,0-84.711-.512c-13.1,1.331-26.2,3.33-39.021,5.95A390.9,390.9,0,0,0,470.41-342.2a392.957,392.957,0,0,0-66.585,36.142A394.157,394.157,0,0,0,297.946-200.171a392.951,392.951,0,0,0-36.141,66.587A390.906,390.906,0,0,0,238.959-60c-2.617,12.81-4.616,25.9-5.94,38.922a398.775,398.775,0,0,0,0,80.16c1.324,13.011,3.323,26.1,5.941,38.918A390.9,390.9,0,0,0,261.8,171.583c1.972,4.657,4.063,9.339,6.214,13.916h0Z" transform="translate(1128.463 506)" fill="#89a3f8"/>
          <path id="Subtraction_9" data-name="Subtraction 9" d="M753.253,82.464h474.741a358.564,358.564,0,0,0,17.5-67.361,380.355,380.355,0,0,0,4.42-72.917,382.084,382.084,0,0,0-7.3-62.24,363.953,363.953,0,0,0-16.716-57.724,341.886,341.886,0,0,0-25.1-52.043,314.546,314.546,0,0,0-32.443-45.2A283.654,283.654,0,0,0,1129.6-312.2a253.561,253.561,0,0,0-44.028-28,230.16,230.16,0,0,0-48.268-17.656A219.355,219.355,0,0,0,985.837-364c-2.552,0-5.143.045-7.7.135a219.171,219.171,0,0,0-52.323,8.244,228.1,228.1,0,0,0-48.3,20.08,250.8,250.8,0,0,0-43.271,30.611,281.065,281.065,0,0,0-37.239,39.839,312.653,312.653,0,0,0-30.2,47.762,340.738,340.738,0,0,0-22.163,54.381,363.387,363.387,0,0,0-13.12,59.7,381.977,381.977,0,0,0-3.072,63.706,381.926,381.926,0,0,0,7.527,63.359,363.3,363.3,0,0,0,17.278,58.65Z" transform="translate(178.245 625.037)" fill="#89a3f8"/>
          <path id="Subtraction_7" data-name="Subtraction 7" d="M945.44,37.5h811.092c.3-6.138.444-12.362.444-18.5a384.07,384.07,0,0,0-2.085-39.928A378.351,378.351,0,0,0,1738.72-97.57a382.136,382.136,0,0,0-13.653-36.015,388.01,388.01,0,0,0-37.432-66.587,398.185,398.185,0,0,0-49.574-58.015,406.176,406.176,0,0,0-60.079-47.866,410.756,410.756,0,0,0-68.963-36.142,414.57,414.57,0,0,0-76.208-22.841c-13.251-2.618-26.814-4.617-40.311-5.94-13.7-1.343-27.661-2.024-41.51-2.024s-27.815.681-41.51,2.024c-13.5,1.323-27.059,3.322-40.311,5.94a414.569,414.569,0,0,0-76.208,22.841,410.753,410.753,0,0,0-68.967,36.142,406.156,406.156,0,0,0-60.085,47.866,398.146,398.146,0,0,0-49.575,58.015A387.985,387.985,0,0,0,976.9-133.585,382.111,382.111,0,0,0,963.251-97.57a378.373,378.373,0,0,0-16.156,76.49A384.864,384.864,0,0,0,945,19c0,6.142.15,12.367.444,18.5Z" transform="translate(-752.006 670)" fill="#89a3f8"/>
          <path id="Subtraction_8" data-name="Subtraction 8" d="M1610.6,335.5h381.789a360.388,360.388,0,0,0,54.633-61.261,406.511,406.511,0,0,0,41.81-74.989,444.176,444.176,0,0,0,26.736-85.989A473.307,473.307,0,0,0,2124.981,19a475.829,475.829,0,0,0-6.572-79,452.524,452.524,0,0,0-18.85-73.582,424.075,424.075,0,0,0-29.825-66.587,388.691,388.691,0,0,0-39.5-58.015,348.875,348.875,0,0,0-47.875-47.867,310.906,310.906,0,0,0-54.95-36.142,282.415,282.415,0,0,0-60.722-22.841,272.022,272.022,0,0,0-32.12-5.94A271.785,271.785,0,0,0,1801.49-373a271.489,271.489,0,0,0-32.993,2.014,272,272,0,0,0-32.2,5.95,282.424,282.424,0,0,0-60.722,22.841,310.929,310.929,0,0,0-54.949,36.142,348.876,348.876,0,0,0-47.876,47.867,388.619,388.619,0,0,0-39.5,58.015,424.034,424.034,0,0,0-29.826,66.587A452.61,452.61,0,0,0,1484.57-60,475.905,475.905,0,0,0,1478,19a473.324,473.324,0,0,0,9.413,94.261,444.159,444.159,0,0,0,26.736,85.989,406.519,406.519,0,0,0,41.81,74.989A360.384,360.384,0,0,0,1610.6,335.5Z" transform="translate(-1478 373)" fill="#89a3f8"/>
        </g>
        <g transform="matrix(1, 0, 0, 1, -0.29, 0)" filter="url(#Subtraction_2)">
          <path id="Subtraction_2-3" data-name="Subtraction 2" d="M1329.979,237c113.163,0,222.647-.55,325.415-1.635,99.279-1.048,187.619-2.543,262.567-4.443V204.079c-74.968-1.9-163.308-3.4-262.567-4.443C1552.626,198.55,1443.141,198,1329.979,198c-109.419,0-215.56.516-315.474,1.532-96.515.982-183.194,2.388-257.619,4.179s-132.87,3.876-173.695,6.2c-20.686,1.177-36.575,2.408-47.226,3.66-10.926,1.285-16.465,2.607-16.465,3.93s5.54,2.645,16.465,3.93c10.652,1.252,26.54,2.484,47.226,3.66,40.82,2.322,99.258,4.407,173.695,6.2s161.109,3.2,257.619,4.179C1114.415,236.484,1220.562,237,1329.979,237Z" transform="translate(-461.73 682.5)" fill="#576f88"/>
        </g>
        <g id="_493398-PHFWXX-737" data-name="493398-PHFWXX-737" transform="translate(499.03 88.837)">
          <g id="Objects" transform="translate(54.97 26.159)">
            <g id="Group_1-3" data-name="Group 1" transform="translate(11.02 32.529)">
              <path id="Path_1" data-name="Path 1" d="M60.45,182.079l224.179-.7-57.191-11.663s2.333-64.189-25.68-51.359S172.579,159.2,172.579,159.2s-10.5-25.68-25.68-16.349c-15.162,9.331-22.181,25.68-22.181,25.68S119.27,150.045,109.557,149c-8.325-.9-24.131,16.671-32.436,26.565Z" transform="translate(-60.45 32.799)" fill="#d0d0fb" opacity="0.33"/>
              <path id="Path_2" data-name="Path 2" d="M367.06,225.4l184.946-.523-47.177-8.667s1.93-47.7-21.175-38.148c-23.106,9.532-24.071,30.345-24.071,30.345s-8.667-19.084-21.175-12.146a47.919,47.919,0,0,0-18.3,19.084s-4.484-13.735-12.508-14.5c-6.857-.664-19.908,12.387-26.745,19.727Z" transform="translate(249.514 93.602)" fill="#d0d0fb" opacity="0.33"/>
              <path id="Path_3" data-name="Path 3" d="M217.45,96.318l184.95-.583L355.219,86.1s1.93-52.948-21.175-42.37a41.22,41.22,0,0,0-24.071,33.7S301.306,56.261,288.8,63.962s-18.3,21.175-18.3,21.175-4.486-15.242-12.51-16.107c-6.857-.744-19.908,13.755-26.745,21.919Z" transform="translate(98.267 -42.335)" fill="#d0d0fb" opacity="0.33"/>
            </g>
            <g id="Group_31" data-name="Group 31" transform="translate(216.312)">
              <path id="Path_4" data-name="Path 4" d="M459.6,80.657l-14.056,4.887-6.093-17.576A62.179,62.179,0,0,0,321.97,108.75l6.093,17.576-14.117,4.907A21.228,21.228,0,0,0,300.9,158.159l39.7,114.322a21.331,21.331,0,0,0,27,13.252l145.672-50.575a21.355,21.355,0,0,0,13.172-27.188l-39.7-114.322A21.324,21.324,0,0,0,459.6,80.657ZM348.495,99.54a34.081,34.081,0,0,1,64.39-22.362l6.093,17.576L354.608,117.1Zm84.419,104.207,10.135,29.2a2.339,2.339,0,0,1-1.548,2.936l-13.976,4.846a2.308,2.308,0,0,1-2.876-1.408l-10.135-29.2a27.148,27.148,0,1,1,18.4-6.375Z" transform="translate(-23.844 -26.159)" fill="#867aff"/>
              <g id="Group_2" data-name="Group 2" transform="translate(304.693 548.112)">
                <path id="Path_5" data-name="Path 5" d="M348.774,369.923c-3.459-6.737,4.645-13.976,12.106-15.3s15.907-.322,21.859-5.027c7.943-6.294,7.521-19.989,16.329-25,7.058-4.022,16.389-.181,23.87-3.358,9.291-3.962,11.9-16.892,21.014-21.235,7.259-3.459,16.751.442,20.471,7.6,3.7,7.139,2.011,16.369-3.137,22.563-4.022,4.846-9.974,8.245-12.468,14.016-3.9,9.049,2.252,20.009-1.327,29.179-6.656,16.932-38.047,11.844-43.5,29.2-1.207,3.861-.7,8.024-1.026,12.066-.945,12.005-9.411,22.5-19.868,28.495s-22.7,8.064-34.729,8.908c-4.907.342-10.1.442-14.479-1.81-4.122-2.111-7-6.073-9.23-10.115-14.459-26.223-20.411-60.348,24.111-70.182" transform="translate(-314.055 -298.724)" fill="#63d29c"/>
              </g>
              <g id="Group_3" data-name="Group 3" transform="translate(0 465.887)">
                <path id="Path_6" data-name="Path 6" d="M270.349,397.343c7.762-5.128,3.439-17.737-3.74-23.649s-16.832-9.914-20.351-18.541c-4.706-11.5,3.982-25.921-2.393-36.579-5.128-8.547-17.435-10.075-23.508-17.978-7.561-9.813-2.554-25.237-9.693-35.372-5.691-8.084-18.2-9.612-26.464-4.2s-12.005,16.309-10.236,26.022c1.388,7.6,5.711,14.821,4.907,22.5-1.267,12.025-14.459,20.029-16.148,32.014-3.1,22.12,33.563,35.574,28.937,57.432-1.026,4.867-4.082,9.009-6.174,13.534-6.234,13.413-3.5,29.742,4.1,42.451,7.581,12.709,19.426,22.3,31.773,30.426,5.047,3.318,10.517,6.556,16.57,6.777,5.691.221,11.12-2.272,15.967-5.269,31.23-19.325,58.156-52.264,16.449-89.567" transform="translate(-162.537 -257.836)" fill="#ffa938"/>
              </g>
              <g id="Group_5" data-name="Group 5" transform="translate(308.668 413.813)">
                <g id="Group_4" data-name="Group 4" transform="translate(0 29.483)">
                  <path id="Path_7" data-name="Path 7" d="M318.884,436.431c10.859-4.685,20.632-13.353,28.736-21.718,21.859-22.563,35.413-52.043,42.551-82.388,6.455-27.449,7.883-55.844,6.536-83.937-.121-2.373-3.821-2.393-3.72,0,3.036,63.123-9.512,140.6-66,179.014a60.49,60.49,0,0,1-9.994,5.812c-2.172.965-.282,4.163,1.89,3.217Z" transform="translate(-316.032 -246.601)" fill="#e1806d"/>
                </g>
                <path id="Path_8" data-name="Path 8" d="M353.16,295.869s3.579-20.451,30.667-23.689C383.827,272.18,373.933,296.372,353.16,295.869Z" transform="translate(-278.498 -191.26)" fill="#e1806d"/>
                <path id="Path_9" data-name="Path 9" d="M348.74,307.146s8.245-19.044,35.352-15.866C384.092,291.26,368.829,312.5,348.74,307.146Z" transform="translate(-282.966 -172.313)" fill="#e1806d"/>
                <path id="Path_10" data-name="Path 10" d="M343.02,317.413s12.307-16.711,38.007-7.541C381.027,309.852,361.4,327.126,343.02,317.413Z" transform="translate(-288.749 -155.935)" fill="#e1806d"/>
                <path id="Path_11" data-name="Path 11" d="M355.23,279.867s3.519-20.109,30.144-23.287C385.374,256.58,375.661,280.39,355.23,279.867Z" transform="translate(-276.405 -207.03)" fill="#e1806d"/>
                <path id="Path_12" data-name="Path 12" d="M359.428,269.846s-15.163-13.654-3.72-37.906C355.708,231.94,370.71,252.793,359.428,269.846Z" transform="translate(-280.241 -231.94)" fill="#e1806d"/>
                <path id="Path_13" data-name="Path 13" d="M367.015,276.365s-20.069-3.7-23.005-30.365C344.01,245.98,367.719,255.934,367.015,276.365Z" transform="translate(-287.748 -217.726)" fill="#e1806d"/>
                <path id="Path_14" data-name="Path 14" d="M366.025,291.6s-20.069-3.7-23.005-30.365C343.02,261.23,366.709,271.164,366.025,291.6Z" transform="translate(-288.749 -202.33)" fill="#e1806d"/>
                <path id="Path_15" data-name="Path 15" d="M362.323,306.634s-19.768-5.108-20.813-31.914C341.51,274.74,364.455,286.3,362.323,306.634Z" transform="translate(-290.275 -188.692)" fill="#e1806d"/>
                <path id="Path_16" data-name="Path 16" d="M357.8,320.884s-19.767-5.108-20.813-31.914C336.97,288.99,359.915,300.553,357.8,320.884Z" transform="translate(-294.845 -174.286)" fill="#e1806d"/>
              </g>
              <g id="Group_30" data-name="Group 30" transform="translate(69.081 139.561)">
                <path id="Path_17" data-name="Path 17" d="M442.767,661.076H239.421a42.533,42.533,0,0,1-42.531-42.529V138.091A42.533,42.533,0,0,1,239.419,95.56H442.767A42.534,42.534,0,0,1,485.3,138.09V618.565A42.529,42.529,0,0,1,442.767,661.076Z" transform="translate(-196.89 -95.56)" fill="#444"/>
                <path id="Path_18" data-name="Path 18" d="M435.512,632.727H233.292a29.78,29.78,0,0,1-29.782-29.784V133.612a29.78,29.78,0,0,1,29.784-29.782H435.512a29.78,29.78,0,0,1,29.782,29.784V602.945a29.78,29.78,0,0,1-29.784,29.782Z" transform="translate(-190.198 -87.2)" fill="#fff"/>
                <path id="Path_19" data-name="Path 19" d="M397.594,106.266H380.562a9.453,9.453,0,0,0-9.451,9.449v6.759a9.453,9.453,0,0,1-9.449,9.451H285.746a9.453,9.453,0,0,1-9.451-9.449v-6.759a9.453,9.453,0,0,0-9.449-9.451H218.5V101.42H397.614v4.846Z" transform="translate(-175.044 -89.636)" fill="#444"/>
                <g id="Group_29" data-name="Group 29" transform="translate(50.193 91.518)">
                  <g id="Group_28" data-name="Group 28">
                    <g id="Group_7" data-name="Group 7" transform="translate(52.725)">
                      <path id="Path_20" data-name="Path 20" d="M275.809,147.686a3.519,3.519,0,1,0-3.3,0,5.505,5.505,0,0,0-3.841,5.249v2.775h11v-2.775A5.549,5.549,0,0,0,275.809,147.686Z" transform="translate(-227.243 -141.07)" fill="#37366a"/>
                      <g id="Group_6" data-name="Group 6" transform="translate(0 22.056)">
                        <text id="Create_Account" data-name="Create Account" transform="translate(0 12)" fill="#37366a" font-size="12" font-family="Montserrat-Regular, Montserrat"><tspan x="0" y="0">Create Account</tspan></text>
                      </g>
                    </g>
                    <g id="Group_9" data-name="Group 9" transform="translate(38.188 351.974)">
                      <path id="Path_21" data-name="Path 21" d="M347.8,340.573H242.811a1.974,1.974,0,0,1-1.971-1.971V318.071a1.974,1.974,0,0,1,1.971-1.971H347.8a1.974,1.974,0,0,1,1.971,1.971V338.6a1.974,1.974,0,0,1-1.971,1.973Z" transform="translate(-240.84 -316.1)" fill="#f90051"/>
                      <g id="Group_8" data-name="Group 8" transform="translate(35.672 6.853)">
                        <text id="Register" transform="translate(0 8)" fill="#f3f4e9" font-size="8" font-family="Montserrat-Regular, Montserrat"><tspan x="0" y="0">Register</tspan></text>
                      </g>
                    </g>
                    <g id="Group_12" data-name="Group 12" transform="translate(0 58.946)">
                      <g id="Group_10" data-name="Group 10" transform="translate(0.015)" opacity="0.57">
                        <text id="Email_Address" data-name="Email Address" transform="translate(0 8)" fill="#37366a" font-size="8" font-family="Montserrat-Regular, Montserrat"><tspan x="0" y="0">Email Address</tspan></text>
                      </g>
                      <g id="Group_11" data-name="Group 11" transform="translate(9.286 26.921)">
                        <text id="youremail_gmail.c" data-name="youremail@gmail.c" transform="translate(0 8)" fill="#37366a" font-size="8" font-family="Montserrat-Regular, Montserrat"><tspan x="0" y="0">youremail@gmail.c</tspan></text>
                      </g>
                      <path id="Path_22" data-name="Path 22" d="M415.564,208.863H227.4a5.561,5.561,0,0,1-5.55-5.55V184.39a5.561,5.561,0,0,1,5.55-5.55H415.564a5.561,5.561,0,0,1,5.55,5.55v18.923a5.536,5.536,0,0,1-5.55,5.55Z" transform="translate(-221.85 -161.833)" fill="none" stroke="#37366a" stroke-miterlimit="10" stroke-width="0.5"/>
                    </g>
                    <g id="Group_17" data-name="Group 17" transform="translate(0 125.773)">
                      <g id="Group_16" data-name="Group 16">
                        <g id="Group_13" data-name="Group 13" transform="translate(0.015)" opacity="0.52">
                          <text id="Country" transform="translate(0 8)" fill="#37366a" font-size="8" font-family="Montserrat-Regular, Montserrat"><tspan x="0" y="0">Country</tspan></text>
                        </g>
                        <g id="Group_15" data-name="Group 15" transform="translate(0 17.265)">
                          <g id="Group_14" data-name="Group 14" transform="translate(9.286 9.395)">
                            <text id="Your_text" data-name="Your text" transform="translate(0 8)" fill="#37366a" font-size="8" font-family="Montserrat-Regular, Montserrat"><tspan x="0" y="0">Your text</tspan></text>
                          </g>
                          <path id="Path_23" data-name="Path 23" d="M415.564,242.223H227.4a5.561,5.561,0,0,1-5.55-5.55V217.75a5.561,5.561,0,0,1,5.55-5.55H415.564a5.561,5.561,0,0,1,5.55,5.55v18.923a5.536,5.536,0,0,1-5.55,5.55Z" transform="translate(-221.85 -212.2)" fill="none" stroke="#37366a" stroke-miterlimit="10" stroke-width="0.5"/>
                        </g>
                      </g>
                    </g>
                    <g id="Group_22" data-name="Group 22" transform="translate(0 196.333)">
                      <g id="Group_21" data-name="Group 21">
                        <g id="Group_18" data-name="Group 18" transform="translate(0.015)" opacity="0.52">
                          <text id="City" transform="translate(0 8)" fill="#37366a" font-size="8" font-family="Montserrat-Regular, Montserrat"><tspan x="0" y="0">City</tspan></text>
                        </g>
                        <g id="Group_20" data-name="Group 20" transform="translate(0 17.269)">
                          <g id="Group_19" data-name="Group 19" transform="translate(9.286 9.393)">
                            <text id="Your_City" data-name="Your City" transform="translate(0 8)" fill="#37366a" font-size="8" font-family="Montserrat-Regular, Montserrat"><tspan x="0" y="0">Your City</tspan></text>
                          </g>
                          <path id="Path_24" data-name="Path 24" d="M415.564,277.313H227.4a5.561,5.561,0,0,1-5.55-5.55V252.84a5.561,5.561,0,0,1,5.55-5.55H415.564a5.561,5.561,0,0,1,5.55,5.55v18.923a5.536,5.536,0,0,1-5.55,5.55Z" transform="translate(-221.85 -247.29)" fill="none" stroke="#37366a" stroke-miterlimit="10" stroke-width="0.5"/>
                        </g>
                      </g>
                    </g>
                    <g id="Group_27" data-name="Group 27" transform="translate(0 267.238)">
                      <g id="Group_26" data-name="Group 26">
                        <g id="Group_23" data-name="Group 23" transform="translate(0.015)" opacity="0.52">
                          <text id="Password" transform="translate(0 8)" fill="#37366a" font-size="8" font-family="Montserrat-Regular, Montserrat"><tspan x="0" y="0">Password</tspan></text>
                        </g>
                        <g id="Group_25" data-name="Group 25" transform="translate(0 17.27)">
                          <g id="Group_24" data-name="Group 24" transform="translate(9.286 9.391)">
                            <text id="Entry_password" data-name="Entry password" transform="translate(0 8)" fill="#37366a" font-size="8" font-family="Montserrat-Regular, Montserrat"><tspan x="0" y="0">Entry password</tspan></text>
                          </g>
                          <path id="Path_25" data-name="Path 25" d="M415.564,312.573H227.4a5.561,5.561,0,0,1-5.55-5.55V288.1a5.561,5.561,0,0,1,5.55-5.55H415.564a5.561,5.561,0,0,1,5.55,5.55v18.923A5.548,5.548,0,0,1,415.564,312.573Z" transform="translate(-221.85 -282.55)" fill="none" stroke="#37366a" stroke-miterlimit="10" stroke-width="0.5"/>
                        </g>
                      </g>
                    </g>
                  </g>
                  <line id="Line_1" data-name="Line 1" y2="10.598" transform="translate(90.915 84.057)" fill="none" stroke="#50c3e2" stroke-miterlimit="10" stroke-width="0.5"/>
                </g>
              </g>
            </g>
            <g id="Group_42" data-name="Group 42" transform="translate(273.045 320.242)">
              <path id="Path_26" data-name="Path 26" d="M447.1,421.493c0-2.333-57.392-4.243-128.177-4.243s-128.177,1.89-128.177,4.243c0,2.333,57.392,4.243,128.177,4.243C389.732,425.736,447.1,423.846,447.1,421.493Z" transform="translate(-190.75 48.968)" fill="#6756ad" opacity="0.25"/>
              <g id="Group_41" data-name="Group 41" transform="translate(43.175)">
                <path id="Path_27" data-name="Path 27" d="M261.23,288.655s12.729,19.667,15.625,11.141c2.876-8.526,4.645-13.735,4.645-13.735s-3.62-5.932-5.53-4.1c-2.011,1.91-4.605-1.569-4.605-1.569Z" transform="translate(-162.674 -89.389)" fill="#f5ba9a"/>
                <g id="Group_32" data-name="Group 32" transform="translate(117.941 26.968)">
                  <path id="Path_28" data-name="Path 28" d="M314.427,269.4l5.269-30.566c3.459-1.106,7-3.781,5.792-7.9-.6-2.071-2.232-3.157-4.122-3.881-.724-.261-4.4-1.327-4.645.08,0-.02,2.011-11.02,2.011-11.02L282.9,198.82s-3.258,21.939-3.3,22.2c.06-.342-3.479-1.126-3.962-1.086a6.015,6.015,0,0,0-4.263,3.439c-1.87,4.163,1.75,9.411,6.254,9.492,0,0,.623,9.833,2.9,13.333s12.81,5.912,12.81,5.912l-1.146,13.312Z" transform="translate(-270.87 -198.82)" fill="#f5ba9a"/>
                </g>
                <g id="Group_33" data-name="Group 33" transform="translate(119.57 91.519)">
                  <path id="Path_29" data-name="Path 29" d="M325.714,239.467c-16.188-4.545-38.952-8.546-38.952-8.546L271.68,338.385l63.566-1.971Z" transform="translate(-271.68 -230.92)" fill="#ffa938"/>
                </g>
                <g id="Group_34" data-name="Group 34" transform="translate(173.604 48.385)">
                  <path id="Path_30" data-name="Path 30" d="M298.55,261.151a417.147,417.147,0,0,0,63.767,11.965c-4.846-22.02-7.5-38.871-13.815-57.573,6.033-1.528,17.837-4.545,23.87-6.073,0,0,20.029,69.759,13.936,79.05-10.336,15.826-61.857,5.409-61.857,5.409l-24.373-4.344Z" transform="translate(-298.55 -209.47)" fill="#ffa938"/>
                </g>
                <g id="Group_35" data-name="Group 35" transform="translate(50.344 91.527)">
                  <path id="Path_31" data-name="Path 31" d="M251.643,263.112s68.231-33.382,71.368-32.155,5.792,16.711,5.792,16.711-24.734,15.746-62.983,33.522l34.789,47.358-17.334,12.428s-47.78-53.692-45.97-64.792C238.733,267.636,251.643,263.112,251.643,263.112Z" transform="translate(-237.255 -230.924)" fill="#ffa938"/>
                </g>
                <path id="Path_32" data-name="Path 32" d="M354.829,234.055s-2.815-19.747-3.157-20.31-.342-4.042-5.409-3.2c0,0-.342-6.254-3.258-6.375a25.8,25.8,0,0,0-6.194.684s-3.3-16.047-5.43-18.822c-2.333-3.037-5.611,4.967-.543,24.513,0,0,2.815,13.292,1.971,13.775-2.272,1.327-5.389,1.086-9.693-6.294-4.585-7.843-10.3-5.188-7.481.9s6.817,13.956,9.391,16.088c2.594,2.132,8.064,1.81,8.064,1.81l.8,2.534Z" transform="translate(-108.429 -185.409)" fill="#f5ba9a"/>
                <g id="Group_36" data-name="Group 36" transform="translate(0 190.719)">
                  <path id="Path_33" data-name="Path 33" d="M395.376,286.564c-7.662,116.293-33.663,259.813-33.663,259.813l25.458,10.779H332.957l35.553-253.8H356.324L266.375,557.317H212.22l30.808-11.241L332.957,280.25Z" transform="translate(-212.22 -280.25)" fill="#594656"/>
                </g>
                <path id="Path_34" data-name="Path 34" d="M321.376,231.711c3.036-6.053,6.576-20.773-2.634-24.855a94.347,94.347,0,0,1-13.373-7.621,23.271,23.271,0,0,0-19.084-3.439,16.92,16.92,0,0,0-3.016,1.126c-6.415,3.157-10.759,20.21-10.759,20.21l6.314,1.589s7.038,31.31,18.621,37.745l11.563,2.453,6.837,1.528Z" transform="translate(-151.271 -175.685)" fill="#b96944"/>
                <g id="Group_38" data-name="Group 38" transform="translate(160.29 22.816)">
                  <g id="Group_37" data-name="Group 37">
                    <path id="Path_35" data-name="Path 35" d="M293.359,202.939a43.625,43.625,0,0,0-.221-5.611c-.08-.764-1.267-.764-1.207,0a43.625,43.625,0,0,1,.221,5.611.6.6,0,1,0,1.207,0Z" transform="translate(-291.929 -196.755)" fill="#b96944"/>
                  </g>
                </g>
                <g id="Group_40" data-name="Group 40" transform="translate(160.841 23.3)">
                  <g id="Group_39" data-name="Group 39">
                    <path id="Path_36" data-name="Path 36" d="M293.082,202.937a5.324,5.324,0,0,0,1.488-2.212,24.417,24.417,0,0,1,1.89-2.876c.463-.6-.563-1.207-1.026-.6a24.621,24.621,0,0,0-1.528,2.252c-.4.664-.764,1.991-1.428,2.413-.644.4-.04,1.428.6,1.026Z" transform="translate(-292.203 -196.996)" fill="#b96944"/>
                  </g>
                </g>
              </g>
            </g>
            <g id="Group_66" data-name="Group 66" transform="translate(0 306.789)">
              <path id="Path_37" data-name="Path 37" d="M311.324,406.153c0-2.333-57.392-4.243-128.177-4.243S54.97,403.8,54.97,406.153c0,2.333,57.392,4.243,128.177,4.243S311.324,408.506,311.324,406.153Z" transform="translate(-54.97 46.913)" fill="#6756ad" opacity="0.25"/>
              <g id="Group_65" data-name="Group 65" transform="translate(8.305)">
                <path id="Path_38" data-name="Path 38" d="M162.808,183.271a59.411,59.411,0,0,0-7.722-.925c-4.585-.422-8.768,2.554-12.247,5.57-3.479,3.037-5.972,7-8.225,11.02-2.292,4.1-4.444,8.868-3.077,13.373a11.89,11.89,0,0,1,.9,3.459c-.04,3.72-5.188,5.128-6.8,8.506-1.991,4.163,2.071,9.753-.684,13.453-1.367,1.85-4.022,2.433-5.309,4.323-1.026,1.488-.985,3.439-.9,5.249a1.5,1.5,0,0,0,.322,1.026,1.583,1.583,0,0,0,.865.282c14.68,1.408,29.219-1.77,43.9-.362a26.244,26.244,0,0,0,5.329.141,25.369,25.369,0,0,0,7.239-2.413c12.689-5.792,25.4-7.28,37.786-13.654a2.733,2.733,0,0,0,1.327-1.086,2.23,2.23,0,0,0,.141-1.307,8.694,8.694,0,0,0-5.872-7.219c-3.238-1.005-7.1-.121-9.793-2.172-1.951-1.468-2.654-4.062-2.916-6.5-.523-4.927.04-10.638-3.539-14.1-2.8-2.7-7.28-3-10.1-5.671-1.609-1.528-2.453-3.66-3.76-5.45-3.761-5.289-10.216-8.345-16.872-5.55" transform="translate(1.164 -175.186)" fill="#594656"/>
                <g id="Group_43" data-name="Group 43" transform="translate(25.378 173.787)">
                  <path id="Path_39" data-name="Path 39" d="M185.78,269.081,103.935,528.07,71.72,540.5h47.82l92.4-243.987a4,4,0,0,1,3.76-2.594h0a4.023,4.023,0,0,1,4,4.464l-24.352,242.1h48.383L211.44,529.8s30.1-140.786,36.8-184.845-3.016-75.189-3.016-75.189S213.853,259.831,185.78,269.081Z" transform="translate(-71.72 -265.14)" fill="#53648c"/>
                </g>
                <g id="Group_44" data-name="Group 44" transform="translate(140.384 77.562)">
                  <path id="Path_40" data-name="Path 40" d="M128.91,224.249c7.5-7.843,37.323-8.727,48.1-4.3s30.606,61.7,30.606,61.7l-19.727,7.742L175.644,241.5l-38.369-5.289Z" transform="translate(-128.91 -217.289)" fill="#e1806d"/>
                </g>
                <g id="Group_45" data-name="Group 45" transform="translate(138.353 82.671)">
                  <path id="Path_41" data-name="Path 41" d="M180.345,245.972s3.358-7.923,4.082-14.036-7.6-12.106-7.6-12.106L131.7,231.53l2.815,26.886L127.9,312.735l57.352,2.132-5.771-68.653" transform="translate(-127.9 -219.83)" fill="#e1806d"/>
                </g>
                <g id="Group_46" data-name="Group 46" transform="translate(144.665 104.267)">
                  <path id="Path_42" data-name="Path 42" d="M131.946,236.664a.882.882,0,0,1-.543-.181.925.925,0,0,1-.181-1.287l3.217-4.263a.919.919,0,0,1,1.468,1.106l-3.2,4.263A.991.991,0,0,1,131.946,236.664Z" transform="translate(-131.039 -230.569)" fill="#5d95ba"/>
                </g>
                <g id="Group_47" data-name="Group 47" transform="translate(116.916 178.794)">
                  <path id="Path_43" data-name="Path 43" d="M117.24,273.663q5.158-3.016,10.356-6.033" transform="translate(-117.24 -267.63)" fill="#8fcaec"/>
                </g>
                <g id="Group_48" data-name="Group 48" transform="translate(144.211 10.7)">
                  <path id="Path_44" data-name="Path 44" d="M148.2,251.407c-.623-5.993,2.433-12.066-7.239-15.947-13.333-5.349-16.188-51.319,7.883-51.42,24.091-.1,22.9,30.245,22.8,39.254s-8.024,11.3-10.014,14.559-.261,13.554-.261,13.554Z" transform="translate(-130.813 -184.04)" fill="#f5ba9a"/>
                </g>
                <g id="Group_49" data-name="Group 49" transform="translate(138.694 37.888)">
                  <path id="Path_45" data-name="Path 45" d="M137.32,202.909c0,2.956-2.071,5.349-4.625,5.349s-4.625-2.393-4.625-5.349,2.071-5.349,4.625-5.349C135.249,197.58,137.32,199.973,137.32,202.909Z" transform="translate(-128.07 -197.56)" fill="#f5ba9a"/>
                </g>
                <g id="Group_50" data-name="Group 50" transform="translate(181.889 33.765)">
                  <ellipse id="Ellipse_1" data-name="Ellipse 1" cx="4.625" cy="5.349" rx="4.625" ry="5.349" transform="translate(0 0)" fill="#f5ba9a"/>
                </g>
                <path id="Path_46" data-name="Path 46" d="M345.317,255.668l-7.139-18.1-201.9,79.251a42.779,42.779,0,1,0,8.366,25.418,44.362,44.362,0,0,0-.322-5.188L298.08,274.792l8.446,18.581,18.762-8.587-6.6-14.78,6.073-3.218,7.159,14.217,13.413-7.159-7.44-15.162ZM101.873,370.131a27.872,27.872,0,1,1,27.872-27.872,27.872,27.872,0,0,1-27.872,27.872Z" transform="translate(-59.1 -119.225)" fill="#867aff"/>
                <g id="Group_51" data-name="Group 51" transform="translate(89.203 84.521)">
                  <path id="Path_47" data-name="Path 47" d="M154.639,220.75s-50.9,45.327-51.178,53.732,29.983,52.666,29.983,52.666l15.122-9.572-21.2-39.676,34.488-32.879s1.126,7.642,3.881,9.713l1.528-30.245Z" transform="translate(-103.459 -220.75)" fill="#e1806d"/>
                </g>
                <path id="Path_48" data-name="Path 48" d="M166.8,196.85c-6.616.342-35.956,3.318-35.956,3.318s4.283-17.616,17.978-18.3C166.8,180.964,166.8,196.85,166.8,196.85Z" transform="translate(13.425 -175.573)" fill="#594656"/>
                <path id="Path_49" data-name="Path 49" d="M131.491,208.309s23.769-2.232,27.932-13.453c0,0,7.883,10.1,12.508,9.572,0,0,.764-13.272-2.112-15.062s-39.334,1.91-39.334,1.91A57.871,57.871,0,0,0,131.491,208.309Z" transform="translate(12.834 -168.45)" fill="#594656"/>
                <path id="Path_50" data-name="Path 50" d="M118.69,277.717s6.5,13.7,6.857,14.016,1.166,2.856,4.645,1.106c0,0,1.649,4.464,3.8,3.881a20.356,20.356,0,0,0,4.344-1.89s2.614,3.479,4.545,1.629c2.252-2.152.121-4.525-1.488-7.119,0,0-5.027-9.009-4.525-9.552,1.347-1.468,3.66-1.991,8.466,2.393,5.088,4.645,8.627,1.448,5.228-2.333-3.419-3.781-8.084-8.587-10.437-9.552s-6.254.5-6.254.5l-1.146-1.669Z" transform="translate(1.142 -87.319)" fill="#f5ba9a"/>
                <path id="Path_51" data-name="Path 51" d="M196.633,259.12s-3.64,10.356-10.014,12.106-42.069,8.989-42.069,8.989V266.1Z" transform="translate(27.285 -97.439)" fill="#e1806d"/>
                <path id="Path_52" data-name="Path 52" d="M159.371,266h-2.715a16.553,16.553,0,0,0-1.005-2.534c-1.126-1.81-16.067-3.72-15.786-1.75.282,1.951,2.735,2.433,8,3.419,0,0-19.707,4.786-17.857,6.334,1.85,1.569,14.157-2.031,14.157-2.031s-13.333,4.344-12.387,7.3c.543,1.689,14.056-2.293,14.056-2.293s-13.775,4.927-11.322,6.576c2.433,1.669,17.656-2.071,19.124-2.594s2.031-3.358,2.031-3.358l3.72-.623V266Z" transform="translate(12.463 -95.654)" fill="#f5ba9a"/>
                <g id="Group_52" data-name="Group 52" transform="translate(160.57)">
                  <path id="Path_53" data-name="Path 53" d="M138.972,179.646c.523,2.172.744,4.887,1.991,6.8.523.784,1.79.06,1.267-.744-1.146-1.75-1.367-4.424-1.85-6.455-.2-.925-1.629-.523-1.408.4Z" transform="translate(-138.948 -178.719)" fill="#594656"/>
                </g>
                <g id="Group_53" data-name="Group 53" transform="translate(162.438 2.846)">
                  <path id="Path_54" data-name="Path 54" d="M141.25,185.133c.744-1.347,1.548-2.634,2.413-3.921.523-.784-.744-1.528-1.267-.744q-1.3,1.9-2.413,3.921a.735.735,0,0,0,1.267.744Z" transform="translate(-139.877 -180.134)" fill="#594656"/>
                </g>
                <g id="Group_54" data-name="Group 54" transform="translate(166.641 38.491)">
                  <path id="Path_55" data-name="Path 55" d="M141.993,198.2a32.857,32.857,0,0,0,.181,5.068c.1.865.02,2.413.623,3.057.342.382,1.066.342,1.488.422,1.609.241,3.238.442,4.866.644-.08-.2-.181-.422-.261-.623a15.217,15.217,0,0,1-4.6,3.016c-.442.181-.06.824.362.644a15.635,15.635,0,0,0,4.766-3.117c.261-.241.04-.583-.261-.623-1.689-.221-5.128-.04-6.013-1.81-.824-1.669-.483-4.846-.422-6.636a.363.363,0,1,0-.724-.04Z" transform="translate(-141.967 -197.86)" fill="#f49e78"/>
                </g>
                <g id="Group_55" data-name="Group 55" transform="translate(173.48 36.522)">
                  <path id="Path_56" data-name="Path 56" d="M146.116,204.259c.221-1.689-.865-5.611,1.267-6.435,1.89-.724,3.077.845,3.358,2.433.181,1.005.362,1.991.543,3,.08.462.8.261.7-.2-.442-2.453-.543-6.616-4.183-6.133-3.4.462-2.152,5.168-2.433,7.32-.06.5.684.5.744.02Z" transform="translate(-145.368 -196.881)" fill="#514540"/>
                </g>
                <g id="Group_56" data-name="Group 56" transform="translate(154.457 37.527)">
                  <path id="Path_57" data-name="Path 57" d="M136.656,204.759c.221-1.689-.865-5.611,1.267-6.435,1.89-.724,3.077.845,3.358,2.433.181,1.005.362,1.991.543,3,.08.463.8.261.7-.2-.442-2.453-.543-6.616-4.183-6.133-3.4.462-2.152,5.168-2.433,7.32-.06.5.684.5.744.02Z" transform="translate(-135.908 -197.381)" fill="#514540"/>
                </g>
                <g id="Group_57" data-name="Group 57" transform="translate(160.228 48.842)">
                  <path id="Path_58" data-name="Path 58" d="M138.782,203.354c.784,6.133,11.181,7.36,14.981,3.64.342-.322-.181-.845-.523-.523-3.177,3.1-13.011,2.373-13.735-3.117-.04-.463-.784-.463-.724,0Z" transform="translate(-138.778 -203.008)" fill="#f49e78"/>
                </g>
                <g id="Group_58" data-name="Group 58" transform="translate(159.363 48.513)">
                  <path id="Path_59" data-name="Path 59" d="M139.076,204.546a1.431,1.431,0,0,1,1.548-.965c.462.08.664-.623.2-.7a2.149,2.149,0,0,0-2.453,1.468c-.161.463.543.664.7.2Z" transform="translate(-138.348 -202.844)" fill="#f49e78"/>
                </g>
                <g id="Group_59" data-name="Group 59" transform="translate(151.676 45.993)" opacity="0.28">
                  <path id="Path_60" data-name="Path 60" d="M142.015,202.333c.322.824-1.126,2.172-3.338,2.634a5.974,5.974,0,0,1-2.815,0,2.142,2.142,0,0,1-1.267-.8.7.7,0,0,1,.06-.7,2.161,2.161,0,0,1,.824-.744,9.363,9.363,0,0,1,2.534-.9C139.924,201.428,141.673,201.509,142.015,202.333Z" transform="translate(-134.526 -201.591)" fill="#f28279"/>
                </g>
                <g id="Group_60" data-name="Group 60" transform="translate(175.848 44.31)" opacity="0.28">
                  <path id="Path_61" data-name="Path 61" d="M154.035,201.511c.322.824-1.126,2.172-3.338,2.634a5.974,5.974,0,0,1-2.815,0,2.142,2.142,0,0,1-1.267-.8.7.7,0,0,1,.06-.7,2.16,2.16,0,0,1,.824-.744,9.362,9.362,0,0,1,2.534-.9C151.944,200.585,153.713,200.666,154.035,201.511Z" transform="translate(-146.546 -200.754)" fill="#f28279"/>
                </g>
                <g id="Group_61" data-name="Group 61" transform="translate(140.894 40.481)">
                  <path id="Path_62" data-name="Path 62" d="M131.268,198.85a2.337,2.337,0,0,0-2.091,2.755,2.666,2.666,0,0,0,2.473,2.514c.483.04.463-.7,0-.744-1.951-.141-2.574-3.72-.4-3.8.5-.02.5-.744.02-.724Z" transform="translate(-129.164 -198.85)" fill="#f49e78"/>
                </g>
                <g id="Group_62" data-name="Group 62" transform="translate(140.946 41.837)">
                  <path id="Path_63" data-name="Path 63" d="M129.271,200.18a3.344,3.344,0,0,0,2.876,1.267c.463-.04.483-.764,0-.744a2.78,2.78,0,0,1-2.373-1.046c-.261-.382-.784.141-.5.523Z" transform="translate(-129.19 -199.524)" fill="#f49e78"/>
                </g>
                <g id="Group_63" data-name="Group 63" transform="translate(185.89 36.137)">
                  <path id="Path_64" data-name="Path 64" d="M151.8,202.3c1.589.382,2.473-1.066,2.675-2.453a2.677,2.677,0,0,0-2.333-3.157c-.462-.04-.462.7,0,.744a1.947,1.947,0,0,1,1.649,2.091c-.08.945-.563,2.353-1.79,2.051-.463-.1-.664.6-.2.724Z" transform="translate(-151.54 -196.689)" fill="#f49e78"/>
                </g>
                <g id="Group_64" data-name="Group 64" transform="translate(185.961 36.741)">
                  <path id="Path_65" data-name="Path 65" d="M152.209,199.826a3.842,3.842,0,0,0,1.267-2.373c.06-.463-.644-.664-.7-.2a3.227,3.227,0,0,1-1.086,2.031c-.342.322.181.845.523.543Z" transform="translate(-151.575 -196.99)" fill="#f49e78"/>
                </g>
              </g>
            </g>
          </g>
        </g>
        <g id="Component_1_1" data-name="Component 1 – 1" transform="translate(-0.289 589.5)">
          <path id="Subtraction_6" data-name="Subtraction 6" d="M612.506-258.5h557.144V-553.56a389.78,389.78,0,0,0-81.217-28.461,392.336,392.336,0,0,0-43.4-7.438,397.78,397.78,0,0,0-44.88-2.541,398.01,398.01,0,0,0-40.012,2.018,392.87,392.87,0,0,0-38.986,5.946A390.079,390.079,0,0,0,847.575-561.2a392.028,392.028,0,0,0-66.584,36.142,394.784,394.784,0,0,0-58.013,47.867,394.766,394.766,0,0,0-47.866,58.015,392.029,392.029,0,0,0-36.141,66.586A390.073,390.073,0,0,0,616.126-279c-1.377,6.73-2.6,13.628-3.626,20.5Z" transform="translate(750.582 749.343)" fill="#efeff9"/>
          <path id="Subtraction_5" data-name="Subtraction 5" d="M933.214-360.536h573.492a321.079,321.079,0,0,0-42.423-88.869,311.375,311.375,0,0,0-65.6-69.976,296.07,296.07,0,0,0-83.406-45.834,286.749,286.749,0,0,0-95.854-16.445c-3.383,0-6.815.06-10.2.179a287.076,287.076,0,0,0-93.246,18.977,294.027,294.027,0,0,0-80.146,46.6,309.238,309.238,0,0,0-62.453,69.047,319.69,319.69,0,0,0-40.17,86.323Z" transform="translate(-0.011 851.38)" fill="#efeff9"/>
          <path id="Subtraction_3" data-name="Subtraction 3" d="M1165.84-404.5h690.31a400.264,400.264,0,0,0-63.648-76.779,407.059,407.059,0,0,0-81.132-59.177,409.512,409.512,0,0,0-95.031-38.074,414.377,414.377,0,0,0-51.606-10.029A421.333,421.333,0,0,0,1511-592a421.833,421.833,0,0,0-53.863,3.449,414.328,414.328,0,0,0-51.479,10.013,409.515,409.515,0,0,0-95.031,38.074,407.08,407.08,0,0,0-81.134,59.177,400.289,400.289,0,0,0-63.648,76.779h0Z" transform="translate(-863.857 895.343)" fill="#efeff9"/>
          <path id="Subtraction_4" data-name="Subtraction 4" d="M1556.877-101.157h627.511a477.13,477.13,0,0,0,9.879-96.963,480.117,480.117,0,0,0-6.574-79.379,456.407,456.407,0,0,0-18.858-73.936A427,427,0,0,0,2139-418.341a390.59,390.59,0,0,0-39.516-58.293,349.808,349.808,0,0,0-47.9-48.1,310.922,310.922,0,0,0-54.973-36.315A281.78,281.78,0,0,0,1935.866-584a271.071,271.071,0,0,0-32.133-5.968,270.731,270.731,0,0,0-33.1-2.032,270.411,270.411,0,0,0-33.012,2.024A271.089,271.089,0,0,0,1805.41-584a281.794,281.794,0,0,0-60.748,22.951,310.933,310.933,0,0,0-54.973,36.315,349.815,349.815,0,0,0-47.9,48.1,390.6,390.6,0,0,0-39.516,58.293,426.981,426.981,0,0,0-29.839,66.906,456.346,456.346,0,0,0-18.862,73.937A480.194,480.194,0,0,0,1547-198.119a477.2,477.2,0,0,0,9.88,96.963Z" transform="translate(-1547 592)" fill="#efeff9"/>
        </g>
      </g>
    </g>
  </g>
</svg>
