<svg xmlns="http://www.w3.org/2000/svg" width="200.412" height="70.225" viewBox="0 0 200.412 70.225">
  <g id="DBBLRocket" transform="translate(916 -300.48)">
    <rect id="Rectangle_1" data-name="Rectangle 1" width="200.412" height="70.225" transform="translate(-916 300.48)" fill="#8c3494"/>
    <path id="Path_1" data-name="Path 1" d="M306.116,322.866,293.3,335.675l.9,7.193,2.361-4.943,7.3,9.328,10.227-31.467L280.04,329.944l9.216,4.832Z" transform="translate(-1101.175 -11.652)" fill="#fff" fill-rule="evenodd"/>
    <g id="Group_1" data-name="Group 1" transform="translate(-827.803 333.69)">
      <path id="Path_2" data-name="Path 2" d="M278.293,419.34H264.807c-10.284,1.573-11.351,16.52-.111,18.544h13.6V424.4a4.254,4.254,0,0,1,2.135,7.866c.674.788,3.371,3.708,3.371,3.708C290.877,429.866,286.833,419.825,278.293,419.34Zm-4.943,13.486h-7.53c-4.664.28-6.182-7.418-.451-8.428h7.981Z" transform="translate(-256.674 -419.34)" fill="#fff"/>
    </g>
    <path id="Path_3" data-name="Path 3" d="M389.6,404.158h-4.946l-2.135,4.946h6.293a.955.955,0,1,1,0,1.909h-10.9v-8.539h16.745v-5.058H392.19c-.731-10.452-13.232-10.76-16.52-5.058.645.534,3.708,3.259,3.708,3.259a4.274,4.274,0,0,1,7.866,1.8H372.97V415.96h16.072a5.757,5.757,0,0,0,5.731-5.058A6.1,6.1,0,0,0,389.6,404.158Z" transform="translate(-1167.581 -63.727)" fill="#fff" fill-rule="evenodd"/>
    <path id="Path_4" data-name="Path 4" d="M239.467,419.34h-6.519c-2.078,2.529-5.674,12.755,1.461,20.453,0,0,3.091-2.64,3.708-3.145C235.928,434.51,232.275,425.8,239.467,419.34Z" transform="translate(-1065.546 -85.65)" fill="#fff" fill-rule="evenodd"/>
    <path id="Path_5" data-name="Path 5" d="M184.138,481.387a4.084,4.084,0,1,1-4.085-4.087,4.084,4.084,0,0,1,4.085,4.087Z" transform="translate(-1026.807 -127.067)" fill="#fff" fill-rule="evenodd"/>
    <g id="Group_3" data-name="Group 3" transform="translate(-859.496 333.69)">
      <g id="Group_2" data-name="Group 2" transform="translate(0)">
        <path id="Path_6" data-name="Path 6" d="M153.768,419.34c-10.284,1.573-11.351,16.52-.111,18.544h.074a5.094,5.094,0,0,1,9.293,0h4.23V419.34Zm8.54,13.486h-7.529c-4.664.28-6.182-7.418-.448-8.428h7.98v8.428Z" transform="translate(-145.635 -419.34)" fill="#fff" fill-rule="evenodd"/>
      </g>
    </g>
    <g id="Group_9" data-name="Group 9" transform="translate(-851.141 324.725)">
      <g id="Group_5" data-name="Group 5" transform="translate(0 0.142)">
        <g id="Group_4" data-name="Group 4" transform="translate(0 0)">
          <path id="Path_7" data-name="Path 7" d="M179.519,392.866c1.655-.28,2.472-3.682-.226-4.439H174.91v6.462h1.8v-2.023l2.024,2.024h2.811Zm-.214-2.283a.426.426,0,0,1-.425.425h-2.149v-.9h2.149a.426.426,0,0,1,.425.425Z" transform="translate(-174.91 -388.427)" fill="#fff" fill-rule="evenodd"/>
        </g>
      </g>
      <g id="Group_7" data-name="Group 7" transform="translate(6.488 0.04)">
        <g id="Group_6" data-name="Group 6">
          <path id="Path_8" data-name="Path 8" d="M200.914,388.07a3.274,3.274,0,1,0,3.274,3.274,3.274,3.274,0,0,0-3.274-3.274Zm0,4.712a1.438,1.438,0,1,1,1.438-1.438A1.438,1.438,0,0,1,200.914,392.782Z" transform="translate(-197.64 -388.07)" fill="#fff" fill-rule="evenodd"/>
        </g>
      </g>
      <path id="Path_9" data-name="Path 9" d="M266.418,389.838h2.943v-1.9h-2.492a3.3,3.3,0,1,0,0,6.57h2.492v-1.9h-2.943a1.347,1.347,0,0,1-1.065-.525h4.007v-1.724h-4.007A1.347,1.347,0,0,1,266.418,389.838Z" transform="translate(-238.079 -387.937)" fill="#fff" fill-rule="evenodd"/>
      <g id="Group_8" data-name="Group 8" transform="translate(13.369)">
        <path id="Path_10" data-name="Path 10" d="M225.019,392.6a1.355,1.355,0,0,1-1.35-1.35v-.074a1.355,1.355,0,0,1,1.35-1.35h2.8v-1.9h-2.509a3.3,3.3,0,1,0,0,6.57h2.509v-1.9Z" transform="translate(-221.748 -387.93)" fill="#fff" fill-rule="evenodd"/>
      </g>
      <path id="Path_11" data-name="Path 11" d="M292.582,388.38H286.24v1.7h2.323v4.644h1.7v-4.644h2.321Z" transform="translate(-254.465 -388.252)" fill="#fff" fill-rule="evenodd"/>
      <path id="Path_12" data-name="Path 12" d="M248.41,391.525l3.122-3.145H249l-1.755,1.769V388.38h-1.7v6.342h1.7V392.9l1.8,1.818h2.526Z" transform="translate(-225.388 -388.252)" fill="#fff"/>
    </g>
    <g id="Group_10" data-name="Group 10" transform="translate(-804.105 353.504)">
      <path id="Path_13" data-name="Path 13" d="M341.221,494.091a1.21,1.21,0,0,0-.739.528,1.446,1.446,0,0,0-.308.856,1.247,1.247,0,0,0,.108.505c.092.208.214.311.371.311a.6.6,0,0,0,.308-.128l.177.471a.889.889,0,0,1-.465.143.924.924,0,0,1-.591-.228,1.239,1.239,0,0,1-.311-.505,1.571,1.571,0,0,1-.074-.551v-.171a2.125,2.125,0,0,1,.614-1.3,5.005,5.005,0,0,1,.437-.422h.642v.468A.987.987,0,0,1,341.221,494.091Z" transform="translate(-339.695 -492.219)" fill="#fff"/>
      <path id="Path_14" data-name="Path 14" d="M347.311,494.084v2.669h-.534v-.345a.768.768,0,0,0-.271-.457,3.188,3.188,0,0,0-.428-.368.933.933,0,0,0-.542-.171.453.453,0,0,0-.434.257.139.139,0,0,0-.017.071.241.241,0,0,0,.106.191.33.33,0,0,0,.211.086,1.672,1.672,0,0,0,.405-.126l.157.485a1.363,1.363,0,0,1-.6.183.854.854,0,0,1-.488-.148.869.869,0,0,1-.323-.394.641.641,0,0,1-.046-.26.769.769,0,0,1,.374-.691,1,1,0,0,1,.557-.171h.051a.557.557,0,0,0-.148-.314.381.381,0,0,0-.277-.174h-.591v-.328h-.237v-.469h3.436v.468h-.365Zm-.534,0h-1.256a1.1,1.1,0,0,1,.554.9,2,2,0,0,1,.7.528Z" transform="translate(-342.946 -492.226)" fill="#fff"/>
      <path id="Path_15" data-name="Path 15" d="M356.318,494.1v2.669h-.534V494.1h-.394v-.468h1.284v.468Z" transform="translate(-350.914 -492.24)" fill="#fff"/>
      <path id="Path_16" data-name="Path 16" d="M361.636,494.1H359.23v-.468h3.328v.468h-.368v2.669h-.471c-.046-.137-.277-.348-.694-.636a3.313,3.313,0,0,0-.7-.343,2.369,2.369,0,0,0-.762-.177l-.143-.531a5.98,5.98,0,0,1,1.033-.514C360.688,494.458,361.085,494.3,361.636,494.1Zm.031.577c-.1.034-.206.071-.32.117-.168.074-.471.208-.913.4l-.1.046a4.508,4.508,0,0,1,1.21.654l.126.094Z" transform="translate(-353.658 -492.24)" fill="#fff"/>
      <path id="Path_17" data-name="Path 17" d="M370.928,494.1v2.669h-.534V494.1H370v-.468h1.284v.468Z" transform="translate(-361.354 -492.24)" fill="#fff"/>
      <path id="Path_18" data-name="Path 18" d="M373.84,491.549v-.468h1.576a.326.326,0,0,0,.006-.04.464.464,0,0,0-.345-.482.391.391,0,0,0-.1-.011.841.841,0,0,0-.211.034c-.114.031-.183.048-.2.051a.6.6,0,0,0-.237.086,1.856,1.856,0,0,1-.3.163l-.171-.4a2.909,2.909,0,0,1,.8-.362,1.442,1.442,0,0,1,.4-.06.935.935,0,0,1,.448.143.976.976,0,0,1,.442.876h.305v.468H373.84Zm1.855,3.117a6.855,6.855,0,0,0-.691-.548,2.817,2.817,0,0,0-.585-.271,2.206,2.206,0,0,0-.38-.117l.006-.625q.069,0,.206.009c.092.006.163.009.208.009a1.561,1.561,0,0,0,.591-.094c.288-.12.431-.263.431-.428a.356.356,0,0,0-.166-.3c-.106-.063-.214-.123-.323-.18a.215.215,0,0,0-.092-.023.561.561,0,0,0-.211.048c-.094.043-.137.094-.131.148.02.14.166.2.437.174l-.288.442a.554.554,0,0,1-.357-.111.642.642,0,0,1-.328-.542.55.55,0,0,1,.334-.5,1.281,1.281,0,0,1,.625-.148.653.653,0,0,1,.263.048c.074.034.148.071.226.111a.9.9,0,0,1,.545.842.782.782,0,0,1-.334.654,1.725,1.725,0,0,1-.731.271c.094.046.231.12.408.226a7.9,7.9,0,0,1,.731.614Z" transform="translate(-364.098 -489.691)" fill="#fff"/>
      <path id="Path_19" data-name="Path 19" d="M384.917,494.105v2.669h-.534v-1.059a.464.464,0,0,0-.12-.285.336.336,0,0,0-.254-.145.306.306,0,0,0-.237.154.588.588,0,0,0-.114.351h-.577a.638.638,0,0,0-.114-.382.319.319,0,0,0-.263-.16.384.384,0,0,0-.24.088.3.3,0,0,0-.126.206l-.017.14v.054c0,.274.168.411.5.411a1.837,1.837,0,0,0,.271-.034l-.188.539c-.108.011-.177.02-.2.02a1.021,1.021,0,0,1-.691-.277.768.768,0,0,1-.206-.323,1.065,1.065,0,0,1-.074-.377.958.958,0,0,1,.265-.7.938.938,0,0,1,.7-.268.754.754,0,0,0,1.313,0,.519.519,0,0,1,.362.171v-.787H381.5v-.468h3.722v.468h-.305Z" transform="translate(-369.571 -492.247)" fill="#fff"/>
      <path id="Path_20" data-name="Path 20" d="M401.476,494.1H399.07v-.468H402.4v.468h-.371v2.669h-.471c-.046-.137-.277-.348-.694-.636a3.315,3.315,0,0,0-.7-.343,2.369,2.369,0,0,0-.762-.177l-.143-.531a5.98,5.98,0,0,1,1.033-.514C400.528,494.458,400.926,494.3,401.476,494.1Zm.031.577c-.1.034-.206.071-.32.117-.168.074-.471.208-.913.4l-.1.046a4.507,4.507,0,0,1,1.21.654l.126.094Z" transform="translate(-382.127 -492.24)" fill="#fff"/>
      <path id="Path_21" data-name="Path 21" d="M411.044,494.091a1.086,1.086,0,0,0-.254.58,5.259,5.259,0,0,0,.26.845,1.929,1.929,0,0,1,.134.617.667.667,0,0,1-.522.651,2.459,2.459,0,0,1-.568.1l.071-.462c.314-.066.474-.177.474-.334a1.9,1.9,0,0,0-.2-.668,1.9,1.9,0,0,1-.2-.662,1.412,1.412,0,0,1,.228-.668h-.557v-.469h1.49v.468h-.362Z" transform="translate(-389.876 -492.233)" fill="#fff"/>
      <path id="Path_22" data-name="Path 22" d="M415.551,494.1v2.669h-.537V494.1h-.394v-.468H415.9v.468Z" transform="translate(-393.238 -492.24)" fill="#fff"/>
      <path id="Path_23" data-name="Path 23" d="M420.105,495.566a.8.8,0,0,1-.6-.237.839.839,0,0,1-.226-.608.779.779,0,0,1,.231-.574.787.787,0,0,1,.58-.231.7.7,0,0,1,.679.471.964.964,0,0,1,.091.394.8.8,0,0,1-.2.571A.711.711,0,0,1,420.105,495.566Zm.585,1.718a8.775,8.775,0,0,0-1.379-1.028l.006-.739a8.557,8.557,0,0,1,1.827,1.593v.548Zm-.474-2.806a.231.231,0,0,0-.16-.046c-.2.034-.3.134-.3.3a.351.351,0,0,0,.1.237.3.3,0,0,0,.226.108l.074-.011a.28.28,0,0,0,.228-.277A.361.361,0,0,0,420.216,494.479Z" transform="translate(-396.563 -492.444)" fill="#fff"/>
      <path id="Path_24" data-name="Path 24" d="M428.622,489.837a3.131,3.131,0,0,0-1.527-.588,1.2,1.2,0,0,0-1.03.445.834.834,0,0,0-.126.454h.374v.468h-.374v2.669H425.4v-2.669h-.357v-.468h.357a1.3,1.3,0,0,1,.374-.922,1.633,1.633,0,0,1,.97-.437c.043,0,.12-.014.24-.029h.114a2.42,2.42,0,0,1,.97.211,9.229,9.229,0,0,1,.856.488Z" transform="translate(-400.684 -488.761)" fill="#fff"/>
      <path id="Path_25" data-name="Path 25" d="M430.466,494.1v.017a1.666,1.666,0,0,1,.7.211.843.843,0,0,1,.511.756.728.728,0,0,1-.171.482.814.814,0,0,1-.445.268,1.065,1.065,0,0,1-.468.02v-.5a1.187,1.187,0,0,0,.168.011c.268,0,.4-.1.4-.288,0-.228-.231-.374-.694-.434v2.129H430a1.478,1.478,0,0,0-.228-.343q-.039-.043-.206-.265a1.051,1.051,0,0,0-.188-.183,1.052,1.052,0,0,1-.188-.183.273.273,0,0,0-.126-.071,1.843,1.843,0,0,0-.562-.123l-.143-.531c.117-.086.382-.243.8-.477q.047-.034.377-.223c.08-.048.214-.126.4-.231v-.04H428.24v-.467H431.9v.468Zm-.534.617c-.086.066-.22.154-.4.265a.576.576,0,0,0-.157.114c-.06.057-.114.111-.168.157.057.051.148.123.274.217.117.134.268.3.448.494Z" transform="translate(-402.971 -492.24)" fill="#fff"/>
      <path id="Path_26" data-name="Path 26" d="M441.805,495.566a.8.8,0,0,1-.6-.237.839.839,0,0,1-.225-.608.779.779,0,0,1,.231-.574.787.787,0,0,1,.58-.231.7.7,0,0,1,.679.471.963.963,0,0,1,.091.394.8.8,0,0,1-.2.571A.71.71,0,0,1,441.805,495.566Zm.582,1.718a8.775,8.775,0,0,0-1.379-1.028l.006-.739a8.556,8.556,0,0,1,1.827,1.593v.548Zm-.471-2.806a.231.231,0,0,0-.16-.046c-.2.034-.3.134-.3.3a.351.351,0,0,0,.1.237.3.3,0,0,0,.226.108l.074-.011a.28.28,0,0,0,.228-.277A.361.361,0,0,0,441.916,494.479Z" transform="translate(-412.069 -492.444)" fill="#fff"/>
    </g>
    <g id="Group_18" data-name="Group 18" transform="translate(-840.857 354.896)">
      <path id="Path_27" data-name="Path 27" d="M237.14,504.548l1,.337.4-.337-.993-.348Z" transform="translate(-229.662 -501.186)" fill="#fff"/>
      <g id="Group_11" data-name="Group 11" transform="translate(0 0)">
        <path id="Path_28" data-name="Path 28" d="M218.749,494.24v-.6H210.94v.6h1.313v1.344h1.127s.32-.1.4-.265v.531a.426.426,0,0,1-.4.442h-1.658c-.1,0-.2-.046-.2-.442V494.6h-.582V496.2c0,.131.083.6.5.6h2.246a.713.713,0,0,0,.619-.668V494.6h-.531c-.054.237-.023.4-.265.457h-.662v-.814h1.924v2.566h.662V494.24h.465v2.566h2.189a.68.68,0,0,0,.662-.691V494.6h-.531c0,.148-.023.368-.265.368H216.5v-.725Zm-.862,1.255c.1.029.231-.131.331-.265v.619c0,.237-.188.442-.331.442h-1.393v-.8Z" transform="translate(-210.94 -493.637)" fill="#fff"/>
      </g>
      <rect id="Rectangle_2" data-name="Rectangle 2" width="1.327" height="0.708" transform="translate(8.54 1.327)" fill="#fff"/>
      <g id="Group_12" data-name="Group 12" transform="translate(10.598 0)">
        <path id="Path_29" data-name="Path 29" d="M248.07,493.64v.6h2.183v.357H248.07v1.43c.049.465.285.779.739.779h1.975v-2.566h.465v2.566h.6V493.64Zm2.183,2.743h-1.327c-.2-.029-.331-.265-.331-.531v-.708h1.658Z" transform="translate(-248.07 -493.64)" fill="#fff"/>
      </g>
      <path id="Path_30" data-name="Path 30" d="M271.33,494.242h2.706v.357h-.8a.267.267,0,0,1-.531,0H271.33v1.518c0,.148.023.631.428.691h1.085v-.514h-.728a.336.336,0,0,1-.265-.354v-.8h.731v.442h.662v-.354c-.046-.163.7-.148.731,0v1.576h.6v-2.566h.4v2.566h.6V493.64h-4.23v.6Z" transform="translate(-254.094 -493.64)" fill="#fff"/>
      <g id="Group_14" data-name="Group 14" transform="translate(14.884 0.177)">
        <g id="Group_13" data-name="Group 13">
          <path id="Path_31" data-name="Path 31" d="M264.5,494.26h-1.41v.831a.685.685,0,0,0,.679.619H264.9v-1.025A.487.487,0,0,0,264.5,494.26Zm-.428.888c-.254,0-.459-.094-.459-.208s.206-.208.459-.208.459.094.459.208S264.326,495.148,264.072,495.148Z" transform="translate(-263.09 -494.26)" fill="#fff"/>
        </g>
      </g>
      <path id="Path_32" data-name="Path 32" d="M263.43,500.44v.522l1.7.7v-.554Z" transform="translate(-248.448 -498.499)" fill="#fff"/>
      <g id="Group_16" data-name="Group 16" transform="translate(29.17 0.177)">
        <g id="Group_15" data-name="Group 15">
          <path id="Path_33" data-name="Path 33" d="M314.55,494.26h-1.41v.831a.685.685,0,0,0,.679.619h1.127v-1.025A.491.491,0,0,0,314.55,494.26Zm-.428.888c-.254,0-.459-.094-.459-.208s.206-.208.459-.208.46.094.46.208S314.376,495.148,314.122,495.148Z" transform="translate(-313.14 -494.26)" fill="#fff"/>
        </g>
      </g>
      <path id="Path_34" data-name="Path 34" d="M313.47,500.44v.522l1.7.7v-.554Z" transform="translate(-284.206 -498.499)" fill="#fff"/>
      <path id="Path_35" data-name="Path 35" d="M323.954,494.6v-.357h1.1v-.6H321.24v.6h2.183v.357H321.24v1.43c.048.465.285.779.739.779h1.975V495.23h.531c.088,0,.111-.046.131.088v.265c-.034.131-.046.223-.131.266h-.194v.531h.394a.494.494,0,0,0,.4-.354V494.6Zm-.531,1.784H322.1c-.2-.029-.331-.266-.331-.531v-.708h1.647l.009.089h0Z" transform="translate(-289.759 -493.637)" fill="#fff"/>
      <g id="Group_17" data-name="Group 17" transform="translate(23.253 0)">
        <path id="Path_36" data-name="Path 36" d="M292.41,493.64v.6h2.183v.357H292.41v1.43c.046.465.285.779.739.779h1.975v-2.566h.691l-.251.5v.354h.465c.246.029.331.191.331.619,0,.294-.069.508-.3.531h-.434v.531h.465c.131,0,.739.06.8-.531.066-1.2.123-1.5-.731-1.593l.126-.414h.933v2.566h.6V493.64Zm2.183,2.743h-1.327c-.2-.029-.331-.265-.331-.531v-.708h1.658Z" transform="translate(-292.41 -493.64)" fill="#fff"/>
      </g>
    </g>
  </g>
</svg>
