<svg xmlns="http://www.w3.org/2000/svg" width="200" height="70" viewBox="0 0 200 70">
  <g id="Nogod" transform="translate(36 8.6)">
    <rect id="Rectangle_1" data-name="Rectangle 1" width="200" height="70" transform="translate(-36 -8.6)" fill="none"/>
    <path id="Path_1" data-name="Path 1" d="M83.8,17.6H63a.684.684,0,0,0-.7.7v1.6a.684.684,0,0,0,.7.7H78.5v8.6A11.92,11.92,0,0,0,77,27.4a7.987,7.987,0,0,0-5.8-2.8,5.026,5.026,0,0,0-4.1,2.3,6.941,6.941,0,0,0-1.4,4A8.019,8.019,0,0,0,67,35.6a5.931,5.931,0,0,0,5.1,2.5c2.4,0,4.4-1.7,4.4-3.8a3.057,3.057,0,0,0-1.8-2.9l-1.1-.6v1.7a2.109,2.109,0,0,1-1.9,1.2,2.629,2.629,0,0,1-2-.8,1.792,1.792,0,0,1-.4-1.4,2.51,2.51,0,0,1,.7-1.7,2.138,2.138,0,0,1,1.8-.9,6.148,6.148,0,0,1,5.2,3,9.458,9.458,0,0,1,1.7,5.2v4.3l3.1,1.9a.367.367,0,0,0,.3.1.684.684,0,0,0,.7-.7h0V20.6H84a.684.684,0,0,0,.7-.7V18.3C84.4,17.9,84.1,17.6,83.8,17.6Z" fill="#ec1c24"/>
    <path id="Path_2" data-name="Path 2" d="M125.3,17.6H99a.684.684,0,0,0-.7.7h0v2.9c-2.5-2.7-4.8-4-6.9-4a8.236,8.236,0,0,0-5,1.5,4.853,4.853,0,0,0-2.1,3.9c0,4.6,5.2,4.6,6.4,3.9a1.9,1.9,0,0,1,.9-.3A1.385,1.385,0,0,1,93,27.7c0,1.1-1.5,2-3.3,2a2.336,2.336,0,0,1-2.1-.9l-.8-1.2L86.2,29a3.5,3.5,0,0,0-.3,1.2,3.649,3.649,0,0,0,1.5,2.9,5.163,5.163,0,0,0,3.3,1.2,5.671,5.671,0,0,0,4.7-2.1,6.2,6.2,0,0,0,1.3-4,4.529,4.529,0,0,0-1-2.7,3.526,3.526,0,0,0-3-1.8,4.936,4.936,0,0,0-1.5.3c-.2-.1-.5,0-.6,0a.867.867,0,0,1-.7-.4,1.333,1.333,0,0,1-.4-1,2.641,2.641,0,0,1,2.9-2.3h.1a5.186,5.186,0,0,1,3.6,1.8,11.288,11.288,0,0,1,2.2,2.8V41.3l3.1,1.8a.367.367,0,0,0,.3.1.684.684,0,0,0,.7-.7h0v-22h4.7V34.7l3.7,1.5h.2a.858.858,0,0,0,.7-.6v-.1c.6-4.2,2.5-7.1,5.6-8.9v.8c0,.6,0,2.1.1,3a3.42,3.42,0,0,0,.1,1.1h0a21.572,21.572,0,0,0,.8,6c1,3.5,2.8,4.3,4.1,4.4h.1a2.2,2.2,0,0,0,1.7-.6,1.972,1.972,0,0,0,.5-1.3,2.81,2.81,0,0,0-.3-1.5l-.3-.5-.6.1c-.7.2-.9.2-.9.1h-.1c-.2,0-.2,0-.3-.1-.2-.1-.6-.5-.9-1.6a12.972,12.972,0,0,1-.3-2.6c0-4.6,1-8.1,2.4-8.9h.1a.675.675,0,0,0,.4-.6.367.367,0,0,0-.1-.3V24c-.7-1.4-2.2-2.4-4.3-3h-.4c-1.6.3-3.6,1.4-6.1,3.5-.6.5-1.2,1.1-1.8,1.6V20.4h14.2a.684.684,0,0,0,.7-.7V18.1A.953.953,0,0,0,125.3,17.6Z" fill="#ec1c24"/>
    <g id="Group_1" data-name="Group 1">
      <path id="Path_3" data-name="Path 3" d="M50.7,28.2a13.4,13.4,0,0,1-.1,2,24.2,24.2,0,0,1-2.1,8.1,26.938,26.938,0,0,1-1.6,2.9A24.335,24.335,0,1,1,15.5,6.4,23.263,23.263,0,0,0,13.8,9c0,.1-.1.1-.1.2h0c-.3.3-.6.5-.9.8a11.408,11.408,0,0,0-1.1,1.1c-.1.1-.2.2-.2.3-.1.1-.2.2-.2.3l-.4.4a5.5,5.5,0,0,0-.7.9,22.982,22.982,0,0,0-2.5,4.3c-.1.2-.1.3-.2.5s-.1.4-.2.5c-.3.2-.3.3-.3.4l-.3.9c-.1.2-.1.4-.2.6,0,.1-.1.2-.1.3,0,.2-.1.4-.1.6A8.585,8.585,0,0,0,6,22.8a.9.9,0,0,1-.1.5v1h0v1.5a21.034,21.034,0,0,0,7.8,16.4,21.306,21.306,0,0,0,25.9.8,19.887,19.887,0,0,0,6.2-7c.2-.4.4-.7.6-1.1h0a21.59,21.59,0,0,0,2-8.4v-.7a14.769,14.769,0,0,0-.1-2.1l.1.1a3.915,3.915,0,0,0,1,.8,7.1,7.1,0,0,1,1-1.4,26.956,26.956,0,0,1,.4,2.8,8.305,8.305,0,0,0-.1,2.2" fill="#ec1c24"/>
      <path id="Path_4" data-name="Path 4" d="M48.3,25.8v.7a21.047,21.047,0,0,1-2,8.4h0c-.2.4-.4.7-.6,1.1a20.911,20.911,0,0,1-6.2,7,21.306,21.306,0,0,1-25.9-.8A21.034,21.034,0,0,1,5.8,25.8V24.3h0v-1a.9.9,0,0,1,.1-.5c.1-.6.3-1.2.4-1.8,0-.2.1-.4.1-.6,0-.1.1-.2.1-.3.1-.2.1-.4.2-.6.1-.3.2-.5.3-.8,0-.1.1-.2.1-.3.1-.2.1-.4.2-.5.1-.2.1-.3.2-.5A20.179,20.179,0,0,1,10,13.1c.2-.3.5-.6.7-.9.1-.1.2-.3.4-.4.1-.1.1-.2.2-.3s.2-.2.2-.3a11.408,11.408,0,0,1,1.1-1.1,6.47,6.47,0,0,1,.9-.8h0a.349.349,0,0,1-.1.2c0,.1-.1.2-.1.3A25.314,25.314,0,0,0,11,18.4a21.75,21.75,0,0,0-.1,2.6c0,11.1,6.5,20.1,14.6,20.1h.9a12.7,12.7,0,0,0,3.4-.5,12.87,12.87,0,0,0,9.5-12.4v-.4a12.553,12.553,0,0,0-4-8.9,18.54,18.54,0,0,1,4.8.7,22.306,22.306,0,0,1,8,4l.1.1c0,.7.1,1.4.1,2.1" fill="#f6921e"/>
      <path id="Path_5" data-name="Path 5" d="M48.3,25.8v.7a21.426,21.426,0,0,1-2,8.5c-.2.4-.4.7-.6,1.1a22.269,22.269,0,0,1-6.2,7.1A21.34,21.34,0,0,1,13.6,9.3l.2-.2c0,.1-.1.1-.1.2a.349.349,0,0,1-.1.2,21.21,21.21,0,0,0,.2,32.7A20.213,20.213,0,0,0,27,47a21.314,21.314,0,0,0,12.4-4,21.917,21.917,0,0,0,6.2-7c.2-.4.4-.7.6-1.1a18.974,18.974,0,0,0,2-8.4v-.7a12.75,12.75,0,0,0-.1-2v-.1l.1.1.1.1v1.9" fill="#f6921e"/>
      <path id="Path_6" data-name="Path 6" d="M42.5,12.6S25.1,9.3,17,24.4c0,0,1.4-10.4,13.8-15.2L28.3,4.6S33.3.1,42,1.3Z" fill="#ec1c24"/>
      <path id="Path_7" data-name="Path 7" d="M21,20.6s6.9-9.1,22.8-6.7l-.2-5.3a19.385,19.385,0,0,1,12,4.4L49,23s-4.5-5.3-13.9-5.4a30.09,30.09,0,0,0-14.1,3" fill="#f6921e"/>
      <path id="Path_8" data-name="Path 8" d="M24.7,24.1s-1.5.3-1.4-.4c0-.3.2-.4.3-.3,0-.1-.3-.5.4-.7a9.223,9.223,0,0,0,.5-.8c.1-.2.2-.5.8-.3a2.28,2.28,0,0,1,1.3.9,1.452,1.452,0,0,1,.6.1l-.2.2s.2.1-.4.1a.215.215,0,0,0,.2.2c.1.1,0,.1,0,.2,0,0,.1.3-.2.2s-.3-.2-.4-.2-.3,0-.3.1.3.3,0,.3c-.1.1.1.2,0,.2a5.248,5.248,0,0,1-1.1.7c-.3,0-.4-.1-.4-.2s.2-.2.4-.2c-.1,0,0-.1-.1-.1" fill="#ec1c24"/>
      <path id="Path_9" data-name="Path 9" d="M24.6,25.7c-.1,0-.6-.3-.3-.4a10.986,10.986,0,0,1,1.4-.9.224.224,0,0,1,.2.4,10.565,10.565,0,0,1-1.3.9" fill="#ec1c24"/>
      <path id="Path_10" data-name="Path 10" d="M26.1,25c0-.2.2-.8.2-.9s.5-.2.4.4c-.2.5-.6.7-.6.5" fill="#ec1c24"/>
      <path id="Path_11" data-name="Path 11" d="M26.8,23.8a29.944,29.944,0,0,1,3,0,3.64,3.64,0,0,1,.9,2.9c-.2,1.3-.6,1.6-2.4,1.8a5.23,5.23,0,0,0-.3-1.8c-.2-.3-.8-1-1-1,0,.3-.1,1.2-.1,1.2s-.9.1-1-.1V25.4a7.531,7.531,0,0,0,.9-.9c.1.1.2.5,1.1.4,0,.1-1.1.2-1.1-1.1" fill="#ec1c24"/>
      <path id="Path_12" data-name="Path 12" d="M25.7,25.1s-.9.7-1.1.9c-.1.2-.2,1,.9,1a7.988,7.988,0,0,0,.2-1.9" fill="#ec1c24"/>
      <path id="Path_13" data-name="Path 13" d="M23.6,26.2c-.3,0-.5-.1-.5-.3a.6.6,0,0,1,.7-.4c.2.1.7.2.7,1.1a2.036,2.036,0,0,0,1.4.6c.7,0,1.1,0,1.1.2v1.3s-.8,0-2.8-1.4a.908.908,0,0,1-.3-.7c0-.3-.2-.4-.3-.4" fill="#ec1c24"/>
      <path id="Path_14" data-name="Path 14" d="M23,26.3c-.3,0-1.3.8-.6,1.1l.4-.4s-.2.5.2.6.2-.2.4-.2c.1.2.1.3.3.3s.2-.6,0-.9a.666.666,0,0,0-.7-.5" fill="#ec1c24"/>
      <path id="Path_15" data-name="Path 15" d="M27.2,26.4V29s.8-.3.9-.5c0-.4-.2-2.1-.9-2.1" fill="#ec1c24"/>
      <path id="Path_16" data-name="Path 16" d="M25.1,28.1a8.8,8.8,0,0,0,1.6.9c-.1.1-.5.7-.7.6a3.883,3.883,0,0,1-.9-1.5" fill="#ec1c24"/>
      <path id="Path_17" data-name="Path 17" d="M21.6,29.6H20.3l-.1-.5h1.4Z" fill="#ec1c24"/>
      <path id="Path_18" data-name="Path 18" d="M30.3,29.5h4.8v-.7H29.4Z" fill="#ec1c24"/>
      <path id="Path_19" data-name="Path 19" d="M28.3,28.8c.1-.1.8.4.6.5s-2,.8-2.1.8c-.2-.1-.1-.5.1-.6a9,9,0,0,0,1.4-.7" fill="#ec1c24"/>
      <path id="Path_20" data-name="Path 20" d="M26.3,30c-.2-.1-1.3,1-.8,1.1a9.725,9.725,0,0,1,2,.5.79.79,0,0,0,.5-.5c.2,0,.5.3.8.2A5.861,5.861,0,0,0,30.5,30a3.379,3.379,0,0,0-1.2-.6c-.2-.1-2,1-3,.6" fill="#ec1c24"/>
      <path id="Path_21" data-name="Path 21" d="M25.7,31.4c.1,0,1.6.5,1.9.5.4-.1.4-.4.6-.4s.3.2.6,0a13.5,13.5,0,0,0,1.1-.9c0,.2,0,.8-1.3,1.4s-4.4,1.5-4.5,1.9a4.5,4.5,0,0,0,.8-.2,1.138,1.138,0,0,1,.4,1.2c-.1.7-.6,1.8-.6,2.1v1.9c0,.1.3,1-.1.9a1.069,1.069,0,0,0-.8,0c-.2,0-.5.3-.7.2-.3,0-.7-.2-.7-.3s.3-.1.6-.2.4-.4.9-.6c0-.3-.2-2.8-.2-3.3s-.2-1.6.1-2c.2-.6,1.4-2.3,1.9-2.2" fill="#ec1c24"/>
      <path id="Path_22" data-name="Path 22" d="M27.6,32.8c0,.2.9,2.4,1.3,2.4s4.1-.8,4.8-.5c.2.3.6.8.6,1.1,0,0,.1.7,0,.8a.683.683,0,0,0,.5-.3,6.552,6.552,0,0,0,0-1.4c0-.2.5-1.1-.1-1a28.1,28.1,0,0,1-2.9-.1c-.5-.1-1.8-.4-2.1-.2a2.3,2.3,0,0,0-.7.8c-.1,0-.2-.1,0-.5a6.477,6.477,0,0,0,.5-2.1c-.3.1-1.9,1-1.9,1" fill="#ec1c24"/>
      <path id="Path_23" data-name="Path 23" d="M25.5,29.3a.758.758,0,0,0,.2.4l-2.9-.2s-.3-.2-.2-.3Z" fill="#ec1c24"/>
      <path id="Path_24" data-name="Path 24" d="M22.3,29.1h2.9s-.2-.3-.3-.5H22.2s-.3,0-.3.6c0,.1.2.3.4-.1" fill="#ec1c24"/>
      <path id="Path_25" data-name="Path 25" d="M19.5,29.6h.6s.2-.1,0-.3-.6-.4-.3-.8c-.3,0-.7-.1-.6.8h-.3s-.1-.5-.8-.5a10.237,10.237,0,0,0-2.4.7,19.224,19.224,0,0,0,2.4.5,1.054,1.054,0,0,0,.8-.5h.2a1.689,1.689,0,0,0,.2.5v.6a.31.31,0,0,0-.2.4c0,.3.2.3.3.3s.1-.1.4-.1c.1-.1,0-.5-.2-.6v-.4s.2-.2.2-.3c-.1-.2-.3-.1-.3-.3" fill="#ec1c24"/>
      <path id="Path_26" data-name="Path 26" d="M23,32.4h0a.781.781,0,0,0,.3-.4h0V30.3c0-.4-.7-.7-.8-.7h0a.758.758,0,0,1-.4.2.551.551,0,0,1-.5-.2h0c-.6,0-.9.7-.9.8h0a8.533,8.533,0,0,0,0,1.6.85.85,0,0,0,.3.5c-.1.4-.7,2.7.1,3v.4h2v-.4c.6-.5.1-2.5-.1-3.1m-2.3-2.1a.879.879,0,0,1,.7-.6.735.735,0,0,0,.6.2c.2,0,.4-.2.5-.2.2.1.6.3.6.6V32c0,.1-.1.2-.2.3h-.4v-.8H21.2v.7h-.3a.52.52,0,0,1-.2-.4c0-.1,0-1,0-1.5M22.1,35h-.4a.2.2,0,1,1,0-.4h.4a.2.2,0,1,1,0,.4m.8.2-1-1.1L21,35.2h0c-.6-.2-.2-2,0-2.8h1.9c.2.8.5,2.5,0,2.8" fill="#ec1c24"/>
      <path id="Path_27" data-name="Path 27" d="M22.6,33.2a.353.353,0,0,0-.1-.5H21.3c-.4,0-.3.5-.3.5l.7.6a1.59,1.59,0,0,0,.9-.6" fill="#ec1c24"/>
      <path id="Path_28" data-name="Path 28" d="M22.1,33.9l.7.8s-.1-1-.1-1.3c-.1.1-.6.5-.6.5" fill="#ec1c24"/>
      <path id="Path_29" data-name="Path 29" d="M21.1,33.4c0,.3-.1,1.3-.1,1.3l.7-.8a3.807,3.807,0,0,0-.6-.5" fill="#ec1c24"/>
      <path id="Path_30" data-name="Path 30" d="M22.5,31.3h.1v-.1a.1.1,0,0,0-.1-.1H21.4a.1.1,0,0,0-.1.1v.1h1.2Z" fill="#ec1c24"/>
      <path id="Path_31" data-name="Path 31" d="M20.9,35.9h-.1V36a.1.1,0,0,0,.1.1h2A.1.1,0,0,0,23,36v-.1H20.9Z" fill="#ec1c24"/>
      <path id="Path_32" data-name="Path 32" d="M14.2,28.8S6.3,11.5,24.7.4l4.4,8.1a20.238,20.238,0,0,0-6.2,3.8c-3.5,3-7.2,8-8.7,16.5" fill="#f6921e"/>
    </g>
    <g id="Group_2" data-name="Group 2">
      <path id="Path_33" data-name="Path 33" d="M64.4,49.4v1.3l1.1-.4.3.3V51a1.5,1.5,0,0,1-.4,1.1,1.159,1.159,0,0,1-1,.4,1.425,1.425,0,0,1-1.2-.6,3.458,3.458,0,0,1-.7-1.2l.3-.2c.4,1.1.9,1.6,1.6,1.6a1.025,1.025,0,0,0,1-1,.367.367,0,0,0-.1-.3l-1,.4-.3-.4V49.4H62.3v-.3h3.8v.3H64.4Z" fill="#231f20"/>
      <path id="Path_34" data-name="Path 34" d="M66.9,49.4v3h-.4v-3H66v-.3h1.3v.3Z" fill="#231f20"/>
      <path id="Path_35" data-name="Path 35" d="M69.4,49.4v.2a1.613,1.613,0,0,1,.9.3c.3.2.5.4.5.7a.864.864,0,0,1-.3.6,1.421,1.421,0,0,1-.6.2h-.1V51H70c.3,0,.4-.1.4-.4s-.3-.5-1-.6v2.4H69l-.6-.9a1.284,1.284,0,0,0-1-.4l-.1-.5a12.371,12.371,0,0,1,1.7-1v-.2H67.2v-.3H71v.3H69.4ZM69,50a2.186,2.186,0,0,0-.5.3l-.5.5a1.205,1.205,0,0,1,.5.5,3.807,3.807,0,0,1,.5.6Z" fill="#231f20"/>
      <path id="Path_36" data-name="Path 36" d="M76.1,48.5a3.192,3.192,0,0,0-1.6-.6,1.689,1.689,0,0,0-1,.3.975.975,0,0,0-.4.9h.4v.3h-.4v2.9h-.4V49.4h-.4v-.3h.4a1.656,1.656,0,0,1,.5-1.2,1.594,1.594,0,0,1,1.2-.4,4.4,4.4,0,0,1,1,.2c.2.1.5.3.9.5Z" fill="#231f20"/>
      <path id="Path_37" data-name="Path 37" d="M76.4,49.4v3H76a3,3,0,0,0-1-.9,2.421,2.421,0,0,0-1.3-.4l-.1-.5a3.256,3.256,0,0,1,1.2-.6c.2-.1.6-.2,1.3-.5v-.2H73.4V49h3.5v.3h-.5ZM76,50a11.2,11.2,0,0,0-1.8.8,7.677,7.677,0,0,1,1.8,1Z" fill="#231f20"/>
      <path id="Path_38" data-name="Path 38" d="M76.7,49.1h3.7v.3H76.7Zm2.1,3.3a1.729,1.729,0,0,1-1.2-.6,3.458,3.458,0,0,1-.7-1.2l.2-.2a2.384,2.384,0,0,0,.6,1.1,1.217,1.217,0,0,0,1,.6,1.025,1.025,0,0,0,1-1,1.33,1.33,0,0,1-.8.3,1.072,1.072,0,0,1-.6-.2.864.864,0,0,1-.3-.6,1.421,1.421,0,0,1,.2-.6.845.845,0,0,1,.6-.2c.2,0,.3,0,.4.1a.52.52,0,0,1,.2.4.758.758,0,0,1-.2.4l-.3-.2c.1-.1.1-.1.1-.2a.215.215,0,0,0-.2-.2.354.354,0,0,0-.4.4.707.707,0,0,0,.6.6.909.909,0,0,0,.8-.4l.4.4a1.159,1.159,0,0,1-.4,1,2.935,2.935,0,0,1-1,.3" fill="#231f20"/>
      <path id="Path_39" data-name="Path 39" d="M81.1,49.4v3h-.3v-3h-.5v-.3h1.3v.3Z" fill="#231f20"/>
      <path id="Path_40" data-name="Path 40" d="M83.1,52.6a2,2,0,0,1-.9-.2,1.9,1.9,0,0,1-.5-1.3,1.613,1.613,0,0,1,.3-.9,3.278,3.278,0,0,1,.6-.8H81.4v-.3h1.9v.3a1.337,1.337,0,0,0-.8.7,1.433,1.433,0,0,0-.4,1c0,.8.3,1.2,1,1.2a.367.367,0,0,0,.3-.1v.4h-.3" fill="#231f20"/>
      <path id="Path_41" data-name="Path 41" d="M85.6,49.4v2.9h-.4V50.4c0-.1-.1-.2-.2-.3a.961.961,0,0,0-.9-.6.758.758,0,0,0-.4.2l-.2.2a.756.756,0,0,1,.4-.1.9.9,0,0,1,.5.1.52.52,0,0,1,.2.4.864.864,0,0,1-.3.6c-.2.2-.4.4-.6.4l-.2-.3c.2-.1.3-.2.5-.3.2-.2.3-.3.3-.5,0-.1-.1-.2-.3-.2s-.3-.1-.4-.1h-.1l-.2-.4.4-.4c.2-.1.3-.2.5-.2a1.269,1.269,0,0,1,1.1.7v-.7H86v.3h-.4Z" fill="#231f20"/>
      <path id="Path_42" data-name="Path 42" d="M88.9,49.4v3h-.4a2.089,2.089,0,0,0-1-.8,2.421,2.421,0,0,0-1.3-.4l-.1-.5a13.823,13.823,0,0,1,2.4-1.1v-.2H85.9v-.3h3.4v.3Zm-.4.6a8.865,8.865,0,0,0-1.7.8,4.248,4.248,0,0,1,1.7,1Zm-1,2.5a1.538,1.538,0,0,0-.6-.4l.2-.3a2.092,2.092,0,0,1,.6.4Z" fill="#231f20"/>
      <path id="Path_43" data-name="Path 43" d="M94.4,48.5a3.192,3.192,0,0,0-1.6-.6,1.689,1.689,0,0,0-1,.3.975.975,0,0,0-.4.9h.4v.3h-.4v2.9H91V49.4h-.4v-.3H91a1.656,1.656,0,0,1,.5-1.2,1.594,1.594,0,0,1,1.2-.4,4.4,4.4,0,0,1,1,.2c.2.1.5.3.9.5Z" fill="#231f20"/>
      <path id="Path_44" data-name="Path 44" d="M93.7,49.4v1.3l1.1-.4.3.3V51a1.5,1.5,0,0,1-.4,1.1,1.159,1.159,0,0,1-1,.4,1.425,1.425,0,0,1-1.2-.6,3.458,3.458,0,0,1-.7-1.2l.3-.2c.4,1.1.9,1.6,1.6,1.6a1.025,1.025,0,0,0,1-1,.367.367,0,0,0-.1-.3l-1,.4-.4-.3V49.5H91.5v-.3h3.8v.3H93.7Z" fill="#231f20"/>
      <path id="Path_45" data-name="Path 45" d="M99.1,48.5a3.192,3.192,0,0,0-1.6-.6,1.689,1.689,0,0,0-1,.3.975.975,0,0,0-.4.9h.4v.3h-.4v2.9h-.4V49.4h-.4v-.3h.4a1.656,1.656,0,0,1,.5-1.2,1.594,1.594,0,0,1,1.2-.4,4.4,4.4,0,0,1,1,.2c.2.1.5.3.9.5Z" fill="#231f20"/>
      <path id="Path_46" data-name="Path 46" d="M98.8,49.4a.8.8,0,0,0,.9.6h.2l.3.4a3.259,3.259,0,0,0-.3,1,2.151,2.151,0,0,0,.2,1l-.3.1a1.613,1.613,0,0,1-.3-.9,1.268,1.268,0,0,1,.1-.6,3.933,3.933,0,0,1,.2-.6,1.136,1.136,0,0,1-.8-.3,1.157,1.157,0,0,1-.5-.7,1.217,1.217,0,0,0-.6,1,.265.265,0,0,0,.3.3.367.367,0,0,0,.3-.1c.1-.1.2-.1.2-.2H99c.1.1.1.3.1.6,0,.8-.4,1.1-1.2,1.1a1.087,1.087,0,0,1-.5-.1c-.1,0-.2-.1-.4-.2-.1-.2-.3-.5-.5-.9l.2-.2a3.744,3.744,0,0,0,.6,1h0l.3.1a.367.367,0,0,0,.3.1,1.421,1.421,0,0,0,.6-.2c.2-.1.2-.3.2-.5a.367.367,0,0,0-.1-.3.864.864,0,0,1-.6.3.684.684,0,0,1-.7-.7,1.222,1.222,0,0,1,.4-.9H96.2v-.3h4.1v.3H98.8Z" fill="#231f20"/>
      <path id="Path_47" data-name="Path 47" d="M101,49.4V52h.2a2.236,2.236,0,0,0,1-.3.938.938,0,0,0,.6-.8.472.472,0,0,0-.5-.5,1.689,1.689,0,0,0-.5.2l-.2-.3a1.077,1.077,0,0,1,.8-.2.864.864,0,0,1,.6.3,1.421,1.421,0,0,1,.2.6,1.382,1.382,0,0,1-.5.9,1.8,1.8,0,0,1-.9.4,3.42,3.42,0,0,1-1.1.1v-3h-.3v-.3h2.3V49a.55.55,0,0,0-.3-.5,1.421,1.421,0,0,0-.6-.2,1.862,1.862,0,0,0-1.1.4l-.1-.3a2.421,2.421,0,0,1,1.3-.4,1.613,1.613,0,0,1,.9.3,1.235,1.235,0,0,1,.4.8h.4v.3Z" fill="#231f20"/>
      <path id="Path_48" data-name="Path 48" d="M104.2,49.4v3h-.4v-3h-.5v-.3h1.4v.3Z" fill="#231f20"/>
      <path id="Path_49" data-name="Path 49" d="M108.1,49.4v3h-.4v-.6c0-.7-.2-1-.5-1-.1,0-.2.1-.3.2s-.1.2-.1.4h-.4c0-.1-.1-.3-.1-.4a.5.5,0,0,0-.8,0,.6.6,0,0,0-.1.4c0,.4.2.5.7.5h.1l-.1.4H106a1,1,0,0,1,0-2c.3,0,.5.2.7.5a1.035,1.035,0,0,1,.7-.5c.2,0,.4.2.5.5V49.5h-3.2v-.3h3.9v.3h-.5Z" fill="#231f20"/>
      <path id="Path_50" data-name="Path 50" d="M110.4,51.1a1.268,1.268,0,0,0,.1.6.51.51,0,0,0,.5.4.367.367,0,0,0,.3-.1l.1.3a.6.6,0,0,1-.4.1c-.6,0-1-.5-1-1.5a2.557,2.557,0,0,1,1.1-1.8h.6v.3a1.456,1.456,0,0,0-.9.6,1.5,1.5,0,0,0-.4,1.1" fill="#231f20"/>
      <path id="Path_51" data-name="Path 51" d="M115,49.4v3h-.4v-.6c0-.7-.2-1-.5-1-.1,0-.2.1-.3.2s-.1.2-.1.4h-.4c0-.1-.1-.3-.1-.4a.5.5,0,0,0-.8,0,.6.6,0,0,0-.1.4c0,.4.2.5.7.5h.1l-.1.4h-.1a1,1,0,0,1,0-2c.3,0,.5.2.7.5a1.035,1.035,0,0,1,.7-.5c.2,0,.4.2.5.5V49.5h-3.2v-.3h3.9v.3H115Z" fill="#231f20"/>
      <path id="Path_52" data-name="Path 52" d="M118.3,49.4v3h-.4v-.2a1.382,1.382,0,0,0-.5-.9,1.648,1.648,0,0,0-.9-.5.6.6,0,0,0-.4.1c-.1.1-.2.2-.2.3s0,.3.1.3c.1.1.2.1.4.1a.367.367,0,0,0,.3-.1l.1.4a.749.749,0,0,1-.5.1.864.864,0,0,1-.6-.3,1.421,1.421,0,0,1-.2-.6.845.845,0,0,1,.2-.6.864.864,0,0,1,.6-.3,1.681,1.681,0,0,1,1.5,1V49.3h-2.7V49h3.4v.3h-.2Z" fill="#231f20"/>
      <path id="Path_53" data-name="Path 53" d="M120.1,52.6a2,2,0,0,1-.9-.2,1.9,1.9,0,0,1-.5-1.3,1.613,1.613,0,0,1,.3-.9,3.278,3.278,0,0,1,.6-.8h-1.2v-.3h1.9v.3a1.337,1.337,0,0,0-.8.7,1.433,1.433,0,0,0-.4,1c0,.8.3,1.2,1,1.2a.367.367,0,0,0,.3-.1v.4h-.3" fill="#231f20"/>
      <path id="Path_54" data-name="Path 54" d="M120.5,49.4v1.3a5.569,5.569,0,0,1,1.5-.8l.4.5a3.035,3.035,0,0,0-.3,1.1,3.091,3.091,0,0,0,.2.8l-.3.1a4.5,4.5,0,0,1-.2-.8,4.869,4.869,0,0,1,.1-1.2,7.689,7.689,0,0,0-1.5,1l-.3-.3V49.4h-.3v-.3h2.9v.3h-2.2Z" fill="#231f20"/>
      <path id="Path_55" data-name="Path 55" d="M125.6,49.4v3h-.4v-.2a1.382,1.382,0,0,0-.5-.9,1.648,1.648,0,0,0-.9-.5.6.6,0,0,0-.4.1c-.1.1-.2.2-.2.3s0,.3.1.3c.1.1.2.1.4.1a.367.367,0,0,0,.3-.1l.1.4a.749.749,0,0,1-.5.1.864.864,0,0,1-.6-.3.735.735,0,0,1-.2-.6.845.845,0,0,1,.2-.6.864.864,0,0,1,.6-.3,1.681,1.681,0,0,1,1.5,1V49.3h-2.7V49h3.4v.3h-.2Z" fill="#231f20"/>
    </g>
  </g>
</svg>
