<svg xmlns="http://www.w3.org/2000/svg" width="275.407" height="275.822" viewBox="0 0 275.407 275.822">
  <g id="Untitled-1" transform="translate(-886.57 -466.573)">
    <g id="Group_1" data-name="Group 1" transform="translate(896.568 476.472)">
      <path id="Path_2" data-name="Path 2" d="M1112.787,696.481c-4.381,3.717-8.62,7.636-13.2,11.092a117.016,117.016,0,0,1-33.557,17.5,122.1,122.1,0,0,1-27.308,6.109c-5.084.442-10.208.864-15.312.924-11.675.141-23.048-1.989-34.261-5.1a124.176,124.176,0,0,1-44.207-22.686,127.191,127.191,0,0,1-31.227-36.471c-7.475-12.921-12.137-26.806-14.95-41.374a108.885,108.885,0,0,1-1.969-28.192c1.507-21.38,7.174-41.555,18.406-60a126.455,126.455,0,0,1,65.126-53.672,145.015,145.015,0,0,1,27.871-6.933c4.642-.683,9.384-.643,14.086-.924-3.115,1.808-5.044,4.32-5,8.078.02,2.07.04,4.16,0,6.229-.121,4.461,1.406,7.9,5.847,9.585-4.059.322-8.118.6-12.177.985-11.976,1.145-23.129,5.084-33.718,10.489a102.6,102.6,0,0,0-29.418,22.465,106.143,106.143,0,0,0-21.682,36.793,100.3,100.3,0,0,0-4.943,24.837,93.526,93.526,0,0,0,1.467,27.429,148.31,148.31,0,0,0,6.33,20.577,90.2,90.2,0,0,0,21.481,32.694,126.5,126.5,0,0,0,18.688,14.95,94.634,94.634,0,0,0,49.633,16,122.21,122.21,0,0,0,24.374-1.507,93.885,93.885,0,0,0,37.034-14.669c5.566-3.717,10.73-8.058,16.076-12.117-1.085,4.622.723,8.118,4.2,11.012a24.019,24.019,0,0,1,2.371,2.371C1105.533,695.9,1108.667,697.546,1112.787,696.481Z" transform="translate(-896.568 -476.19)" fill="#dfe3e4" stroke="#dfe3e4" stroke-width="20"/>
      <path id="Path_3" data-name="Path 3" d="M1052.171,696.762c-4.119,1.085-7.254-.563-9.927-3.537a26.415,26.415,0,0,0-2.371-2.371c-3.456-2.894-5.285-6.39-4.2-11.012,1.969-2.311,3.838-4.722,5.888-6.932,9.585-10.328,15.895-22.586,20.677-35.667,3.8-10.349,5.144-21.2,5.224-32.151a104.412,104.412,0,0,0-1.487-18.567,102.026,102.026,0,0,0-13.684-35.909,103.856,103.856,0,0,0-25.058-27.891A89.056,89.056,0,0,0,1004,509.4a121.142,121.142,0,0,0-19.09-5.908c-7.374-1.467-14.95-1.788-22.445-2.612-4.421-1.688-5.948-5.124-5.847-9.585.06-2.07.04-4.159,0-6.229-.06-3.758,1.889-6.289,5-8.078,6.732-1.226,13.4-.02,20.014.924a135.767,135.767,0,0,1,17.422,3.737,90.746,90.746,0,0,1,15.533,5.486,181.614,181.614,0,0,1,22.546,12.6c6.048,4.1,11.313,9.384,16.739,14.347a71.628,71.628,0,0,1,9.042,9.605c4.481,6.028,8.681,12.278,12.6,18.688a74.2,74.2,0,0,1,6.149,12.72c2.331,6.229,4.3,12.6,6.089,19.009a84.51,84.51,0,0,1,3.436,23.289c-.04,6.37.542,12.82-.141,19.11a178.409,178.409,0,0,1-4.139,22.486,112.964,112.964,0,0,1-10.67,26.946,140.811,140.811,0,0,1-11.132,16.819c-3.074,4.159-6.711,7.9-10.168,11.755A19.09,19.09,0,0,1,1052.171,696.762Z" transform="translate(-835.952 -476.471)" fill="#dc143c" stroke="#dc143c" stroke-linecap="square" stroke-linejoin="round" stroke-width="20"/>
    </g>
  </g>
</svg>
