<svg height="512" viewBox="0 0 58 58" width="512" xmlns="http://www.w3.org/2000/svg"><g id="Page-1" fill="none" fill-rule="evenodd"><g id="001---Ball" fill-rule="nonzero" transform="translate(-1 -1)"><path id="Shape" d="m59 30c0 .42-.01.84-.03 1.25-.274428 6.7909526-2.9416855 13.2660477-7.53 18.28-.51.56-1.04 1.1-1.59 1.61-5.3693627 5.0599831-12.4721054 7.8724545-19.85 7.86-.77 0-1.53-.03-2.28-.09-.86-.07-1.71-.17-2.55-.31-7.9197504-1.3377691-14.9299894-5.900218-19.36-12.6-.19-.28-.37-.57-.54-.86-.36-.57-.69-1.16-1-1.76-2.68196761-5.1520263-3.75167129-10.9918418-3.07-16.76.08-.72.19-1.44.33-2.15 1.04407609-5.4121044 3.61532189-10.4123273 7.41-14.41.46-.49.95-.97 1.45-1.42 4.5369093-4.18890749 10.3006182-6.80781903 16.44-7.47.9931401-.10732036 1.9910958-.16406032 2.99-.17h.18c4.4362735-.00784756 8.814053 1.0121511 12.79 2.98.7121204.34100719 1.4063581.7181652 2.08 1.13.38.22.76.46 1.13.7 7.821758 5.1672729 12.6584619 13.8010502 12.98 23.17.01.34.02.68.02 1.02z" fill="#e57e25"/><path id="Shape" d="m53 24.5c.0049527 11.1665106-6.5146756 21.3062311-16.6762336 25.9358877-10.1615581 4.6296567-22.0910152 2.8954318-30.5137664-4.4358877-7.61232265-11.4974849-6.07601239-26.765263 3.67436232-36.51563768 9.75037468-9.75037471 25.01815278-11.28668497 36.51563768-3.67436232 4.525577 5.1732211 7.0137544 11.8166547 7 18.69z" fill="#f29c1f"/><path id="Shape" d="m54 24c-.4447224-.0001295-.8359225-.293937-.96-.721-1.1370291-3.8689802-3.2276598-7.3903863-6.08-10.241-.2599566-.2510745-.3642126-.6228779-.2726972-.9725073.0915155-.3496295.3645604-.6226744.7141899-.7141899.3496294-.0915154.7214328.0127406.9725073.2726972 3.0908409 3.0896198 5.3555513 6.9065475 6.586 11.1.1547141.5298953-.14921 1.0849259-.679 1.24-.0915258.025064-.1861117.0371818-.281.036z" fill="#fff"/><path id="Shape" d="m31.09 24.24c-.06.66-.09 1.24-.09 1.76 0 10.62 8.38 20.05 20.44 23.53-.51.56-1.04 1.1-1.59 1.61-12.35-3.98-20.85-13.93-20.85-25.14 0-.57.03-1.17.09-1.87-1.62-.07-3.24-.13-4.88-.13h-.21c-.57 0-1.14.02-1.71.02-.18 2.32-.29 4.7-.29 7.15 0 10.03 1.63 19.52 4.36 25.38.3732154.8301959.8288333 1.6208269 1.36 2.36-.86-.07-1.71-.17-2.55-.31-.22-.38-.42-.78-.62-1.2-2.85-6.12-4.55-15.92-4.55-26.23 0-2.44.11-4.81.29-7.1-1.79.06-3.55.16-5.29.31v.26c0 7.64-2.63 14.75-6.87 18.56-.8594679.7752583-1.82189488 1.4280934-2.86 1.94-.36-.57-.69-1.16-1-1.76.92163775-.4224048 1.77183442-.9858288 2.52-1.67 3.83-3.44 6.21-9.98 6.21-17.07v-.06c-.44.04-.89.08-1.32.13-3.53165208.4047189-7.03263952 1.0427806-10.48 1.91.08-.72.19-1.44.33-2.15 3.26637046-.7737522 6.57541537-1.354755 9.91-1.74.49-.06.99-.11 1.49-.16-.1942065-4.4505599-1.5715075-8.7688647-3.99-12.51.46-.49.95-.97 1.45-1.42 2.7536572 4.0719303 4.3219674 8.8287917 4.53 13.74 1.82-.15 3.67-.26 5.54-.32.94-9.57 3.29-17.06 6.37-20.89.9931401-.10732036 1.9910958-.16406032 2.99-.17-3.39 2.33-6.28 10.5-7.35 21.02.51-.01 1.02-.02 1.53-.02h.21c1.73 0 3.45.06 5.15.14 1.23-7.34 6.1-13.89 13.43-18.16.7121204.34100719 1.4063581.7181652 2.08 1.13-7.31 3.9-12.22 10.1-13.5 17.14 1.97.14 3.92.32 5.83.56 8.75 1.1 16.32 3.26 21.78 6.17.01.34.02.68.02 1.02 0 .42-.01.84-.03 1.25-5.28-3.04-12.98-5.31-22.02-6.46-1.91-.24-3.88-.42-5.86-.55z" fill="#d25627"/><circle id="Oval" cx="45" cy="10" fill="#fff" r="1"/></g></g></svg>