<svg xmlns="http://www.w3.org/2000/svg" xmlns:xlink="http://www.w3.org/1999/xlink" width="480" height="480" viewBox="0 0 480 480">
  <defs>
    <linearGradient id="linear-gradient" x1="0.159" y1="-0.043" x2="1" y2="1.163" gradientUnits="objectBoundingBox">
      <stop offset="0" stop-color="#ab00ff"/>
      <stop offset="1" stop-color="#e52323"/>
    </linearGradient>
  </defs>
  <path id="FootballIcon" d="M240,0C107.453,0,0,107.453,0,240S107.453,480,240,480,480,372.547,480,240C479.852,107.516,372.484.148,240,0Zm8.566,69.191L332,35.84a224.5,224.5,0,0,1,27.414,14.777l.219.137a225.284,225.284,0,0,1,24.7,18.109l.672.586q5.256,4.477,10.223,9.262c.418.41.855.8,1.273,1.219q5.209,5.086,10.09,10.484c.27.3.527.625.8.93,2.855,3.2,5.6,6.512,8.266,9.879.641.8,1.281,1.6,1.9,2.4,2.891,3.742,5.688,7.551,8.328,11.48l-16.633,70.7L327.414,213.09l-78.828-63.074ZM62.441,103.672q.932-1.2,1.895-2.4,3.949-5.01,8.168-9.777c.3-.336.586-.68.887-1.016Q78.242,85.072,83.441,80c.4-.391.8-.8,1.215-1.16q4.928-4.752,10.137-9.207l.8-.672a226.155,226.155,0,0,1,24.461-18l.313-.2A224.725,224.725,0,0,1,147.617,36l83.816,33.191v80.8L152.6,213.055,70.77,185.824l-16.633-70.7c2.664-3.922,5.43-7.723,8.3-11.449ZM52.8,362.762q-3.527-5.379-6.746-10.961l-.52-.9q-3.2-5.555-6.055-11.293l-.066-.121a222.888,222.888,0,0,1-10.535-24.8v-.078c-1.422-4-2.719-8.1-3.918-12.219l-.434-1.52q-1.646-5.807-2.984-11.742c-.078-.387-.176-.754-.254-1.137a222.661,222.661,0,0,1-4.227-27.1L65.9,202.289l81.266,27.086,23.586,94.336L132,375.273Zm240.473,94.781c-4,.992-8.105,1.848-12.211,2.617-.574.113-1.16.207-1.734.313-3.5.625-7.031,1.16-10.574,1.6-.945.121-1.883.25-2.824.363-3.289.383-6.609.672-9.938.91-1.047.07-2.082.176-3.129.242-4.254.262-8.543.414-12.863.414q-5.936,0-11.8-.312c-.473,0-.926-.078-1.4-.113q-5.221-.3-10.4-.8l-.4-.074a227.946,227.946,0,0,1-22.559-3.6l-47.32-74.09,38.145-50.863H295.735l38.77,51.2ZM458.77,288c-.082.383-.176.754-.258,1.137q-1.342,5.93-2.984,11.742l-.43,1.52c-1.2,4.121-2.5,8.2-3.922,12.219v.078a222.146,222.146,0,0,1-10.535,24.8l-.066.121q-2.871,5.742-6.055,11.293l-.52.9q-3.2,5.6-6.734,10.945L348.336,375.2l-39.023-51.52,23.574-94.312,81.266-27.086,48.84,58.605A222.142,222.142,0,0,1,458.77,288Zm0,0" fill="url(#linear-gradient)"/>
</svg>
