<svg height="512" viewBox="0 0 60 60" width="512" xmlns="http://www.w3.org/2000/svg"><g id="Page-1" fill="none" fill-rule="evenodd"><g id="010---Hockey-Sticks" fill-rule="nonzero" transform="translate(-1 -1)"><path id="Shape" d="m51.19 20.11-16.68 27.83-3.51 5.85-2.34 3.9c-.8345279 1.4294244-2.3647993 2.3087595-4.02 2.31-.3606762.0011832-.7201002-.0424851-1.07-.13l-4.57-1.34v-9.71l4.37 1.42c1.3455203.4455064 2.8190465-.1138492 3.53-1.34l.59-.96 3.51-5.69 15.3-24.81z" fill="#e8edfc"/><path id="Shape" d="m46.3 17.44-.756 1.225 2.646 1.445-16.68 27.83-3.51 5.85-2.34 3.9c-.5655235.9674969-1.4631617 1.6966947-2.526 2.052l.436.128c.3498998.0875149.7093238.1311832 1.07.13 1.6552007-.0012405 3.1854721-.8805756 4.02-2.31l2.34-3.9 3.51-5.85 16.68-27.83z" fill="#cad9fc"/><path id="Shape" d="m19 48.82v9.71l-4-1.17v-9.85z" fill="#e8edfc"/><path id="Shape" d="m15 47.51v9.85l-4-1.17v-9.98z" fill="#e8edfc"/><path id="Shape" d="m11 46.21v9.98l-4-1.17v-10.12z" fill="#e8edfc"/><path id="Shape" d="m7 44.9v10.12l-3.47-1.02c-.91460291-.2208621-1.55158505-1.0493552-1.53-1.99v-6.03c.01487897-.6154653.31238229-1.1897821.80653418-1.5569779.4941519-.3671959 1.12988045-.4863479 1.72346582-.3230221z" fill="#e8edfc"/><path id="Shape" d="m53.45 16.34-2.26 3.77-4.89-2.67 2.31-3.74z" fill="#e8edfc"/><path id="Shape" d="m55.71 12.57-2.26 3.77-4.84-2.64 2.3-3.74z" fill="#cad9fc"/><path id="Shape" d="m57.97 8.8-2.26 3.77-4.8-2.61 2.31-3.75z" fill="#e8edfc"/><path id="Shape" d="m59.64 6.01-1.67 2.79-4.75-2.59 1.78-2.88c.4798986-.82626375 1.3644881-1.33337754 2.32-1.33.339143-.00086865.6752743.06364141.99.19.7202354.28820434 1.2802523.87435663 1.5353279 1.60698006.2550757.73262343.1801816 1.53983114-.2053279 2.21301994z" fill="#cad9fc"/><path id="Shape" d="m43 48.82v9.71l-4.57 1.34c-.3498998.0875149-.7093238.1311832-1.07.13-1.6552007-.0012405-3.1854721-.8805756-4.02-2.31l-2.34-3.9 3.51-5.85.59.96c.7109535 1.2261508 2.1844797 1.7855064 3.53 1.34z" fill="#e8edfc"/><path id="Shape" d="m35.63 50.24.646-.21c-.4898917-.2593744-.897295-.6508419-1.176-1.13l-.59-.96-1.249 2.082c.7261592.3951181 1.5829273.4739596 2.369.218z" fill="#cad9fc"/><path id="Shape" d="m40 49.8v8.73l-4.134 1.212c.4804638.1674173.9852148.2545832 1.494.258.3606762.0011832.7201002-.0424851 1.07-.13l4.57-1.34v-9.71z" fill="#cad9fc"/><path id="Shape" d="m47 47.51v9.85l-4 1.17v-9.71z" fill="#e8edfc"/><path id="Shape" d="m51 46.21v9.98l-4 1.17v-9.85z" fill="#e8edfc"/><path id="Shape" d="m55 44.9v10.12l-4 1.17v-9.98z" fill="#e8edfc"/><path id="Shape" d="m60 45.98v6.03c.021585.9406448-.6153971 1.7691379-1.53 1.99l-3.47 1.02v-10.12l2.47-.8c.5935854-.1633258 1.2293139-.0441738 1.7234658.3230221.4941519.3671958.7916552.9415126.8065342 1.5569779z" fill="#e8edfc"/><path id="Shape" d="m57.47 44.1-1.2.39c.4499515.365671.7168062.9103471.73 1.49v6.03c.021585.9406448-.6153971 1.7691379-1.53 1.99l-.47.138v.882l3.47-1.02c.9146029-.2208621 1.551585-1.0493552 1.53-1.99v-6.03c-.014879-.6154653-.3123823-1.1897821-.8065342-1.5569779-.4941519-.3671959-1.1298804-.4863479-1.7234658-.3230221z" fill="#cad9fc"/><path id="Shape" d="m31 42.25-3.51 5.69-16.68-27.83 4.89-2.67z" fill="#e8edfc"/><path id="Shape" d="m15.7 17.44-2.244 1.225 14.544 23.585-1.988 3.223 1.478 2.467 3.51-5.69z" fill="#cad9fc"/><path id="Shape" d="m15.7 17.44-4.89 2.67-2.26-3.77 4.84-2.64z" fill="#e8edfc"/><path id="Shape" d="m13.39 13.7-4.84 2.64-2.26-3.77 4.8-2.61z" fill="#cad9fc"/><path id="Shape" d="m11.09 9.96-4.8 2.61-2.26-3.77 4.75-2.59z" fill="#e8edfc"/><path id="Shape" d="m8.78 6.21-4.75 2.59-1.67-2.79c-.38550947-.6731888-.46040365-1.48039651-.20532795-2.21301994s.8150926-1.31877572 1.53532795-1.60698006c.31472565-.12635859.650857-.19086865.99-.19.95551192-.00337754 1.8401014.50373625 2.32 1.33z" fill="#cad9fc"/><path id="Shape" d="m41 8.5c0 1.74-2.2 3.25-5.41 4-1.5060941.340155-3.0459914.5078998-4.59.5-1.5440086.0078998-3.0839059-.159845-4.59-.5-3.21-.75-5.41-2.26-5.41-4 0-2.49 4.47-4.5 10-4.5s10 2.01 10 4.5z" fill="#cad9fc"/><path id="Shape" d="m31 4c-.511 0-1.01.023-1.5.056 4.814.325 8.5 2.184 8.5 4.444 0 1.74-2.2 3.25-5.41 4-1.0164401.2305522-2.0497675.3790304-3.09.444.49.033.988.056 1.5.056 1.5440086.0078998 3.0839059-.159845 4.59-.5 3.21-.75 5.41-2.26 5.41-4 0-2.49-4.47-4.5-10-4.5z" fill="#a4c2f7"/><path id="Shape" d="m41 8.5v7c0 2.49-4.47 4.5-10 4.5s-10-2.01-10-4.5v-7c0 1.74 2.2 3.25 5.41 4 1.5060941.340155 3.0459914.5078998 4.59.5 1.5440086.0078998 3.0839059-.159845 4.59-.5 3.21-.75 5.41-2.26 5.41-4z" fill="#a4c2f7"/><path id="Shape" d="m38 11.7v3.8c0 2.26-3.686 4.119-8.5 4.444.49.033.989.056 1.5.056 5.53 0 10-2.01 10-4.5v-7c0 1.255-1.156 2.386-3 3.2z" fill="#a4c2f7"/><path id="Rectangle-path" d="m24.434 40.509h2v8h-2z" fill="#fff" transform="matrix(.858 -.514 .514 .858 -19.263 19.407)"/><path id="Shape" d="m29.5 19.944c-.1 0 .928.056 1.5.056.511 0 1.01-.023 1.5-.056-4.814-.325-8.5-2.184-8.5-4.444v-7c0-2.26 3.686-4.119 8.5-4.444-.49-.033-.989-.056-1.5-.056-.708 0-1.6.056-1.5.056-4.814.325-8.5 2.184-8.5 4.444v7c0 2.26 3.686 4.119 8.5 4.444z" fill="#fff"/><path id="Shape" d="m29.013 45.476c-5.35-8.926-22.196-37.032-23.653-39.466-.69160264-1.21084678-.33327252-2.75009697.822-3.531-.44148332-.30631142-.96469173-.47316683-1.502-.479-.95395742.00299185-1.83446965.51266816-2.31219573 1.33839299-.47772609.82572483-.48069805 1.84310524-.00780427 2.67160701 1.655 2.765 23.169 38.657 25.13 41.93" fill="#fff"/><path id="Shape" d="m3.53 54c22.529 6.622 18.584 5.443 20.04 5.87.846124.2060173 1.7339293.1611927 2.555-.129-.447-.126-1.1-.3-19.595-5.741-.91460291-.2208621-1.55158505-1.0493552-1.53-1.99v-6.03c.01422385-.5797922.28218854-1.1241297.733-1.489l-1.203-.391c-.59358537-.1633258-1.22931392-.0441738-1.72346582.3230221-.49415189.3671958-.79165521.9415126-.80653418 1.5569779v6.03c-.02158505.9406448.61539709 1.7691379 1.53 1.99z" fill="#fff"/><g fill="#428dff"><path id="Shape" d="m25.453 45.509c-.5522847.0027614-1.0022385-.4427153-1.0049999-.995-.0027615-.5522847.4427152-1.0022385.9949999-1.005h.01c.5522847 0 1 .4477153 1 1s-.4477153 1-1 1z"/><path id="Shape" d="m59.784 43.615c-.7532463-.5581044-1.7246455-.7306166-2.624-.466l-2.535.827-.02.006-16.285 5.308c-.9066057.2999676-1.8988029-.0828387-2.369-.914l-.275-.447 16.377-27.32c.005-.007.011-.013.015-.02v-.01l2.243-3.742c0-.007.01-.011.014-.018v-.009l2.245-3.745c0-.007.009-.011.013-.018v-.008l2.247-3.748.01-.013v-.006l1.671-2.772c1.0217268-1.75709393.4255939-4.00977321-1.3315-5.0315s-4.0097732-.42559393-5.0315 1.3315l-1.8 2.917-.007.009v.007l-21.341 34.613-19.031-30.862-2.308-3.742v-.011s-.008-.008-.011-.013l-1.784-2.887c-.65962763-1.13468074-1.87351865-1.83230612-3.186-1.831-.46732699-.00063241-.9304109.08865723-1.364.263-.98784102.39607594-1.75575588 1.20053205-2.10551498 2.20570596-.34975911 1.00517392-.24708611 2.11255873.28151498 3.03629404 0 .007.01.01.014.017l1.65 2.752 2.254 3.771 2.257 3.766 2.258 3.768 12.588 21c.1794304.3150758.5153541.5083425.8779247.5050958.3625706-.0032468.6949795-.2024982.8687387-.5207367s.1616437-.7056013-.0316634-1.0123591l-12.028-20.062 3.144-1.717 14.479 23.48-3.788 6.148c-.4787878.8121065-1.4572589 1.1828781-2.354.892l-8.29-2.7h-.005l-7.986-2.61-.022-.007-2.578-.84c-.89105985-.2468235-1.84615333-.0689746-2.588648.4820346-.74249466.5510092-1.18942851 1.4136122-1.211352 2.3379654v6.029c-.03335094 1.3920354.89551973 2.6240417 2.243 2.975l20.084 5.883c.4314422.1051392.8739318.1581842 1.318.158 2.0074277.0014576 3.8640522-1.0651301 4.874-2.8l1.481-2.468 1.475 2.457c1.0110854 1.7405434 2.8720954 2.8114338 4.885 2.811.4556812.0002242.9095798-.0568911 1.351-.17l19.989-5.857c1.3711553-.3190743 2.3309571-1.5555495 2.3-2.963v-6.053c-.0190623-.9272917-.4685085-1.7929192-1.216-2.342zm-52.099-30.666 3.049-1.658 1.255 2.035-3.074 1.674zm-2.26-3.771 3-1.634 1.26 2.043-3.029 1.646zm-2.325-5.049c.15949146-.46301847.51351555-.83311796.969-1.013.78113041-.28431735 1.65413986.02570378 2.081.739l1.222 1.984-2.972 1.623-1.172-1.949c-.24344073-.42027851-.2902314-.92620268-.128-1.384zm8.076 14.642-1.23-2.052 3.1-1.689 1.254 2.037zm36.824 29.467 2-.652v7.853l-2 .586zm-2 8.373-2 .589v-7.659l2-.652zm6-9.677 2-.652v7.985l-2 .586zm-3.04-31.9 3.095 1.688-1.231 2.048-3.12-1.7zm2.3-3.739 3.049 1.658-1.225 2.047-3.073-1.676zm2.311-3.748 3 1.635-1.231 2.054-3.024-1.65zm4.367-4.427c.4469847.17933619.7955783.54178098.9573705.99541087.1617921.4536299.1212403.9548677-.1113705 1.37658913l-1.184 1.969-2.973-1.623 1.236-2c.4158917-.72323037 1.3010598-1.02951987 2.075-.718zm-45.938 44.466 2 .653v7.788l-2-.586zm-2 7.269-2-.586v-7.987l2 .652zm6-5.964 2 .652v7.657l-2-.586zm-13 3.118v-6.016c.00953464-.3038027.15672602-.5867782.4-.769.23299355-.1781005.53372312-.2419917.819-.174l1.781.58v8.054l-2.237-.656c-.46309649-.1168061-.78128301-.5417498-.763-1.019zm24.793 5.179c-.6507261 1.1225555-1.8504739 1.8131346-3.148 1.812-.2691827.0008374-.537583-.0290221-.8-.089l-3.845-1.127v-7.584l3.06 1c1.7837918.5818848 3.7325932-.1509409 4.691-1.764l18.9-30.657 3.149 1.709zm10.388 1.712c-.2684325.0674032-.5442362.1009968-.821.1-1.3035542-.0007666-2.5078661-.6962948-3.16-1.825l-2.033-3.388 2.372-3.956c1.0355815 1.3322866 2.7932629 1.8755699 4.4 1.36l3.061-1v7.59zm20.819-6.869c.0082517.4884093-.3332194.9131454-.812 1.01l-2.188.641v-8.052l1.739-.567c.2924647-.0794494.6051803-.0219799.8502875.1562623.2451072.1782421.3961575.4580234.4107125.7607377z"/><path id="Shape" d="m31 21c6.271 0 11-2.364 11-5.5v-7c0-3.136-4.729-5.5-11-5.5s-11 2.364-11 5.5v7c0 3.136 4.729 5.5 11 5.5zm0-2c-5.151 0-9-1.848-9-3.5v-3.776c1.269464.8450247 2.6890422 1.4390615 4.182 1.75 1.5807967.3578322 3.1972307.5343047 4.818.526 1.6210968.0082504 3.2378558-.1682209 4.819-.526 1.4924555-.3115563 2.9115924-.9055504 4.181-1.75v3.776c0 1.652-3.849 3.5-9 3.5zm0-14c5.151 0 9 1.848 9 3.5 0 1.144-1.906 2.388-4.635 3.026-2.8757259.6285101-5.8532741.6285101-8.729 0-2.73-.638-4.636-1.882-4.636-3.026 0-1.652 3.849-3.5 9-3.5z"/><path id="Shape" d="m15.553 4.9 2 1c.4942949.24687128 1.0951287.04629485 1.342-.448s.0462949-1.09512872-.448-1.342l-2-1c-.4942949-.24687128-1.0951287-.04629485-1.342.448s-.0462949 1.09512872.448 1.342z"/><path id="Shape" d="m15 10h2c.5522847 0 1-.44771525 1-1s-.4477153-1-1-1h-2c-.5522847 0-1 .44771525-1 1s.4477153 1 1 1z"/><path id="Shape" d="m44 6c.1547895-.00001024.3074634-.03595365.446-.105l2-1c.4942949-.24687128.6948713-.84770515.448-1.342s-.8477051-.69487128-1.342-.448l-2 1c-.415621.20714245-.6339515.67314892-.5271118 1.12507155.1068398.45192262.5107327.77082825.9751118.76992845z"/><path id="Shape" d="m44 9c0 .55228475.4477153 1 1 1h2c.5522847 0 1-.44771525 1-1s-.4477153-1-1-1h-2c-.5522847 0-1 .44771525-1 1z"/></g></g></g></svg>