<?xml version="1.0" encoding="iso-8859-1"?>
<!-- Generator: Adobe Illustrator 19.0.0, SVG Export Plug-In . SVG Version: 6.00 Build 0)  -->
<svg version="1.1" id="Capa_1" xmlns="http://www.w3.org/2000/svg" xmlns:xlink="http://www.w3.org/1999/xlink" x="0px" y="0px"
	 viewBox="0 0 512 512" style="enable-background:new 0 0 512 512;" xml:space="preserve">
<path style="fill:#303C42;" d="M256,0C114.844,0,0,114.844,0,256s114.844,256,256,256s256-114.844,256-256S397.156,0,256,0z"/>
<g>
	<path style="fill:#C6FF00;" d="M490.303,248.826c-60.056-1.371-116.221-25.589-158.876-68.253
		c-42.667-42.656-66.457-98.76-68.19-158.872C386.865,25.497,486.539,125.189,490.303,248.826z"/>
	<path style="fill:#C6FF00;" d="M21.699,263.223c60.702,1.648,116.204,25.516,158.874,68.204
		c42.667,42.656,66.457,98.76,68.19,158.872C125.152,486.503,25.488,386.836,21.699,263.223z"/>
</g>
<path style="fill:#E6E6E6;" d="M270.074,489.954c-1.818-65.68-27.799-127.001-74.418-173.611
	c-46.628-46.628-107.688-73.012-173.607-74.477C29.137,123.741,123.792,29.104,241.926,22.046
	c1.818,65.68,27.799,127.001,74.418,173.611c46.617,46.628,107.917,72.664,173.607,74.482
	C482.859,388.262,388.206,482.896,270.074,489.954z"/>
<path style="fill:#C6FF00;" d="M270.074,489.954c-1.818-65.68-27.799-127.001-74.418-173.611
	c-46.628-46.628-107.688-73.012-173.607-74.477C29.137,123.741,123.792,29.104,241.926,22.046
	c1.818,65.68,27.799,127.001,74.418,173.611c46.617,46.628,107.917,72.664,173.607,74.482
	C482.859,388.262,388.206,482.896,270.074,489.954z"/>
<path style="opacity:0.1;enable-background:new    ;" d="M432.388,239.889c18.672,5.297,38.043,8.483,57.915,8.936
	c-2.1-68.997-34.115-130.49-83.449-172.066c19.313,34.079,30.479,73.352,30.479,115.241
	C437.333,208.41,435.609,224.421,432.388,239.889z"/>
<path style="opacity:0.1;enable-background:new    ;" d="M52.547,372.161c39.298,68.604,112.178,115.557,196.216,118.138
	c-0.661-22.923-4.576-45.245-11.475-66.478c-11.329,1.688-22.829,2.845-34.621,2.845C145.603,426.667,93.268,406.15,52.547,372.161z
	"/>
<path style="opacity:0.1;enable-background:new    ;" d="M258.358,419.711c7.046,22.486,11.047,46.06,11.716,70.243
	c118.132-7.059,212.785-101.693,219.876-219.816c-21.572-0.596-42.586-4.059-62.846-9.75
	C403.092,339.023,338.767,400.029,258.358,419.711z"/>
<linearGradient id="SVGID_1_" gradientUnits="userSpaceOnUse" x1="-45.5784" y1="639.555" x2="-23.8278" y2="629.4138" gradientTransform="matrix(21.3333 0 0 -21.3333 996.3334 13791.667)">
	<stop  offset="0" style="stop-color:#FFFFFF;stop-opacity:0.2"/>
	<stop  offset="1" style="stop-color:#FFFFFF;stop-opacity:0"/>
</linearGradient>
<path style="fill:url(#SVGID_1_);" d="M256,0C114.844,0,0,114.844,0,256s114.844,256,256,256s256-114.844,256-256S397.156,0,256,0z"
	/>
<g>
</g>
<g>
</g>
<g>
</g>
<g>
</g>
<g>
</g>
<g>
</g>
<g>
</g>
<g>
</g>
<g>
</g>
<g>
</g>
<g>
</g>
<g>
</g>
<g>
</g>
<g>
</g>
<g>
</g>
</svg>
